<svg width="24" height="24" viewBox="0 0 24 24" fill="none" xmlns="http://www.w3.org/2000/svg">
<path d="M12 4.99994C11.9989 4.60068 11.9181 4.20566 11.7624 3.83802C11.6067 3.47037 11.3791 3.13751 11.0931 2.85894C10.8071 2.58037 10.4684 2.3617 10.0967 2.21573C9.72511 2.06976 9.32809 1.99945 8.92895 2.0089C8.5298 2.01835 8.13655 2.10738 7.77226 2.27077C7.40796 2.43416 7.07995 2.66863 6.80743 2.96042C6.53492 3.25222 6.32339 3.59547 6.18525 3.97007C6.04711 4.34467 5.98513 4.74308 6.00295 5.14194C5.41515 5.29308 4.86945 5.57599 4.40718 5.96925C3.94491 6.36252 3.57819 6.85582 3.3348 7.41179C3.0914 7.96777 2.97771 8.57184 3.00234 9.17826C3.02697 9.78467 3.18927 10.3775 3.47695 10.9119C2.97113 11.3229 2.57338 11.8512 2.31829 12.4509C2.0632 13.0506 1.95851 13.7035 2.01332 14.3529C2.06812 15.0023 2.28077 15.6285 2.63276 16.177C2.98475 16.7254 3.46542 17.1796 4.03295 17.4999C3.90941 18.4558 4.13512 19.4241 4.66858 20.2267C5.20204 21.0294 6.00737 21.6125 6.93646 21.8687C7.86555 22.125 8.85592 22.0371 9.72542 21.6214C10.5949 21.2057 11.2851 20.49 11.669 19.6059C11.7398 19.4292 11.7946 19.2465 11.833 19.0599C11.861 18.9299 12.139 18.9299 12.168 19.0599C12.2059 19.2464 12.2605 19.4292 12.331 19.6059C12.7148 20.49 13.405 21.2057 14.2745 21.6214C15.144 22.0371 16.1344 22.125 17.0634 21.8687C17.9925 21.6125 18.7979 21.0294 19.3313 20.2267C19.8648 19.4241 20.0905 18.4558 19.967 17.4999C20.5345 17.1796 21.0152 16.7254 21.3671 16.177C21.7191 15.6285 21.9318 15.0023 21.9866 14.3529C22.0414 13.7035 21.9367 13.0506 21.6816 12.4509C21.4265 11.8512 21.0288 11.3229 20.523 10.9119C20.8106 10.3775 20.9729 9.78467 20.9976 9.17826C21.0222 8.57184 20.9085 7.96777 20.6651 7.41179C20.4217 6.85582 20.055 6.36252 19.5927 5.96925C19.1305 5.57599 18.5848 5.29308 17.997 5.14194C18.0148 4.74308 17.9528 4.34467 17.8147 3.97007C17.6765 3.59547 17.465 3.25222 17.1925 2.96042C16.92 2.66863 16.5919 2.43416 16.2276 2.27077C15.8633 2.10738 15.4701 2.01835 15.071 2.0089C14.6718 1.99945 14.2748 2.06976 13.9032 2.21573C13.5315 2.3617 13.1928 2.58037 12.9068 2.85894C12.6208 3.13751 12.3932 3.47037 12.2375 3.83802C12.0818 4.20566 12.001 4.60068 12 4.99994Z" stroke="#D84040" stroke-width="2" stroke-linecap="round" stroke-linejoin="round"/>
<path d="M17.599 6.5C17.841 6.08059 17.9779 5.60882 17.998 5.125" stroke="#D84040" stroke-width="2" stroke-linecap="round" stroke-linejoin="round"/>
<path d="M6.00305 5.125C6.02283 5.60873 6.15938 6.0805 6.40105 6.5" stroke="#D84040" stroke-width="2" stroke-linecap="round" stroke-linejoin="round"/>
<path d="M3.47705 10.896C3.65999 10.747 3.85575 10.6145 4.06205 10.5" stroke="#D84040" stroke-width="2" stroke-linecap="round" stroke-linejoin="round"/>
<path d="M19.938 10.5C20.1443 10.6145 20.34 10.747 20.523 10.896" stroke="#D84040" stroke-width="2" stroke-linecap="round" stroke-linejoin="round"/>
<path d="M5.99996 18C5.31079 18.0003 4.63323 17.8226 4.03296 17.484" stroke="#D84040" stroke-width="2" stroke-linecap="round" stroke-linejoin="round"/>
<path d="M19.967 17.484C19.3667 17.8226 18.6892 18.0003 18 18" stroke="#D84040" stroke-width="2" stroke-linecap="round" stroke-linejoin="round"/>
<path d="M12 15C13.6569 15 15 13.6569 15 12C15 10.3431 13.6569 9 12 9C10.3431 9 9 10.3431 9 12C9 13.6569 10.3431 15 12 15Z" stroke="#D84040" stroke-width="2" stroke-linecap="round" stroke-linejoin="round"/>
<path d="M15.7 10.4L14.8 10.8" stroke="#D84040" stroke-width="2" stroke-linecap="round" stroke-linejoin="round"/>
<path d="M9.20005 13.2L8.30005 13.6" stroke="#D84040" stroke-width="2" stroke-linecap="round" stroke-linejoin="round"/>
<path d="M13.6 15.7L13.2 14.8" stroke="#D84040" stroke-width="2" stroke-linecap="round" stroke-linejoin="round"/>
<path d="M10.8 9.20005L10.4 8.30005" stroke="#D84040" stroke-width="2" stroke-linecap="round" stroke-linejoin="round"/>
<path d="M15.7 13.5L14.8 13.1" stroke="#D84040" stroke-width="2" stroke-linecap="round" stroke-linejoin="round"/>
<path d="M9.20005 10.9L8.30005 10.5" stroke="#D84040" stroke-width="2" stroke-linecap="round" stroke-linejoin="round"/>
<path d="M10.5 15.7L10.9 14.8" stroke="#D84040" stroke-width="2" stroke-linecap="round" stroke-linejoin="round"/>
<path d="M13.1 9.20005L13.5 8.30005" stroke="#D84040" stroke-width="2" stroke-linecap="round" stroke-linejoin="round"/>
</svg>
