<svg width="24" height="24" viewBox="0 0 24 24" fill="none" xmlns="http://www.w3.org/2000/svg">
<g clip-path="url(#clip0_10_331)">
<path d="M10.0399 6.29C10.6599 6.11 11.3199 6 11.9999 6C15.8599 6 18.9999 9.14 18.9999 13C18.9999 13.68 18.8899 14.34 18.7099 14.96L20.2699 16.52C20.7399 15.44 20.9999 14.25 20.9999 13C20.9999 8.03 16.9699 4 11.9999 4C10.7499 4 9.55995 4.26 8.46995 4.72L10.0399 6.29ZM3.70995 2.79C3.32995 2.41 2.70995 2.41 2.31995 2.79L2.29995 2.82C1.90995 3.21 1.90995 3.83 2.29995 4.21L2.97995 4.89L2.80995 5.03C2.38995 5.37 2.33995 5.99 2.67995 6.41L2.70995 6.44C3.05995 6.86 3.66995 6.91 4.08995 6.56L4.39995 6.31L5.19995 7.11C3.82995 8.69 2.99995 10.75 2.99995 13C2.99995 17.97 7.02995 22 11.9999 22C14.2499 22 16.3099 21.17 17.8899 19.8L19.2999 21.21C19.6799 21.59 20.2999 21.59 20.6899 21.21L20.7199 21.18C21.0999 20.8 21.0999 20.18 20.7199 19.79L3.70995 2.79ZM11.9999 20C8.13995 20 4.99995 16.86 4.99995 13C4.99995 11.3 5.60995 9.74 6.61995 8.53L16.4699 18.38C15.2599 19.39 13.6999 20 11.9999 20ZM19.9099 6.56C20.3299 6.91 20.9399 6.85 21.2899 6.44L21.3199 6.41C21.6699 5.99 21.6099 5.38 21.1999 5.03L18.0999 2.44C17.6799 2.09 17.0699 2.15 16.7199 2.56L16.6899 2.59C16.3399 3.01 16.3999 3.62 16.8099 3.97L19.9099 6.56ZM7.42995 3.68C7.60995 3.34 7.57995 2.91 7.31995 2.59L7.28995 2.56C6.98995 2.2 6.48995 2.13 6.08995 2.34L7.42995 3.68Z" fill="#D84040"/>
</g>
<defs>
<clipPath id="clip0_10_331">
<rect width="24" height="24" fill="white"/>
</clipPath>
</defs>
</svg>
