<svg width="24" height="24" viewBox="0 0 24 24" fill="none" xmlns="http://www.w3.org/2000/svg">
<g clip-path="url(#clip0_10_1835)">
<path d="M7 19C5.9 19 5 19.9 5 21H19C19 19.9 18.1 19 17 19H13V17H16C17.1 17 18 16.1 18 15H10C8.34 15 7 13.66 7 12C7 10.91 7.59 9.96 8.46 9.44C8.17 9.03 8 8.54 8 8C8 7.79 8.04 7.58 8.09 7.38C6.28 8.13 5 9.92 5 12C5 14.76 7.24 17 10 17V19H7Z" fill="#D84040"/>
<path d="M10.56 5.51C11.91 5.54 13 6.64 13 8C13 8.75 12.67 9.41 12.15 9.87L12.4 10.55C12.59 11.07 13.16 11.34 13.68 11.15C13.87 11.67 14.44 11.94 14.96 11.75C15.48 11.56 15.75 10.99 15.56 10.47C16.08 10.28 16.35 9.71 16.16 9.19L14.1 3.54C13.91 3.02 13.34 2.75 12.82 2.94C12.63 2.42 12.06 2.15 11.54 2.34C11.02 2.53 10.75 3.1 10.94 3.62C10.42 3.81 10.15 4.38 10.34 4.9L10.56 5.51Z" fill="#D84040"/>
<path d="M10.5 9.5C11.3284 9.5 12 8.82843 12 8C12 7.17157 11.3284 6.5 10.5 6.5C9.67157 6.5 9 7.17157 9 8C9 8.82843 9.67157 9.5 10.5 9.5Z" fill="#D84040"/>
</g>
<defs>
<clipPath id="clip0_10_1835">
<rect width="24" height="24" fill="white"/>
</clipPath>
</defs>
</svg>
