<svg width="24" height="24" viewBox="0 0 24 24" fill="none" xmlns="http://www.w3.org/2000/svg">
<g clip-path="url(#clip0_10_1674)">
<path d="M6.00002 13C6.55002 12.45 6.55002 11.56 6.00002 11.01V11C5.45002 10.45 4.55002 10.45 4.00002 11C3.45002 11.55 3.45002 12.45 4.00002 13C4.55002 13.55 5.45002 13.55 6.00002 13ZM20 11C19.44 10.44 18.55 10.44 18 10.99V11C17.45 11.55 17.45 12.44 18 12.99V13C18.55 13.55 19.44 13.55 19.99 13H20C20.55 12.45 20.55 11.55 20 11ZM17 6.99999L12.71 2.70999C12.08 2.07999 11 2.51999 11 3.40999V9.58999L7.11002 5.69999C6.72002 5.30999 6.09002 5.30999 5.70002 5.69999C5.31002 6.08999 5.31002 6.71999 5.70002 7.10999L10.59 12L5.70002 16.89C5.31002 17.28 5.31002 17.91 5.70002 18.3C6.09002 18.69 6.72002 18.69 7.11002 18.3L11 14.41V20.59C11 21.48 12.08 21.93 12.71 21.3L17 17C17.39 16.61 17.39 15.98 17 15.58L13.41 12L17 8.41999C17.39 8.02999 17.39 7.38999 17 6.99999ZM14.88 16.29L13 18.17V14.41L14.88 16.29ZM13 9.58999V5.82999L14.88 7.70999L13 9.58999Z" fill="#D84040"/>
</g>
<defs>
<clipPath id="clip0_10_1674">
<rect width="24" height="24" fill="white"/>
</clipPath>
</defs>
</svg>
