<svg width="24" height="24" viewBox="0 0 24 24" fill="none" xmlns="http://www.w3.org/2000/svg">
<g clip-path="url(#clip0_10_2870)">
<path d="M20 15.31L22.6 12.71C22.99 12.32 22.99 11.69 22.6 11.3L20 8.68998V4.99998C20 4.44998 19.55 3.99998 19 3.99998H15.31L12.71 1.39998C12.32 1.00998 11.69 1.00998 11.3 1.39998L8.69004 3.99998H5.00004C4.45004 3.99998 4.00004 4.44998 4.00004 4.99998V8.68998L1.40004 11.29C1.01004 11.68 1.01004 12.31 1.40004 12.7L4.00004 15.3V19C4.00004 19.55 4.45004 20 5.00004 20H8.69004L11.29 22.6C11.68 22.99 12.31 22.99 12.7 22.6L15.3 20H19C19.55 20 20 19.55 20 19V15.31ZM12 18C8.69004 18 6.00004 15.31 6.00004 12C6.00004 8.68998 8.69004 5.99998 12 5.99998C15.31 5.99998 18 8.68998 18 12C18 15.31 15.31 18 12 18Z" fill="#D84040"/>
</g>
<defs>
<clipPath id="clip0_10_2870">
<rect width="24" height="24" fill="white"/>
</clipPath>
</defs>
</svg>
