<svg width="24" height="24" viewBox="0 0 24 24" fill="none" xmlns="http://www.w3.org/2000/svg">
<g clip-path="url(#clip0_10_2867)">
<path d="M22.6 11.29L20 8.68998V4.99998C20 4.44998 19.55 3.99998 19 3.99998H15.31L12.71 1.39998C12.32 1.00998 11.69 1.00998 11.3 1.39998L8.69004 3.99998H5.00004C4.45004 3.99998 4.00004 4.44998 4.00004 4.99998V8.68998L1.40004 11.29C1.01004 11.68 1.01004 12.31 1.40004 12.7L4.00004 15.3V19C4.00004 19.55 4.45004 20 5.00004 20H8.69004L11.29 22.6C11.68 22.99 12.31 22.99 12.7 22.6L15.3 20H19C19.55 20 20 19.55 20 19V15.31L22.6 12.71C22.99 12.32 22.99 11.68 22.6 11.29ZM17.92 12.98C17.58 15.1 16.07 16.92 14.04 17.64C12.83 18.07 11.63 18.09 10.54 17.82C10.13 17.72 10.06 17.17 10.41 16.92C11.98 15.84 13 14.04 13 12C13 9.95998 11.98 8.15998 10.42 7.07998C10.07 6.83998 10.13 6.28998 10.55 6.17998C11.64 5.90998 12.84 5.92998 14.05 6.35998C16.07 7.07998 17.59 8.89998 17.93 11.02C17.98 11.35 18 11.68 18 12C17.99 12.32 17.97 12.65 17.92 12.98Z" fill="#D84040"/>
</g>
<defs>
<clipPath id="clip0_10_2867">
<rect width="24" height="24" fill="white"/>
</clipPath>
</defs>
</svg>
