<svg width="25" height="24" viewBox="0 0 25 24" fill="none" xmlns="http://www.w3.org/2000/svg">
<path d="M21.905 8.00004L19.905 10L18.405 6.30004C18.2636 5.92138 18.0107 5.59446 17.6797 5.36239C17.3488 5.13032 16.9552 5.00399 16.551 5.00004H9.30503C8.89753 4.99068 8.4969 5.10605 8.1568 5.3307C7.81669 5.55536 7.55335 5.87856 7.40203 6.25704L5.90503 10L3.90503 8.00004" stroke="#D84040" stroke-width="2" stroke-linecap="round" stroke-linejoin="round"/>
<path d="M7.90503 14H7.91503" stroke="#D84040" stroke-width="2" stroke-linecap="round" stroke-linejoin="round"/>
<path d="M17.905 14H17.915" stroke="#D84040" stroke-width="2" stroke-linecap="round" stroke-linejoin="round"/>
<path d="M19.905 10H5.90503C4.80046 10 3.90503 10.8954 3.90503 12V16C3.90503 17.1046 4.80046 18 5.90503 18H19.905C21.0096 18 21.905 17.1046 21.905 16V12C21.905 10.8954 21.0096 10 19.905 10Z" stroke="#D84040" stroke-width="2" stroke-linecap="round" stroke-linejoin="round"/>
<path d="M5.90503 18V20" stroke="#D84040" stroke-width="2" stroke-linecap="round" stroke-linejoin="round"/>
<path d="M19.905 18V20" stroke="#D84040" stroke-width="2" stroke-linecap="round" stroke-linejoin="round"/>
</svg>
