<svg width="25" height="24" viewBox="0 0 25 24" fill="none" xmlns="http://www.w3.org/2000/svg">
<path d="M7.04903 16.15C7.43638 16.15 7.75918 16.0188 8.01753 15.7563C8.27588 15.4938 8.40503 15.175 8.40503 14.8C8.40503 14.4111 8.27378 14.0806 8.01128 13.8083C7.74878 13.5361 7.43003 13.4 7.05503 13.4C6.66618 13.4 6.33563 13.5355 6.06328 13.8065C5.79111 14.0777 5.65503 14.4068 5.65503 14.794C5.65503 15.1813 5.79053 15.5041 6.06153 15.7625C6.33268 16.0209 6.66188 16.15 7.04903 16.15ZM16.83 16.15C17.2134 16.15 17.5342 16.0209 17.7925 15.7625C18.0509 15.5041 18.18 15.1834 18.18 14.8C18.18 14.7 18.1675 14.6 18.1425 14.5C18.1175 14.4 18.0884 14.3084 18.055 14.225C17.7884 14.1917 17.5384 14.1125 17.305 13.9875C17.0717 13.8625 16.8634 13.7083 16.68 13.525L16.555 13.425C16.2217 13.4917 15.9509 13.6542 15.7425 13.9125C15.5342 14.1709 15.43 14.4667 15.43 14.8C15.43 15.175 15.5661 15.4938 15.8383 15.7563C16.1106 16.0188 16.4412 16.15 16.83 16.15ZM4.40503 17.4V12.15V14.2V17.4ZM2.90503 12.4C2.90503 12.3221 2.90919 12.2444 2.91753 12.1667C2.92586 12.0889 2.94669 12.0084 2.98003 11.925L5.03003 5.75C5.11336 5.51665 5.25086 5.33335 5.44253 5.2C5.63419 5.06665 5.85503 5 6.10503 5H9.90503C10.1175 5 10.2957 5.07235 10.4395 5.217C10.5832 5.3615 10.655 5.54065 10.655 5.7545C10.655 5.96815 10.5832 6.14585 10.4395 6.2875C10.2957 6.42915 10.1175 6.5 9.90503 6.5H6.35503L4.98003 10.65H13.78C13.9925 10.65 14.1707 10.7223 14.3145 10.867C14.4582 11.0115 14.53 11.1906 14.53 11.4045C14.53 11.6181 14.4582 11.7958 14.3145 11.9375C14.1707 12.0792 13.9925 12.15 13.78 12.15H4.40503V17.4H19.405V14.65C19.405 14.4375 19.4774 14.2594 19.622 14.1155C19.7665 13.9719 19.9457 13.9 20.1595 13.9C20.3732 13.9 20.5509 13.9719 20.6925 14.1155C20.8342 14.2594 20.905 14.4375 20.905 14.65V20C20.905 20.2778 20.8072 20.5139 20.6115 20.7083C20.416 20.9028 20.1785 21 19.899 21C19.6197 21 19.3842 20.9028 19.1925 20.7083C19.0009 20.5139 18.905 20.2778 18.905 20V18.9H4.90503V20C4.90503 20.2778 4.80719 20.5139 4.61153 20.7083C4.41603 20.9028 4.17853 21 3.89903 21C3.61969 21 3.38419 20.9028 3.19253 20.7083C3.00086 20.5139 2.90503 20.2778 2.90503 20V12.4ZM15.9095 5.75C16.1232 5.75 16.3009 5.67765 16.4425 5.533C16.5842 5.3885 16.655 5.20935 16.655 4.9955C16.655 4.78184 16.5827 4.60417 16.438 4.4625C16.2935 4.32084 16.1144 4.25 15.9005 4.25C15.6869 4.25 15.5092 4.32234 15.3675 4.467C15.2259 4.6115 15.155 4.79066 15.155 5.0045C15.155 5.21815 15.2274 5.39585 15.372 5.5375C15.5165 5.67915 15.6957 5.75 15.9095 5.75ZM17.73 12.475L12.48 7.225C12.3837 7.12585 12.3054 7.0049 12.2453 6.86225C12.1851 6.7196 12.155 6.57385 12.155 6.425V2.375C12.155 2.075 12.2675 1.8125 12.4925 1.5875C12.7175 1.3625 12.98 1.25 13.28 1.25H17.33C17.4789 1.25 17.6246 1.28009 17.7673 1.34025C17.9099 1.40042 18.0309 1.47867 18.13 1.575L23.38 6.825C23.5967 7.0375 23.705 7.3031 23.705 7.62175C23.705 7.9406 23.5967 8.20835 23.38 8.425L19.33 12.475C19.1175 12.6917 18.8519 12.8 18.5333 12.8C18.2144 12.8 17.9467 12.6917 17.73 12.475ZM18.53 11.15L22.055 7.625L17.18 2.75H13.655V6.275L18.53 11.15Z" fill="#D84040"/>
<path d="M4.40503 17.4V12.15M4.40503 17.4V14.2V12.15M4.40503 17.4H19.405V14.65C19.405 14.4375 19.4774 14.2594 19.622 14.1155C19.7665 13.9719 19.9457 13.9 20.1595 13.9C20.3732 13.9 20.5509 13.9719 20.6925 14.1155C20.8342 14.2594 20.905 14.4375 20.905 14.65V20C20.905 20.2779 20.8072 20.5139 20.6115 20.7083C20.416 20.9028 20.1785 21 19.899 21C19.6197 21 19.3842 20.9028 19.1925 20.7083C19.0009 20.5139 18.905 20.2779 18.905 20V18.9H4.90503V20C4.90503 20.2779 4.80719 20.5139 4.61153 20.7083C4.41603 20.9028 4.17853 21 3.89903 21C3.61969 21 3.38419 20.9028 3.19253 20.7083C3.00086 20.5139 2.90503 20.2779 2.90503 20V12.4C2.90503 12.3221 2.90919 12.2444 2.91753 12.1667C2.92586 12.0889 2.94669 12.0084 2.98003 11.925L5.03003 5.75C5.11336 5.51665 5.25086 5.33335 5.44253 5.2C5.63419 5.06665 5.85503 5 6.10503 5H9.90503C10.1175 5 10.2957 5.07235 10.4395 5.217C10.5832 5.3615 10.655 5.54065 10.655 5.7545C10.655 5.96815 10.5832 6.14585 10.4395 6.2875C10.2957 6.42915 10.1175 6.5 9.90503 6.5H6.35503L4.98003 10.65H13.78C13.9925 10.65 14.1707 10.7223 14.3145 10.867C14.4582 11.0115 14.53 11.1907 14.53 11.4045C14.53 11.6182 14.4582 11.7958 14.3145 11.9375C14.1707 12.0792 13.9925 12.15 13.78 12.15H4.40503M7.04903 16.15C7.43638 16.15 7.75918 16.0188 8.01753 15.7563C8.27588 15.4938 8.40503 15.175 8.40503 14.8C8.40503 14.4112 8.27378 14.0806 8.01128 13.8083C7.74878 13.5361 7.43003 13.4 7.05503 13.4C6.66618 13.4 6.33563 13.5355 6.06328 13.8065C5.79111 14.0777 5.65503 14.4068 5.65503 14.794C5.65503 15.1813 5.79053 15.5041 6.06153 15.7625C6.33268 16.0208 6.66188 16.15 7.04903 16.15ZM16.83 16.15C17.2134 16.15 17.5342 16.0208 17.7925 15.7625C18.0509 15.5041 18.18 15.1834 18.18 14.8C18.18 14.7 18.1675 14.6 18.1425 14.5C18.1175 14.4 18.0884 14.3084 18.055 14.225C17.7884 14.1917 17.5384 14.1125 17.305 13.9875C17.0717 13.8625 16.8634 13.7083 16.68 13.525L16.555 13.425C16.2217 13.4917 15.9509 13.6542 15.7425 13.9125C15.5342 14.1709 15.43 14.4667 15.43 14.8C15.43 15.175 15.5661 15.4938 15.8383 15.7563C16.1106 16.0188 16.4412 16.15 16.83 16.15ZM15.9095 5.75C16.1232 5.75 16.3009 5.67765 16.4425 5.533C16.5842 5.3885 16.655 5.20935 16.655 4.9955C16.655 4.78184 16.5827 4.60417 16.438 4.4625C16.2935 4.32084 16.1144 4.25 15.9005 4.25C15.6869 4.25 15.5092 4.32234 15.3675 4.467C15.2259 4.6115 15.155 4.79066 15.155 5.0045C15.155 5.21815 15.2274 5.39585 15.372 5.5375C15.5165 5.67915 15.6957 5.75 15.9095 5.75ZM17.73 12.475L12.48 7.225C12.3837 7.12585 12.3054 7.0049 12.2453 6.86225C12.1851 6.7196 12.155 6.57385 12.155 6.425V2.375C12.155 2.075 12.2675 1.8125 12.4925 1.5875C12.7175 1.3625 12.98 1.25 13.28 1.25H17.33C17.4789 1.25 17.6246 1.28009 17.7673 1.34025C17.9099 1.40042 18.0309 1.47867 18.13 1.575L23.38 6.825C23.5967 7.0375 23.705 7.3031 23.705 7.62175C23.705 7.9406 23.5967 8.20835 23.38 8.425L19.33 12.475C19.1175 12.6917 18.8519 12.8 18.5333 12.8C18.2144 12.8 17.9467 12.6917 17.73 12.475ZM18.53 11.15L22.055 7.625L17.18 2.75H13.655V6.275L18.53 11.15Z" stroke="#D84040" stroke-width="0.25"/>
</svg>
