<svg width="25" height="24" viewBox="0 0 25 24" fill="none" xmlns="http://www.w3.org/2000/svg">
<path d="M12.9005 22C12.6869 22 12.5092 21.9281 12.3675 21.7843C12.2259 21.6406 12.155 21.4625 12.155 21.25V19H5.65503C5.44253 19 5.26444 18.9277 5.12078 18.783C4.97694 18.6385 4.90503 18.4594 4.90503 18.2455C4.90503 18.0319 4.97694 17.8541 5.12078 17.7125C5.26444 17.5708 5.44253 17.5 5.65503 17.5H20.155C20.3675 17.5 20.5457 17.5723 20.6895 17.717C20.8332 17.8615 20.905 18.0406 20.905 18.2545C20.905 18.4681 20.8332 18.6459 20.6895 18.7875C20.5457 18.9292 20.3675 19 20.155 19H13.655V21.25C13.655 21.4625 13.5827 21.6406 13.438 21.7843C13.2935 21.9281 13.1144 22 12.9005 22ZM9.03453 11.425C9.24818 11.425 9.42588 11.3527 9.56753 11.208C9.70918 11.0635 9.78003 10.8843 9.78003 10.6705C9.78003 10.4568 9.70768 10.2792 9.56303 10.1375C9.41853 9.99585 9.23938 9.925 9.02553 9.925C8.81188 9.925 8.63418 9.99735 8.49253 10.142C8.35088 10.2865 8.28003 10.4656 8.28003 10.6795C8.28003 10.8931 8.35238 11.0708 8.49703 11.2125C8.64153 11.3541 8.82068 11.425 9.03453 11.425ZM16.7845 11.425C16.9982 11.425 17.1759 11.3527 17.3175 11.208C17.4592 11.0635 17.53 10.8843 17.53 10.6705C17.53 10.4568 17.4577 10.2792 17.313 10.1375C17.1685 9.99585 16.9894 9.925 16.7755 9.925C16.5619 9.925 16.3842 9.99735 16.2425 10.142C16.1009 10.2865 16.03 10.4656 16.03 10.6795C16.03 10.8931 16.1024 11.0708 16.247 11.2125C16.3915 11.3541 16.5707 11.425 16.7845 11.425ZM6.65053 16C6.43688 16 6.25918 15.9281 6.11753 15.7843C5.97588 15.6406 5.90503 15.4625 5.90503 15.25V8.85C5.90503 8.76835 5.90918 8.6896 5.91753 8.61375C5.92588 8.5379 5.94668 8.45835 5.98003 8.375L7.48003 4C7.58003 3.70367 7.76128 3.46292 8.02378 3.27775C8.28628 3.09259 8.58003 3 8.90503 3H16.905C17.23 3 17.5238 3.09259 17.7863 3.27775C18.0488 3.46292 18.23 3.70367 18.33 4L19.83 8.375C19.8634 8.45835 19.8842 8.5379 19.8925 8.61375C19.9009 8.6896 19.905 8.76835 19.905 8.85V15.25C19.905 15.4625 19.8327 15.6406 19.688 15.7843C19.5435 15.9281 19.3644 16 19.1505 16C18.9369 16 18.7592 15.9281 18.6175 15.7843C18.4759 15.6406 18.405 15.4625 18.405 15.25V13.8H7.40503V15.25C7.40503 15.4625 7.33268 15.6406 7.18803 15.7843C7.04353 15.9281 6.86438 16 6.65053 16ZM7.83003 7.55H18.005L16.98 4.5H8.83003L7.83003 7.55ZM7.40503 12.3H18.405V9.05H7.40503V12.3Z" fill="#D84040" stroke="#D84040" stroke-width="0.25"/>
</svg>
