<svg width="25" height="24" viewBox="0 0 25 24" fill="none" xmlns="http://www.w3.org/2000/svg">
<path d="M19.905 17H21.905C22.505 17 22.905 16.6 22.905 16V13C22.905 12.1 22.205 11.3 21.405 11.1C19.605 10.6 16.905 10 16.905 10C16.905 10 15.605 8.6 14.705 7.7C14.205 7.3 13.605 7 12.905 7H5.90503C5.30503 7 4.80503 7.4 4.50503 7.9L3.10503 10.8C2.97261 11.1862 2.90503 11.5917 2.90503 12V16C2.90503 16.6 3.30503 17 3.90503 17H5.90503" stroke="#D84040" stroke-width="2" stroke-linecap="round" stroke-linejoin="round"/>
<path d="M7.90503 19C9.0096 19 9.90503 18.1046 9.90503 17C9.90503 15.8954 9.0096 15 7.90503 15C6.80046 15 5.90503 15.8954 5.90503 17C5.90503 18.1046 6.80046 19 7.90503 19Z" stroke="#D84040" stroke-width="2" stroke-linecap="round" stroke-linejoin="round"/>
<path d="M9.90503 17H15.905" stroke="#D84040" stroke-width="2" stroke-linecap="round" stroke-linejoin="round"/>
<path d="M17.905 19C19.0096 19 19.905 18.1046 19.905 17C19.905 15.8954 19.0096 15 17.905 15C16.8005 15 15.905 15.8954 15.905 17C15.905 18.1046 16.8005 19 17.905 19Z" stroke="#D84040" stroke-width="2" stroke-linecap="round" stroke-linejoin="round"/>
</svg>
