<svg width="24" height="24" viewBox="0 0 24 24" fill="none" xmlns="http://www.w3.org/2000/svg">
<g clip-path="url(#clip0_10_4526)">
<path d="M20.99 17.99L16.05 13.05L13.93 15.17L18.87 20.11C19.46 20.7 20.41 20.7 20.99 20.11C21.57 19.52 21.57 18.57 20.99 17.99Z" fill="#D84040"/>
<path d="M17.65 9.99999C19.58 9.99999 21.15 8.42999 21.15 6.49999C21.15 5.91999 20.99 5.37999 20.74 4.89999L18.04 7.59999L16.55 6.10999L19.25 3.40999C18.77 3.15999 18.23 2.99999 17.65 2.99999C15.72 2.99999 14.15 4.56999 14.15 6.49999C14.15 6.90999 14.23 7.29999 14.36 7.65999L12.51 9.50999L10.73 7.72999C11.12 7.33999 11.12 6.70999 10.73 6.31999L10.02 5.60999L12.14 3.48999C10.97 2.31999 9.06998 2.31999 7.89998 3.48999L5.07998 6.31999C4.68998 6.70999 4.68998 7.33999 5.07998 7.72999L5.78998 8.43999H3.24998C3.05998 8.43999 2.87998 8.50999 2.74998 8.64999C2.46998 8.92999 2.46998 9.36999 2.74998 9.64999L5.28998 12.19C5.56998 12.47 6.00998 12.47 6.28998 12.19C6.41998 12.06 6.49998 11.88 6.49998 11.69V9.14999L7.19998 9.84999C7.58998 10.24 8.21998 10.24 8.60998 9.84999L10.39 11.63L4.03998 17.98C3.44998 18.57 3.44998 19.52 4.03998 20.1C4.62998 20.69 5.57998 20.69 6.15998 20.1L16.48 9.78999C16.85 9.91999 17.24 9.99999 17.65 9.99999Z" fill="#D84040"/>
</g>
<defs>
<clipPath id="clip0_10_4526">
<rect width="24" height="24" fill="white"/>
</clipPath>
</defs>
</svg>
