<svg width="24" height="24" viewBox="0 0 24 24" fill="none" xmlns="http://www.w3.org/2000/svg">
<g clip-path="url(#clip0_10_2961)">
<path d="M16 8.99998V14H18V7.99998C18 6.89998 17.1 5.99998 16 5.99998H9.99996V7.99998H15C15.55 7.99998 16 8.44998 16 8.99998ZM19 16H8.99996C8.44996 16 7.99996 15.55 7.99996 15V4.99998C7.99996 4.44998 7.54996 3.99998 6.99996 3.99998C6.44996 3.99998 5.99996 4.44998 5.99996 4.99998V5.99998H4.99996C4.44996 5.99998 3.99996 6.44998 3.99996 6.99998C3.99996 7.54998 4.44996 7.99998 4.99996 7.99998H5.99996V16C5.99996 17.1 6.89996 18 7.99996 18H16V19C16 19.55 16.45 20 17 20C17.55 20 18 19.55 18 19V18H19C19.55 18 20 17.55 20 17C20 16.45 19.55 16 19 16ZM17.66 1.39998C15.99 0.509979 13.83 -0.110021 11.39 0.0399792L15.2 3.84998L16.53 2.51998C19.62 3.97998 21.87 6.88998 22.42 10.38C22.48 10.79 22.86 11.07 23.28 11C23.69 10.94 23.97 10.55 23.9 10.14C23.3 6.33998 20.94 3.13998 17.66 1.39998ZM7.46996 21.49C4.37996 20.03 2.12996 17.12 1.57996 13.63C1.51996 13.22 1.13996 12.94 0.719965 13.01C0.309965 13.07 0.0299645 13.46 0.0999645 13.87C0.699965 17.68 3.05996 20.88 6.33996 22.62C8.00996 23.51 10.17 24.13 12.61 23.98L8.79996 20.16L7.46996 21.49Z" fill="#D84040"/>
</g>
<defs>
<clipPath id="clip0_10_2961">
<rect width="24" height="24" fill="white"/>
</clipPath>
</defs>
</svg>
