<svg width="24" height="24" viewBox="0 0 24 24" fill="none" xmlns="http://www.w3.org/2000/svg">
<g clip-path="url(#clip0_10_562)">
<path d="M20.47 5.62999C20.86 6.01999 20.86 6.63999 20.47 7.02999L9.13001 18.37C8.74001 18.76 8.12001 18.76 7.73001 18.37L3.53001 14.17C3.14001 13.78 3.14001 13.16 3.53001 12.77C3.92001 12.38 4.54001 12.38 4.93001 12.77L8.43001 16.27L19.07 5.62999C19.46 5.23999 20.08 5.23999 20.47 5.62999ZM18.36 3.50999L8.43001 13.44L5.64001 10.65C4.86001 9.86999 3.59001 9.86999 2.81001 10.65L1.41001 12.05C0.630012 12.83 0.630012 14.1 1.41001 14.88L7.01001 20.48C7.79001 21.26 9.06001 21.26 9.84001 20.48L22.59 7.73999C23.37 6.95999 23.37 5.68999 22.59 4.90999L21.19 3.50999C20.4 2.72999 19.14 2.72999 18.36 3.50999Z" fill="#D84040"/>
</g>
<defs>
<clipPath id="clip0_10_562">
<rect width="24" height="24" fill="white"/>
</clipPath>
</defs>
</svg>
