<svg width="24" height="24" viewBox="0 0 24 24" fill="none" xmlns="http://www.w3.org/2000/svg">
<g clip-path="url(#clip0_10_3472)">
<path d="M18.11 1.77L19.07 0.809999C19.1625 0.717296 19.2724 0.643748 19.3934 0.593567C19.5143 0.543385 19.644 0.517555 19.775 0.517555C19.906 0.517555 20.0357 0.543385 20.1566 0.593567C20.2776 0.643748 20.3875 0.717296 20.48 0.809999L21.19 1.52C21.58 1.91 21.58 2.54 21.19 2.93L20.23 3.89L18.11 1.77ZM17.11 2.77L19.23 4.89L13.26 10.86C13.1671 10.9533 13.0417 11.0071 12.91 11.01H11.5C11.22 11.01 11 10.79 11 10.51V9.1C11 8.97 11.05 8.84 11.15 8.75L17.11 2.77ZM15.13 2.64L9.79 7.98C9.61 8.17 9.5 8.42 9.5 8.69V11.52C9.5 12.07 9.95 12.52 10.5 12.52H13.33C13.6 12.52 13.85 12.41 14.04 12.23L19.37 6.9C19.77 7.88 20 8.99 20 10.21C20 13.39 17.55 17.13 12.66 21.44C12.28 21.77 11.71 21.77 11.33 21.44C6.45 17.13 4 13.39 4 10.21C4 5.23 7.8 2.01 12 2.01C13.09 2.01 14.16 2.23 15.13 2.64Z" fill="#D84040"/>
</g>
<defs>
<clipPath id="clip0_10_3472">
<rect width="24" height="24" fill="white"/>
</clipPath>
</defs>
</svg>
