<svg width="25" height="24" viewBox="0 0 25 24" fill="none" xmlns="http://www.w3.org/2000/svg">
<path d="M12.905 13C13.4573 13 13.905 12.5523 13.905 12C13.905 11.4477 13.4573 11 12.905 11C12.3527 11 11.905 11.4477 11.905 12C11.905 12.5523 12.3527 13 12.905 13Z" stroke="#D84040" stroke-width="2" stroke-linecap="round" stroke-linejoin="round"/>
<path d="M19.905 13C20.4573 13 20.905 12.5523 20.905 12C20.905 11.4477 20.4573 11 19.905 11C19.3527 11 18.905 11.4477 18.905 12C18.905 12.5523 19.3527 13 19.905 13Z" stroke="#D84040" stroke-width="2" stroke-linecap="round" stroke-linejoin="round"/>
<path d="M5.90503 13C6.45731 13 6.90503 12.5523 6.90503 12C6.90503 11.4477 6.45731 11 5.90503 11C5.35274 11 4.90503 11.4477 4.90503 12C4.90503 12.5523 5.35274 13 5.90503 13Z" stroke="#D84040" stroke-width="2" stroke-linecap="round" stroke-linejoin="round"/>
</svg>
