<svg width="24" height="24" viewBox="0 0 24 24" fill="none" xmlns="http://www.w3.org/2000/svg">
<g clip-path="url(#clip0_10_4598)">
<path d="M10 5H4C3.45 5 3 5.45 3 6C3 6.55 3.45 7 4 7H6V10C6 10.55 6.45 11 7 11C7.55 11 8 10.55 8 10V7H10C10.55 7 11 6.55 11 6C11 5.45 10.55 5 10 5Z" fill="#D84040"/>
<path d="M10 2H4C3.45 2 3 2.45 3 3C3 3.55 3.45 4 4 4H10C10.55 4 11 3.55 11 3C11 2.45 10.55 2 10 2Z" fill="#D84040"/>
<path d="M20.89 13.11C20.5 12.72 19.87 12.72 19.48 13.11L13.12 19.47C12.73 19.86 12.73 20.49 13.12 20.88C13.51 21.27 14.14 21.27 14.53 20.88L20.89 14.52C21.28 14.13 21.28 13.5 20.89 13.11Z" fill="#D84040"/>
<path d="M14.5 16C15.3284 16 16 15.3284 16 14.5C16 13.6716 15.3284 13 14.5 13C13.6716 13 13 13.6716 13 14.5C13 15.3284 13.6716 16 14.5 16Z" fill="#D84040"/>
<path d="M19.5 21C20.3284 21 21 20.3284 21 19.5C21 18.6716 20.3284 18 19.5 18C18.6716 18 18 18.6716 18 19.5C18 20.3284 18.6716 21 19.5 21Z" fill="#D84040"/>
<path d="M15.5 11C16.88 11 18 9.88 18 8.5V4H20C20.55 4 21 3.55 21 3C21 2.45 20.55 2 20 2H18C17.45 2 17 2.45 17 3V6.51C16.58 6.19 16.07 6 15.5 6C14.12 6 13 7.12 13 8.5C13 9.88 14.12 11 15.5 11Z" fill="#D84040"/>
<path d="M10.45 18.09C10.84 17.7 10.84 17.07 10.45 16.68C10.06 16.29 9.42999 16.29 9.03999 16.68L8.32999 17.39L7.61999 16.68L7.96999 16.33C8.94999 15.35 8.94999 13.77 7.96999 12.79C7.47999 12.3 6.83998 12.06 6.19999 12.06C5.55999 12.06 4.91999 12.3 4.42999 12.79C3.44999 13.77 3.44999 15.35 4.42999 16.33L4.77999 16.68L3.71999 17.74C2.73999 18.72 2.73999 20.3 3.71999 21.28C4.21999 21.76 4.85999 22 5.49999 22C6.13999 22 6.77999 21.76 7.26999 21.27L8.32999 20.21L9.03999 20.92C9.42999 21.31 10.06 21.31 10.45 20.92C10.84 20.53 10.84 19.9 10.45 19.51L9.73998 18.8L10.45 18.09ZM5.84999 14.2C5.96999 14.08 6.10999 14.05 6.19999 14.05C6.28998 14.05 6.42999 14.08 6.54999 14.2C6.73999 14.4 6.73999 14.71 6.54999 14.91L6.19999 15.26L5.84999 14.9C5.72999 14.78 5.69999 14.64 5.69999 14.55C5.69999 14.46 5.72999 14.32 5.84999 14.2ZM5.84999 19.85C5.72999 19.97 5.58999 20 5.49999 20C5.40999 20 5.26999 19.97 5.14999 19.85C5.02999 19.73 4.99999 19.59 4.99999 19.5C4.99999 19.41 5.02999 19.27 5.14999 19.15L6.20999 18.09L6.91999 18.8L5.84999 19.85Z" fill="#D84040"/>
</g>
<defs>
<clipPath id="clip0_10_4598">
<rect width="24" height="24" fill="white"/>
</clipPath>
</defs>
</svg>
