<svg width="24" height="24" viewBox="0 0 24 24" fill="none" xmlns="http://www.w3.org/2000/svg">
<g clip-path="url(#clip0_10_4623)">
<path d="M9 15C6.33 15 1 16.34 1 19V20C1 20.55 1.45 21 2 21H16C16.55 21 17 20.55 17 20V19C17 16.34 11.67 15 9 15Z" fill="#D84040"/>
<path d="M4.74 9H13.27C13.54 9 13.76 8.78 13.76 8.51V8.49C13.76 8.22 13.54 8 13.27 8H13C13 6.52 12.19 5.25 11 4.55V5.5C11 5.78 10.78 6 10.5 6C10.22 6 10 5.78 10 5.5V4.14C9.68 4.06 9.35 4 9 4C8.65 4 8.32 4.06 8 4.14V5.5C8 5.78 7.78 6 7.5 6C7.22 6 7 5.78 7 5.5V4.55C5.81 5.25 5 6.52 5 8H4.74C4.47 8 4.25 8.22 4.25 8.49V8.52C4.25 8.78 4.47 9 4.74 9Z" fill="#D84040"/>
<path d="M9.00001 13C10.86 13 12.41 11.72 12.86 10H5.14001C5.59001 11.72 7.14001 13 9.00001 13Z" fill="#D84040"/>
<path d="M21.98 6.23L22.91 5.4L22.16 4.1L20.97 4.49C20.83 4.38 20.67 4.29 20.5 4.22L20.25 3H18.75L18.5 4.22C18.33 4.29 18.17 4.38 18.02 4.49L16.84 4.1L16.09 5.4L17.02 6.23C17 6.4 17 6.58 17.02 6.75L16.09 7.6L16.84 8.9L18.04 8.52C18.17 8.62 18.32 8.7 18.47 8.77L18.75 10H20.25L20.52 8.78C20.68 8.71 20.82 8.63 20.96 8.53L22.15 8.91L22.9 7.61L21.97 6.76C22 6.57 21.99 6.4 21.98 6.23ZM19.5 7.75C18.81 7.75 18.25 7.19 18.25 6.5C18.25 5.81 18.81 5.25 19.5 5.25C20.19 5.25 20.75 5.81 20.75 6.5C20.75 7.19 20.19 7.75 19.5 7.75Z" fill="#D84040"/>
<path d="M19.3999 10.79L18.5499 11.07C18.4499 10.99 18.3399 10.93 18.2199 10.88L18.0399 10H16.9699L16.7899 10.87C16.6699 10.92 16.5499 10.99 16.4499 11.06L15.6099 10.78L15.0699 11.71L15.7299 12.3C15.7199 12.43 15.7199 12.55 15.7299 12.67L15.0699 13.28L15.6099 14.21L16.4699 13.94C16.5699 14.01 16.6699 14.07 16.7799 14.12L16.9599 15H18.0299L18.2199 14.13C18.3299 14.08 18.4399 14.02 18.5399 13.95L19.3899 14.22L19.9299 13.29L19.2699 12.68C19.2799 12.55 19.2799 12.43 19.2699 12.31L19.9299 11.72L19.3999 10.79ZM17.4999 13.39C17.0099 13.39 16.6099 12.99 16.6099 12.5C16.6099 12.01 17.0099 11.61 17.4999 11.61C17.9899 11.61 18.3899 12.01 18.3899 12.5C18.3899 12.99 17.9899 13.39 17.4999 13.39Z" fill="#D84040"/>
</g>
<defs>
<clipPath id="clip0_10_4623">
<rect width="24" height="24" fill="white"/>
</clipPath>
</defs>
</svg>
