<svg width="24" height="24" viewBox="0 0 24 24" fill="none" xmlns="http://www.w3.org/2000/svg">
<path d="M9 20C13.4183 20 17 16.4183 17 12C17 7.58172 13.4183 4 9 4C4.58172 4 1 7.58172 1 12C1 16.4183 4.58172 20 9 20Z" fill="#D84040"/>
<path d="M17 5.55001V5.73001C17 6.10001 17.23 6.42001 17.57 6.58001C19.6 7.54001 21 9.61001 21 12C21 14.39 19.6 16.46 17.57 17.42C17.23 17.58 17 17.89 17 18.26V18.44C17 19.12 17.71 19.55 18.32 19.26C21.08 18.01 23 15.23 23 12C23 8.77001 21.08 5.99001 18.32 4.73001C17.71 4.45001 17 4.87001 17 5.55001Z" fill="#D84040"/>
</svg>
