<svg width="24" height="24" viewBox="0 0 24 24" fill="none" xmlns="http://www.w3.org/2000/svg">
<g clip-path="url(#clip0_10_654)">
<path d="M20.5 19H3.50001C2.95001 19 2.50001 19.45 2.50001 20C2.50001 20.55 2.95001 21 3.50001 21H20.5C21.05 21 21.5 20.55 21.5 20C21.5 19.45 21.05 19 20.5 19ZM22.07 9.64C21.85 8.84 21.03 8.37 20.23 8.58L14.92 10L8.46001 3.98C8.19001 3.72 7.80001 3.63 7.44001 3.73C6.76001 3.92 6.44001 4.7 6.79001 5.31L10.23 11.27L5.26001 12.6L3.69001 11.36C3.44001 11.17 3.12001 11.1 2.81001 11.18L2.48001 11.27C2.16001 11.35 2.01001 11.72 2.18001 12L4.06001 15.25C4.29001 15.64 4.75001 15.83 5.18001 15.72L21 11.48C21.8 11.26 22.28 10.44 22.07 9.64Z" fill="#D84040"/>
</g>
<defs>
<clipPath id="clip0_10_654">
<rect width="24" height="24" fill="white"/>
</clipPath>
</defs>
</svg>
