<svg width="25" height="24" viewBox="0 0 25 24" fill="none" xmlns="http://www.w3.org/2000/svg">
<path d="M12.91 3.375C13.0734 3.375 13.2293 3.4 13.3778 3.45C13.5264 3.5 13.6689 3.575 13.805 3.675L20.305 8.55C20.4925 8.6875 20.6394 8.8625 20.7458 9.075C20.8519 9.2875 20.905 9.5125 20.905 9.75V20.25C20.905 20.4625 20.8327 20.6406 20.688 20.7843C20.5435 20.9281 20.3644 21 20.1505 21C19.9369 21 19.7592 20.9281 19.6175 20.7843C19.4759 20.6406 19.405 20.4625 19.405 20.25V9.75L12.905 4.875L6.40503 9.75V20.25C6.40503 20.4625 6.33268 20.6406 6.18803 20.7843C6.04353 20.9281 5.86436 21 5.65053 21C5.43686 21 5.25919 20.9281 5.11753 20.7843C4.97586 20.6406 4.90503 20.4625 4.90503 20.25V9.75C4.90503 9.5125 4.95819 9.2875 5.06453 9.075C5.17069 8.8625 5.31753 8.6875 5.50503 8.55L12.005 3.675C12.1434 3.575 12.2879 3.5 12.4385 3.45C12.5894 3.4 12.7465 3.375 12.91 3.375ZM9.40503 19.5H16.405V16.75H9.40503V19.5ZM9.40503 15.25H16.405V12.5H9.40503V15.25ZM8.65503 21C8.44253 21 8.26443 20.9281 8.12078 20.7843C7.97693 20.6406 7.90503 20.4625 7.90503 20.25V11.75C7.90503 11.5375 7.97693 11.3593 8.12078 11.2155C8.26443 11.0718 8.44253 11 8.65503 11H17.155C17.3675 11 17.5457 11.0718 17.6895 11.2155C17.8332 11.3593 17.905 11.5375 17.905 11.75V20.25C17.905 20.4625 17.8332 20.6406 17.6895 20.7843C17.5457 20.9281 17.3675 21 17.155 21H8.65503Z" fill="#D84040" stroke="#D84040" stroke-width="0.25"/>
</svg>
