<svg width="20" height="22" viewBox="0 0 20 22" fill="none" xmlns="http://www.w3.org/2000/svg">
<g clip-path="url(#clip0_10_5197)">
<path d="M19.905 11.2235C19.9171 10.5288 19.8456 9.8351 19.692 9.15747H10.202V12.9085H15.772C15.6665 13.5661 15.4291 14.1956 15.074 14.7591C14.719 15.3226 14.2536 15.8085 13.706 16.1875L13.687 16.3135L16.687 18.6375L16.895 18.6585C17.8885 17.6985 18.6698 16.5407 19.1882 15.2601C19.7067 13.9795 19.9509 12.6043 19.905 11.2235Z" fill="#4285F4"/>
<path d="M10.201 21.1064C12.6629 21.1759 15.0579 20.2999 16.894 18.6584L13.705 16.1874C12.6718 16.8801 11.4484 17.2335 10.205 17.1984C8.9269 17.1909 7.68361 16.7812 6.65151 16.0273C5.61941 15.2734 4.8509 14.2137 4.45499 12.9984L4.33599 13.0084L1.21599 15.4234L1.17499 15.5364C2.01529 17.2109 3.30477 18.6187 4.89928 19.6023C6.49379 20.586 8.33048 21.1068 10.204 21.1064" fill="#34A853"/>
<path d="M4.45196 13.0015C4.23099 12.3577 4.11715 11.6821 4.11496 11.0015C4.11904 10.3219 4.22903 9.64713 4.44096 9.00146L4.43496 8.86745L1.27596 6.41345L1.17596 6.46246C0.467121 7.86981 0.0979004 9.42367 0.0979004 10.9995C0.0979004 12.5752 0.467121 14.1291 1.17596 15.5365L4.45196 13.0015Z" fill="#FBBC05"/>
<path d="M10.201 4.80049C11.6486 4.77652 13.0492 5.31412 14.109 6.30049L16.962 3.51549C15.1316 1.80089 12.7088 0.860952 10.201 0.892492C8.32749 0.892146 6.4908 1.41291 4.89629 2.39657C3.30178 3.38022 2.01229 4.78799 1.172 6.46249L4.44 9.00049C4.83981 7.78551 5.61084 6.72663 6.6444 5.97312C7.67797 5.21961 8.92195 4.80946 10.201 4.80049Z" fill="#EB4335"/>
</g>
<defs>
<clipPath id="clip0_10_5197">
<rect width="19.81" height="20.215" fill="white" transform="translate(0.0949707 0.892456)"/>
</clipPath>
</defs>
</svg>
