<svg width="24" height="24" viewBox="0 0 24 24" fill="none" xmlns="http://www.w3.org/2000/svg">
<g clip-path="url(#clip0_10_3547)">
<path d="M21.6701 18.17L16.9501 13.45C16.4701 12.97 15.9601 12.86 15.3701 12.86L12.8301 15.4C12.8301 15.99 12.9401 16.51 13.4201 16.98L18.1401 21.7C18.5301 22.09 19.1601 22.09 19.5501 21.7L21.6701 19.58C22.0601 19.2 22.0601 18.56 21.6701 18.17Z" fill="#D84040"/>
<path d="M16.6301 9.49C17.0201 9.88 17.6501 9.88 18.0401 9.49L18.7501 8.78L20.8701 10.9C22.0401 9.73 22.0401 7.83 20.8701 6.66L18.0401 3.83C17.6501 3.44 17.0201 3.44 16.6301 3.83L15.9201 4.54V2C15.9201 1.38 15.1601 1.05 14.7101 1.5L12.1701 4.04C11.7201 4.49 12.0501 5.25 12.6701 5.25H15.2101L14.5001 5.96C14.1101 6.35 14.1101 6.98 14.5001 7.37L14.8501 7.72L11.9601 10.61L7.85006 6.48V5.48C7.85006 5.21 7.74006 4.96 7.56006 4.77L5.54006 2.74C5.15006 2.35 4.52006 2.35 4.13006 2.74L2.71006 4.16C2.32006 4.55 2.32006 5.18 2.71006 5.57L4.73006 7.6C4.92006 7.79 5.17006 7.89 5.44006 7.89H6.44006L10.5701 12.02L9.72006 12.87H8.42006C7.89006 12.87 7.38006 13.08 7.01006 13.46L2.29006 18.18C1.90006 18.57 1.90006 19.2 2.29006 19.59L4.41006 21.71C4.80006 22.1 5.43006 22.1 5.82006 21.71L10.5401 16.99C10.9201 16.61 11.1301 16.11 11.1301 15.58V14.29L16.2801 9.14L16.6301 9.49Z" fill="#D84040"/>
</g>
<defs>
<clipPath id="clip0_10_3547">
<rect width="24" height="24" fill="white"/>
</clipPath>
</defs>
</svg>
