<svg width="24" height="24" viewBox="0 0 24 24" fill="none" xmlns="http://www.w3.org/2000/svg">
<g clip-path="url(#clip0_10_4656)">
<path d="M8.99997 5V5.38C8.16997 5.05 7.27997 4.88 6.38997 4.88C4.96997 4.88 3.54997 5.31 2.33997 6.17C1.82997 6.53 1.76997 7.26 2.20997 7.7L4.77997 10.27H5.88997V11.38C6.74997 12.24 7.86997 12.69 8.99997 12.74V15H6.99997C6.44997 15 5.99997 15.45 5.99997 16V18C5.99997 19.1 6.89997 20 7.99997 20H18C19.66 20 21 18.66 21 17V5C21 4.45 20.55 4 20 4H9.99997C9.44997 4 8.99997 4.45 8.99997 5ZM7.88997 10.41V8.26H5.60997L4.56997 7.22C5.13997 7 5.75997 6.88 6.38997 6.88C7.72997 6.88 8.97997 7.4 9.92997 8.34L11.34 9.75L11.14 9.95C10.63 10.46 9.94997 10.75 9.21997 10.75C8.74997 10.75 8.28997 10.63 7.88997 10.41ZM19 17C19 17.55 18.55 18 18 18C17.45 18 17 17.55 17 17V16C17 15.45 16.55 15 16 15H11V12.41C11.57 12.18 12.1 11.84 12.56 11.38L12.76 11.18L15.59 14H17V12.59L11 6.62V6H19V17Z" fill="#D84040"/>
</g>
<defs>
<clipPath id="clip0_10_4656">
<rect width="24" height="24" fill="white"/>
</clipPath>
</defs>
</svg>
