<svg width="24" height="24" viewBox="0 0 24 24" fill="none" xmlns="http://www.w3.org/2000/svg">
<g clip-path="url(#clip0_10_722)">
<path d="M2.81002 2.80999C2.42002 2.41999 1.79002 2.41999 1.40002 2.80999C1.00002 3.19999 1.00002 3.82999 1.39002 4.21999L9.58002 12.41L6.58002 15.42C6.21002 15.8 6.00002 16.31 6.00002 16.84V20C6.00002 21.1 6.90002 22 8.00002 22H16C16.86 22 17.58 21.46 17.87 20.7L19.78 22.61C20.17 23 20.8 23 21.19 22.61C21.58 22.22 21.58 21.59 21.19 21.2L2.81002 2.80999ZM16 19C16 19.55 15.55 20 15 20H9.00002C8.45002 20 8.00002 19.55 8.00002 19V16.5L10.84 13.66L16 18.83V19Z" fill="#D84040"/>
<path d="M8 5C8 4.45 8.45 4 9 4H15C15.55 4 16 4.45 16 5V7.5L13.16 10.34L14.41 11.59L17.41 8.6C17.79 8.22 18 7.71 18 7.18V4C18 2.89 17.1 2 16 2H8C7.14 2 6.42 2.54 6.13 3.3L8 5.17V5Z" fill="#D84040"/>
</g>
<defs>
<clipPath id="clip0_10_722">
<rect width="24" height="24" fill="white"/>
</clipPath>
</defs>
</svg>
