<svg width="25" height="24" viewBox="0 0 25 24" fill="none" xmlns="http://www.w3.org/2000/svg">
<path d="M12.905 22C12.3384 22 11.8592 21.8041 11.4675 21.4125C11.0759 21.0208 10.88 20.5416 10.88 19.975H14.93C14.93 20.5416 14.7342 21.0208 14.3425 21.4125C13.9509 21.8041 13.4717 22 12.905 22ZM9.60503 18.425C9.39253 18.425 9.21443 18.3526 9.07078 18.208C8.92693 18.0635 8.85503 17.8843 8.85503 17.6705C8.85503 17.4568 8.92693 17.2791 9.07078 17.1375C9.21443 16.9958 9.39253 16.925 9.60503 16.925H16.205C16.4175 16.925 16.5957 16.9973 16.7395 17.142C16.8832 17.2865 16.955 17.4656 16.955 17.6795C16.955 17.8931 16.8832 18.0708 16.7395 18.2125C16.5957 18.3541 16.4175 18.425 16.205 18.425H9.60503ZM8.98003 15.4C7.88003 14.6833 7.00918 13.7875 6.36753 12.7125C5.72586 11.6375 5.40503 10.425 5.40503 9.07495C5.40503 7.0416 6.14668 5.2833 7.63003 3.79995C9.11338 2.31662 10.8717 1.57495 12.905 1.57495C14.9384 1.57495 16.6967 2.31662 18.18 3.79995C19.6634 5.2833 20.405 7.0416 20.405 9.07495C20.405 10.425 20.0884 11.6375 19.455 12.7125C18.8217 13.7875 17.9467 14.6833 16.83 15.4H8.98003ZM9.53003 13.9H16.2968C17.1023 13.3666 17.7384 12.6739 18.205 11.8217C18.6717 10.9696 18.905 10.054 18.905 9.07495C18.905 7.42495 18.3175 6.01245 17.1425 4.83745C15.9675 3.66245 14.555 3.07495 12.905 3.07495C11.255 3.07495 9.84253 3.66245 8.66753 4.83745C7.49253 6.01245 6.90503 7.42495 6.90503 9.07495C6.90503 10.054 7.13838 10.9696 7.60503 11.8217C8.07168 12.6739 8.71338 13.3666 9.53003 13.9Z" fill="#D84040" stroke="#D84040" stroke-width="0.25"/>
</svg>
