<svg width="24" height="24" viewBox="0 0 24 24" fill="none" xmlns="http://www.w3.org/2000/svg">
<g clip-path="url(#clip0_10_777)">
<path d="M21.59 12.58C21.84 12.23 21.84 11.77 21.59 11.42L17.63 5.84001C17.27 5.33001 16.67 5.00001 16 5.00001H8.66001L19.36 15.73L21.59 12.58ZM2.72001 4.72001L3.59001 5.59001C3.23001 5.95001 3.00001 6.45001 3.00001 7.00001V17C3.00001 18.1 3.90001 19 5.00001 19H17L18.29 20.29C18.68 20.68 19.31 20.68 19.7 20.29C20.09 19.9 20.09 19.27 19.7 18.88L4.14001 3.31001C3.76001 2.93001 3.13001 2.92001 2.74001 3.30001C2.33001 3.68001 2.33001 4.33001 2.72001 4.72001Z" fill="#D84040"/>
</g>
<defs>
<clipPath id="clip0_10_777">
<rect width="24" height="24" fill="white"/>
</clipPath>
</defs>
</svg>
