<svg width="24" height="24" viewBox="0 0 24 24" fill="none" xmlns="http://www.w3.org/2000/svg">
<g clip-path="url(#clip0_10_3616)">
<path d="M5.23005 2C4.04005 2 3.11005 3.04 3.24005 4.22L5.01005 20.23C5.13005 21.23 5.97005 22 7.00005 22H17.0001C18.0301 22 18.8701 21.23 18.9901 20.23L20.7601 4.22C20.8901 3.04 19.9601 2 18.7701 2H5.23005ZM12.0001 19C10.3401 19 9.00005 17.66 9.00005 16C9.00005 14.45 10.8101 12.05 11.6201 11.06C11.8201 10.81 12.1901 10.81 12.3901 11.06C13.2001 12.06 15.0101 14.45 15.0101 16C15.0001 17.66 13.6601 19 12.0001 19ZM18.3301 8H5.67005L5.35005 5.11C5.29005 4.52 5.75005 4 6.35005 4H17.6501C18.2401 4 18.7101 4.52 18.6401 5.11L18.3301 8Z" fill="#D84040"/>
</g>
<defs>
<clipPath id="clip0_10_3616">
<rect width="24" height="24" fill="white"/>
</clipPath>
</defs>
</svg>
