<svg width="25" height="24" viewBox="0 0 25 24" fill="none" xmlns="http://www.w3.org/2000/svg">
<path d="M12.905 22C10.6217 22 8.71753 21.2167 7.19253 19.65C5.66753 18.0833 4.90503 16.1334 4.90503 13.8C4.90503 12.7333 5.14669 11.675 5.63003 10.625C6.11338 9.575 6.71753 8.56665 7.44253 7.6C8.16753 6.63335 8.95088 5.72915 9.79253 4.8875C10.6342 4.04583 11.4217 3.3 12.155 2.65C12.2717 2.55 12.3925 2.47917 12.5175 2.4375C12.6425 2.39584 12.7717 2.375 12.905 2.375C13.0384 2.375 13.1675 2.39584 13.2925 2.4375C13.4175 2.47917 13.5384 2.55 13.655 2.65C14.3884 3.3 15.1759 4.04583 16.0175 4.8875C16.8592 5.72915 17.6425 6.63335 18.3675 7.6C19.0925 8.56665 19.6967 9.575 20.18 10.625C20.6634 11.675 20.905 12.7333 20.905 13.8C20.905 16.1334 20.1425 18.0833 18.6175 19.65C17.0925 21.2167 15.1884 22 12.905 22ZM12.905 20.5C14.7717 20.5 16.3217 19.8625 17.555 18.5875C18.7884 17.3125 19.405 15.7167 19.405 13.8C19.405 12.4833 18.8509 10.9875 17.7425 9.3125C16.6342 7.6375 15.0217 5.86665 12.905 4C10.7884 5.86665 9.17588 7.6375 8.06753 9.3125C6.95918 10.9875 6.40503 12.4833 6.40503 13.8C6.40503 15.7167 7.02168 17.3125 8.25503 18.5875C9.48838 19.8625 11.0384 20.5 12.905 20.5ZM12.88 18.8C13.1467 18.8 13.3509 18.7542 13.4925 18.6625C13.6342 18.5709 13.705 18.4333 13.705 18.25C13.705 18.0667 13.6342 17.925 13.4925 17.825C13.3509 17.725 13.1384 17.675 12.855 17.675C12.155 17.675 11.4425 17.4542 10.7175 17.0125C9.99253 16.5709 9.53003 15.7916 9.33003 14.675C9.29668 14.525 9.22168 14.4042 9.10503 14.3125C8.98838 14.2208 8.86338 14.175 8.73003 14.175C8.54668 14.175 8.40503 14.2458 8.30503 14.3875C8.20503 14.5292 8.17168 14.675 8.20503 14.825C8.45503 16.225 9.04668 17.2375 9.98003 17.8625C10.9134 18.4875 11.88 18.8 12.88 18.8Z" fill="#D84040" stroke="#D84040" stroke-width="0.25"/>
</svg>
