<svg width="24" height="24" viewBox="0 0 24 24" fill="none" xmlns="http://www.w3.org/2000/svg">
<g clip-path="url(#clip0_10_3692)">
<path d="M12 4C16.97 4 20.9 8.56 19.82 13.72C19.14 16.95 16.42 19.46 13.15 19.92C11.56 20.14 10.01 19.91 8.57 19.22C8.3 19.09 8.01 19.03 7.71 19.03C7.52 19.03 7.33 19.06 7.15 19.11L4.84 19.79C4.46 19.9 4.1 19.55 4.21 19.16L4.91 16.77C5.04 16.32 4.98 15.85 4.77 15.42C4.26 14.34 4 13.18 4 12C4 7.59 7.59 4 12 4ZM12 2C6.48 2 2 6.48 2 12C2 13.54 2.36 14.98 2.97 16.29L1.51 21.25C1.29 22 2 22.71 2.76 22.48L7.72 21.02C9.38 21.81 11.28 22.17 13.3 21.91C17.86 21.32 21.51 17.56 21.96 12.99C22.53 7.03 17.85 2 12 2Z" fill="#D84040"/>
<path fill-rule="evenodd" clip-rule="evenodd" d="M12 8C11.45 8 11 8.45 11 9V11H9C8.45 11 8 11.45 8 12C8 12.55 8.45 13 9 13H11V15C11 15.55 11.45 16 12 16C12.55 16 13 15.55 13 15V13H15C15.55 13 16 12.55 16 12C16 11.45 15.55 11 15 11H13V9C13 8.45 12.55 8 12 8Z" fill="#D84040"/>
</g>
<defs>
<clipPath id="clip0_10_3692">
<rect width="24" height="24" fill="white"/>
</clipPath>
</defs>
</svg>
