<svg width="25" height="24" viewBox="0 0 25 24" fill="none" xmlns="http://www.w3.org/2000/svg">
<g clip-path="url(#clip0_18_3203)">
<path d="M5.40503 8.25H20.405V5H5.40503V8.25ZM5.40503 22C5.00503 22 4.65503 21.85 4.35503 21.55C4.05503 21.25 3.90503 20.9 3.90503 20.5V5C3.90503 4.6 4.05503 4.25 4.35503 3.95C4.65503 3.65 5.00503 3.5 5.40503 3.5H7.03003V2.8C7.03003 2.57333 7.10903 2.38334 7.26703 2.23C7.42503 2.07667 7.62088 2 7.85453 2C8.08818 2 8.28003 2.07667 8.43003 2.23C8.58003 2.38334 8.65503 2.57333 8.65503 2.8V3.5H17.155V2.8C17.155 2.57333 17.234 2.38334 17.392 2.23C17.55 2.07667 17.7459 2 17.9795 2C18.2132 2 18.405 2.07667 18.555 2.23C18.705 2.38334 18.78 2.57333 18.78 2.8V3.5H20.405C20.805 3.5 21.155 3.65 21.455 3.95C21.755 4.25 21.905 4.6 21.905 5V11.925C21.905 12.1375 21.8327 12.3156 21.688 12.4593C21.5435 12.6031 21.3644 12.675 21.1505 12.675C20.9369 12.675 20.7592 12.6031 20.6175 12.4593C20.4759 12.3156 20.405 12.1375 20.405 11.925V9.75H5.40503V20.5H13.055C13.2675 20.5 13.4457 20.5723 13.5895 20.717C13.7332 20.8615 13.805 21.0406 13.805 21.2545C13.805 21.4681 13.7332 21.6459 13.5895 21.7875C13.4457 21.9291 13.2675 22 13.055 22H5.40503ZM19.18 23C17.8729 23 16.7585 22.5394 15.837 21.618C14.9157 20.6965 14.455 19.5821 14.455 18.275C14.455 16.9678 14.9157 15.8535 15.837 14.932C16.7585 14.0107 17.8729 13.55 19.18 13.55C20.4872 13.55 21.6015 14.0107 22.523 14.932C23.4444 15.8535 23.905 16.9678 23.905 18.275C23.905 19.5821 23.4444 20.6965 22.523 21.618C21.6015 22.5394 20.4872 23 19.18 23ZM19.455 18.225V15.902C19.455 15.7674 19.4075 15.6542 19.3125 15.5625C19.2175 15.4708 19.1067 15.425 18.98 15.425C18.8467 15.425 18.73 15.4725 18.63 15.5675C18.53 15.6625 18.48 15.7733 18.48 15.9V18.275C18.48 18.3678 18.4967 18.4577 18.53 18.5445C18.5634 18.6315 18.6134 18.7167 18.68 18.8L20.28 20.45C20.38 20.55 20.4967 20.6 20.63 20.6C20.7634 20.6 20.88 20.55 20.98 20.45C21.08 20.35 21.13 20.2334 21.13 20.1C21.13 19.9667 21.08 19.85 20.98 19.75L19.455 18.225Z" fill="#D84040" stroke="#D84040" stroke-width="0.25"/>
</g>
<defs>
<clipPath id="clip0_18_3203">
<rect width="24" height="24" fill="white" transform="translate(0.905029)"/>
</clipPath>
</defs>
</svg>
