<svg width="25" height="24" viewBox="0 0 25 24" fill="none" xmlns="http://www.w3.org/2000/svg">
<path d="M16.5051 2.69996C14.3663 1.86904 12.0068 1.79892 9.8224 2.50138C7.63803 3.20383 5.76167 4.63611 4.50809 6.55796C3.25452 8.4798 2.69999 10.7743 2.93754 13.0565C3.17508 15.3387 4.19025 17.4698 5.81274 19.0923C7.43522 20.7148 9.56633 21.73 11.8485 21.9675C14.1308 22.2051 16.4252 21.6505 18.3471 20.397C20.2689 19.1434 21.7012 17.267 22.4037 15.0826C23.1061 12.8983 23.036 10.5388 22.2051 8.39996" stroke="#D84040" stroke-width="2" stroke-linecap="round" stroke-linejoin="round"/>
<path d="M12.905 14C14.0096 14 14.905 13.1046 14.905 12C14.905 10.8954 14.0096 10 12.905 10C11.8005 10 10.905 10.8954 10.905 12C10.905 13.1046 11.8005 14 12.905 14Z" stroke="#D84040" stroke-width="2" stroke-linecap="round" stroke-linejoin="round"/>
<path d="M14.3051 10.6L19.9051 5" stroke="#D84040" stroke-width="2" stroke-linecap="round" stroke-linejoin="round"/>
</svg>
