<svg width="24" height="24" viewBox="0 0 24 24" fill="none" xmlns="http://www.w3.org/2000/svg">
<g clip-path="url(#clip0_10_4127)">
<path d="M22 3H6.99999C6.30999 3 5.76999 3.35 5.40999 3.88L0.369987 11.45C0.149987 11.79 0.149987 12.22 0.369987 12.56L5.40999 20.12C5.76999 20.64 6.37999 21 7.06999 21H22C23.1 21 24 20.1 24 19V5C24 3.9 23.1 3 22 3ZM8.99999 13.5C8.16999 13.5 7.49999 12.83 7.49999 12C7.49999 11.17 8.16999 10.5 8.99999 10.5C9.82999 10.5 10.5 11.17 10.5 12C10.5 12.83 9.82999 13.5 8.99999 13.5ZM14 13.5C13.17 13.5 12.5 12.83 12.5 12C12.5 11.17 13.17 10.5 14 10.5C14.83 10.5 15.5 11.17 15.5 12C15.5 12.83 14.83 13.5 14 13.5ZM19 13.5C18.17 13.5 17.5 12.83 17.5 12C17.5 11.17 18.17 10.5 19 10.5C19.83 10.5 20.5 11.17 20.5 12C20.5 12.83 19.83 13.5 19 13.5Z" fill="#D84040"/>
</g>
<defs>
<clipPath id="clip0_10_4127">
<rect width="24" height="24" fill="white"/>
</clipPath>
</defs>
</svg>
