<svg width="24" height="24" viewBox="0 0 24 24" fill="none" xmlns="http://www.w3.org/2000/svg">
<g clip-path="url(#clip0_10_3733)">
<path d="M17 5.21C17 4.76 17.54 4.54 17.85 4.86L20.64 7.65C20.84 7.85 20.84 8.16 20.64 8.36L17.85 11.15C17.54 11.46 17 11.24 17 10.79V9H14C13.45 9 13 8.55 13 8C13 7.45 13.45 7 14 7H17V5.21ZM9.99996 7C9.44996 7 8.99996 7.45 8.99996 8C8.99996 8.55 9.44996 9 9.99996 9C10.55 9 11 8.55 11 8C11 7.45 10.55 7 9.99996 7ZM5.99996 7C5.44996 7 4.99996 7.45 4.99996 8C4.99996 8.55 5.44996 9 5.99996 9C6.54996 9 6.99996 8.55 6.99996 8C6.99996 7.45 6.54996 7 5.99996 7ZM6.99996 17H9.99996C10.55 17 11 16.55 11 16C11 15.45 10.55 15 9.99996 15H6.99996V13.21C6.99996 12.76 6.45996 12.54 6.14996 12.86L3.35996 15.65C3.15996 15.85 3.15996 16.16 3.35996 16.36L6.14996 19.15C6.45996 19.46 6.99996 19.24 6.99996 18.79V17ZM14 17C14.55 17 15 16.55 15 16C15 15.45 14.55 15 14 15C13.45 15 13 15.45 13 16C13 16.55 13.45 17 14 17ZM18 17C18.55 17 19 16.55 19 16C19 15.45 18.55 15 18 15C17.45 15 17 15.45 17 16C17 16.55 17.45 17 18 17Z" fill="#D84040"/>
</g>
<defs>
<clipPath id="clip0_10_3733">
<rect width="24" height="24" fill="white"/>
</clipPath>
</defs>
</svg>
