<svg width="24" height="24" viewBox="0 0 24 24" fill="none" xmlns="http://www.w3.org/2000/svg">
<g clip-path="url(#clip0_10_4417)">
<path d="M14 6H17V13.88L19 15.88V5C19 4.45 18.55 4 18 4H14C14 3.45 13.55 3 13 3H6.11998L14 10.88V6ZM21.17 20.88L12 11.71V13H9.99998V11H11.29L3.11998 2.83C2.72998 2.44 2.09998 2.44 1.70998 2.83C1.31998 3.22 1.31998 3.85 1.70998 4.24L4.99998 7.54V19H3.99998C3.44998 19 2.99998 19.45 2.99998 20C2.99998 20.55 3.44998 21 3.99998 21H13C13.55 21 14 20.55 14 20V16.54L19.75 22.29C20.14 22.68 20.77 22.68 21.16 22.29C21.56 21.9 21.56 21.27 21.17 20.88Z" fill="#D84040"/>
</g>
<defs>
<clipPath id="clip0_10_4417">
<rect width="24" height="24" fill="white"/>
</clipPath>
</defs>
</svg>
