<svg width="24" height="24" viewBox="0 0 24 24" fill="none" xmlns="http://www.w3.org/2000/svg">
<g clip-path="url(#clip0_10_4420)">
<path d="M10.94 8.12L7.48003 4.66L8.40003 3.65C8.78003 3.24 9.32003 3 9.88003 3H14.12C14.68 3 15.22 3.24 15.59 3.65L16.83 5H20C21.1 5 22 5.9 22 7V19C22 19.05 21.99 19.1 21.98 19.16L16.88 14.06C16.96 13.71 17 13.36 17 13C17 10.24 14.76 8 12 8C11.64 8 11.29 8.04 10.94 8.12ZM19.78 22.61L18.17 21H4.00003C2.90003 21 2.00003 20.1 2.00003 19V7C2.00003 6.41 2.27003 5.88 2.68003 5.51L1.39003 4.22C1.00003 3.83 1.00003 3.2 1.39003 2.81C1.78003 2.42 2.41003 2.42 2.80003 2.81L21.18 21.19C21.57 21.58 21.57 22.21 21.18 22.6C20.8 23 20.17 23 19.78 22.61ZM14.49 17.32L12.99 15.82C12.67 15.92 12.35 16 12 16C10.34 16 9.00003 14.66 9.00003 13C9.00003 12.65 9.08003 12.33 9.19003 12.02L7.69003 10.52C7.25003 11.24 7.00003 12.09 7.00003 13C7.00003 15.76 9.24003 18 12 18C12.91 18 13.76 17.75 14.49 17.32Z" fill="#D84040"/>
</g>
<defs>
<clipPath id="clip0_10_4420">
<rect width="24" height="24" fill="white"/>
</clipPath>
</defs>
</svg>
