<svg width="24" height="24" viewBox="0 0 24 24" fill="none" xmlns="http://www.w3.org/2000/svg">
<g clip-path="url(#clip0_10_4715)">
<path d="M12 22C13.1 22 14 21.1 14 20H10C10 21.1 10.89 22 12 22ZM19.29 17.29L18 16V11C18 7.93 16.36 5.36 13.5 4.68V4C13.5 3.17 12.83 2.5 12 2.5C11.17 2.5 10.5 3.17 10.5 4V4.68C7.63001 5.36 6.00001 7.92 6.00001 11V16L4.71001 17.29C4.08001 17.92 4.52001 19 5.41001 19H18.58C19.48 19 19.92 17.92 19.29 17.29ZM14.5 9.33C14.5 9.64 14.39 9.93 14.2 10.17L11.7 13.2H13.6C14.1 13.2 14.5 13.6 14.5 14.1C14.5 14.6 14.1 15 13.6 15H10.82C10.09 15 9.50001 14.41 9.50001 13.68V13.67C9.50001 13.36 9.61001 13.07 9.80001 12.83L12.3 9.8H10.4C9.90001 9.8 9.50001 9.4 9.50001 8.9C9.50001 8.4 9.90001 8 10.4 8H13.18C13.91 8 14.5 8.59 14.5 9.33Z" fill="#D84040"/>
</g>
<defs>
<clipPath id="clip0_10_4715">
<rect width="24" height="24" fill="white"/>
</clipPath>
</defs>
</svg>
