<svg width="24" height="24" viewBox="0 0 24 24" fill="none" xmlns="http://www.w3.org/2000/svg">
<g clip-path="url(#clip0_10_4794)">
<path d="M19.93 8.35L16.33 10.03L14 7.7V6.3L16.33 3.97L19.93 5.65C20.31 5.83 20.75 5.66 20.93 5.29C21.11 4.91 20.94 4.47 20.57 4.29L16.65 2.46C16.27 2.28 15.82 2.36 15.52 2.66L13.78 4.4C13.6 4.16 13.32 4 13 4C12.45 4 12 4.45 12 5V6H8.82003C8.34003 4.66 6.96003 3.75 5.40003 4.06C4.23003 4.29 3.27003 5.25 3.05003 6.42C2.80003 7.76 3.45003 8.96 4.48003 9.58L7.08003 18H5.50003C4.67003 18 4.00003 18.67 4.00003 19.5C4.00003 20.33 4.67003 21 5.50003 21H15.5C16.33 21 17 20.33 17 19.5C17 18.67 16.33 18 15.5 18H13.38L8.41003 8.77C8.58003 8.53 8.72003 8.28 8.82003 8H12V9C12 9.55 12.45 10 13 10C13.32 10 13.6 9.84 13.78 9.6L15.52 11.34C15.82 11.64 16.27 11.72 16.65 11.54L20.57 9.71C20.95 9.53 21.11 9.09 20.93 8.71C20.75 8.34 20.31 8.17 19.93 8.35ZM6.00003 8C5.45003 8 5.00003 7.55 5.00003 7C5.00003 6.45 5.45003 6 6.00003 6C6.55003 6 7.00003 6.45 7.00003 7C7.00003 7.55 6.55003 8 6.00003 8Z" fill="#D84040"/>
</g>
<defs>
<clipPath id="clip0_10_4794">
<rect width="24" height="24" fill="white"/>
</clipPath>
</defs>
</svg>
