<svg width="24" height="24" viewBox="0 0 24 24" fill="none" xmlns="http://www.w3.org/2000/svg">
<g clip-path="url(#clip0_10_4432)">
<path d="M22 12C22 6.52 17.6 2.07 12.14 2C8.51996 1.95 5.28996 4.03 3.42996 7.14C0.0999564 12.69 2.97996 18.27 7.99996 20.25V20.5C7.99996 21.33 8.66996 22 9.49996 22H14.5C15.33 22 16 21.33 16 20.5V20.25C19.53 18.86 22 15.69 22 12ZM20 12H16V5.08C18.39 6.47 20 9.05 20 12ZM14 4.26V12H9.99996V4.26C10.64 4.1 11.31 4 12 4C12.69 4 13.36 4.1 14 4.26ZM3.99996 12C3.99996 9.05 5.60996 6.47 7.99996 5.08V12H3.99996Z" fill="#D84040"/>
</g>
<defs>
<clipPath id="clip0_10_4432">
<rect width="24" height="24" fill="white"/>
</clipPath>
</defs>
</svg>
