<svg width="24" height="24" viewBox="0 0 24 24" fill="none" xmlns="http://www.w3.org/2000/svg">
<g clip-path="url(#clip0_10_1049)">
<path d="M15.5 14H14.71L14.43 13.73C15.63 12.33 16.25 10.42 15.91 8.39003C15.44 5.61003 13.12 3.40003 10.33 3.05003C6.54 2.58003 3.3 5.38003 3.03 9.00003H5.05C5.29 6.88003 6.97 5.20003 9.11 5.02003C11.65 4.80003 14 6.95003 14 9.50003C14 11.99 11.99 14 9.5 14C9.33 14 9.17 13.97 9 13.95V15.97C9 15.97 9 15.97 9.01 15.98C10.81 16.11 12.48 15.51 13.73 14.43L14 14.71V15.5L18.25 19.75C18.66 20.16 19.33 20.16 19.74 19.75C20.15 19.34 20.15 18.67 19.74 18.26L15.5 14Z" fill="#D84040"/>
<path d="M6.12 11.17L4 13.29L1.88 11.17C1.68 10.97 1.37 10.97 1.17 11.17C0.970004 11.37 0.970004 11.68 1.17 11.88L3.29 14L1.17 16.12C0.970004 16.32 0.970004 16.63 1.17 16.83C1.37 17.03 1.68 17.03 1.88 16.83L4 14.71L6.12 16.83C6.32 17.03 6.63 17.03 6.83 16.83C7.03 16.63 7.03 16.32 6.83 16.12L4.71 14L6.83 11.88C7.03 11.68 7.03 11.37 6.83 11.17C6.63 10.98 6.32 10.98 6.12 11.17Z" fill="#D84040"/>
</g>
<defs>
<clipPath id="clip0_10_1049">
<rect width="24" height="24" fill="white"/>
</clipPath>
</defs>
</svg>
