<svg width="25" height="24" viewBox="0 0 25 24" fill="none" xmlns="http://www.w3.org/2000/svg">
<path d="M21.905 16V8.00002C21.9047 7.6493 21.8121 7.30483 21.6366 7.00119C21.461 6.69754 21.2088 6.44539 20.905 6.27002L13.905 2.27002C13.601 2.09449 13.2561 2.00208 12.905 2.00208C12.554 2.00208 12.2091 2.09449 11.905 2.27002L4.90503 6.27002C4.60129 6.44539 4.34901 6.69754 4.17349 7.00119C3.99797 7.30483 3.90539 7.6493 3.90503 8.00002V16C3.90539 16.3508 3.99797 16.6952 4.17349 16.9989C4.34901 17.3025 4.60129 17.5547 4.90503 17.73L11.905 21.73C12.2091 21.9056 12.554 21.998 12.905 21.998C13.2561 21.998 13.601 21.9056 13.905 21.73L20.905 17.73C21.2088 17.5547 21.461 17.3025 21.6366 16.9989C21.8121 16.6952 21.9047 16.3508 21.905 16Z" stroke="#D84040" stroke-width="2" stroke-linecap="round" stroke-linejoin="round"/>
<path d="M12.905 16C15.1142 16 16.905 14.2091 16.905 12C16.905 9.79086 15.1142 8 12.905 8C10.6959 8 8.90503 9.79086 8.90503 12C8.90503 14.2091 10.6959 16 12.905 16Z" stroke="#D84040" stroke-width="2" stroke-linecap="round" stroke-linejoin="round"/>
</svg>
