<svg width="25" height="24" viewBox="0 0 25 24" fill="none" xmlns="http://www.w3.org/2000/svg">
<path d="M18.905 8C20.5619 8 21.905 6.65685 21.905 5C21.905 3.34315 20.5619 2 18.905 2C17.2482 2 15.905 3.34315 15.905 5C15.905 6.65685 17.2482 8 18.905 8Z" stroke="#D84040" stroke-width="2" stroke-linecap="round" stroke-linejoin="round"/>
<path d="M6.90503 15C8.56188 15 9.90503 13.6569 9.90503 12C9.90503 10.3431 8.56188 9 6.90503 9C5.24818 9 3.90503 10.3431 3.90503 12C3.90503 13.6569 5.24818 15 6.90503 15Z" stroke="#D84040" stroke-width="2" stroke-linecap="round" stroke-linejoin="round"/>
<path d="M18.905 22C20.5619 22 21.905 20.6569 21.905 19C21.905 17.3431 20.5619 16 18.905 16C17.2482 16 15.905 17.3431 15.905 19C15.905 20.6569 17.2482 22 18.905 22Z" stroke="#D84040" stroke-width="2" stroke-linecap="round" stroke-linejoin="round"/>
<path d="M9.495 13.51L16.325 17.49" stroke="#D84040" stroke-width="2" stroke-linecap="round" stroke-linejoin="round"/>
<path d="M16.315 6.51001L9.495 10.49" stroke="#D84040" stroke-width="2" stroke-linecap="round" stroke-linejoin="round"/>
</svg>
