<svg width="25" height="24" viewBox="0 0 25 24" fill="none" xmlns="http://www.w3.org/2000/svg">
<path d="M4.80503 19L2.95503 12.575C2.88836 12.375 2.90086 12.1792 2.99253 11.9875C3.08419 11.7958 3.23003 11.6667 3.43003 11.6L4.90503 11.1V5.5C4.90503 5.08335 5.05086 4.73333 5.34253 4.45C5.63419 4.16666 5.98838 4.01666 6.40503 4H10.155V1.75C10.155 1.5375 10.2269 1.35934 10.3708 1.2155C10.5144 1.07183 10.6925 1 10.905 1H14.905C15.1175 1 15.2957 1.07183 15.4395 1.2155C15.5832 1.35934 15.655 1.5375 15.655 1.75V4H19.405C19.8175 4 20.1707 4.14683 20.4645 4.4405C20.7582 4.73433 20.905 5.0875 20.905 5.5V11.125L22.405 11.6C22.5884 11.6667 22.7259 11.7917 22.8175 11.975C22.9092 12.1583 22.9217 12.35 22.855 12.55L21.005 19C20.355 18.9333 19.7217 18.75 19.105 18.45C18.4884 18.15 17.9384 17.7833 17.455 17.35C17.3075 17.2167 17.1331 17.15 16.9318 17.15C16.7306 17.15 16.5634 17.225 16.43 17.375C15.98 17.8417 15.4467 18.2292 14.83 18.5375C14.2134 18.8458 13.5752 19 12.9155 19C12.7419 19 12.58 18.9909 12.43 18.9725C12.28 18.9541 12.13 18.9266 11.98 18.89C11.4967 18.78 11.0384 18.5875 10.605 18.3125C10.1717 18.0375 9.76338 17.725 9.38003 17.375C9.24668 17.225 9.07588 17.15 8.86753 17.15C8.65918 17.15 8.48003 17.2167 8.33003 17.35C7.84668 17.7833 7.30088 18.15 6.69253 18.45C6.08418 18.75 5.45503 18.9333 4.80503 19ZM12.905 23C12.255 23 11.5884 22.9125 10.905 22.7375C10.2217 22.5625 9.55503 22.3083 8.90503 21.975C8.25503 22.3083 7.59668 22.5625 6.93003 22.7375C6.26338 22.9125 5.58836 23 4.90503 23H3.65503C3.44253 23 3.26444 22.9277 3.12078 22.783C2.97694 22.6385 2.90503 22.4594 2.90503 22.2455C2.90503 22.0319 2.97694 21.8541 3.12078 21.7125C3.26444 21.5709 3.44253 21.5 3.65503 21.5H4.90503C5.55503 21.5 6.18418 21.4125 6.79253 21.2375C7.40088 21.0625 7.98003 20.8083 8.53003 20.475C8.64988 20.3917 8.77563 20.35 8.90728 20.35C9.03913 20.35 9.16338 20.3917 9.28003 20.475C9.71338 20.725 10.1675 20.925 10.6425 21.075C11.1175 21.225 11.5967 21.3333 12.08 21.4C12.2082 21.4166 12.3444 21.4291 12.4888 21.4375C12.6329 21.4459 12.774 21.45 12.912 21.45C13.5327 21.45 14.1534 21.3708 14.774 21.2125C15.3947 21.0541 15.98 20.8083 16.53 20.475C16.6499 20.4083 16.7756 20.375 16.9073 20.375C17.0391 20.375 17.1634 20.4083 17.28 20.475C17.83 20.8083 18.4092 21.0625 19.0175 21.2375C19.6259 21.4125 20.255 21.5 20.905 21.5H22.155C22.3675 21.5 22.5457 21.5723 22.6895 21.717C22.8332 21.8615 22.905 22.0406 22.905 22.2545C22.905 22.4681 22.8332 22.6459 22.6895 22.7875C22.5457 22.9291 22.3675 23 22.155 23H20.905C20.2217 23 19.5467 22.9125 18.88 22.7375C18.2134 22.5625 17.555 22.3083 16.905 21.975C16.255 22.3083 15.5884 22.5625 14.905 22.7375C14.2217 22.9125 13.555 23 12.905 23ZM6.40503 10.625L12.43 8.675C12.5827 8.625 12.7417 8.6 12.907 8.6C13.0724 8.6 13.23 8.625 13.38 8.675L19.405 10.65V5.5H6.40503V10.625ZM12.9113 17.5C13.4738 17.5 13.9925 17.3417 14.4675 17.025C14.9425 16.7083 15.3717 16.3417 15.755 15.925C16.0717 15.5917 16.4634 15.4209 16.93 15.4125C17.3967 15.4042 17.7967 15.5666 18.13 15.9C18.4134 16.1666 18.705 16.4166 19.005 16.65C19.305 16.8833 19.6217 17.0917 19.955 17.275L21.23 12.8L12.905 10.1L4.55503 12.8L5.85503 17.225C6.18953 17.0377 6.49818 16.8386 6.78103 16.6278C7.06403 16.4169 7.34703 16.1827 7.63003 15.925C7.98003 15.5917 8.38863 15.4209 8.85578 15.4125C9.32278 15.4042 9.71418 15.5666 10.03 15.9C10.3134 16.1833 10.605 16.45 10.905 16.7C11.205 16.95 11.5467 17.15 11.93 17.3C12.0967 17.3666 12.2597 17.4167 12.419 17.45C12.5785 17.4834 12.7426 17.5 12.9113 17.5Z" fill="#D84040" stroke="#D84040" stroke-width="0.25"/>
</svg>
