<svg width="24" height="24" viewBox="0 0 24 24" fill="none" xmlns="http://www.w3.org/2000/svg">
<path d="M9.99998 8.50001V15.5C9.99998 15.91 10.47 16.15 10.8 15.9L15.47 12.4C15.74 12.2 15.74 11.8 15.47 11.6L10.8 8.10001C10.47 7.85001 9.99998 8.09001 9.99998 8.50001ZM11 3.23001C11 2.59001 10.41 2.10001 9.78998 2.24001C8.66998 2.50001 7.60998 2.94001 6.66998 3.54001C6.13998 3.88001 6.05998 4.64001 6.50998 5.09001C6.82998 5.41001 7.33998 5.49001 7.71998 5.25001C8.48998 4.76001 9.33998 4.40001 10.26 4.20001C10.7 4.10001 11 3.69001 11 3.23001ZM5.09998 6.51001C4.63998 6.06001 3.88998 6.13001 3.54998 6.67001C2.94998 7.61001 2.50998 8.67001 2.24998 9.79001C2.10998 10.41 2.58998 11 3.22998 11C3.67998 11 4.09998 10.7 4.18998 10.26C4.38998 9.35001 4.75998 8.49001 5.23998 7.73001C5.49998 7.34001 5.41998 6.83001 5.09998 6.51001ZM3.22998 13C2.58998 13 2.09998 13.59 2.23998 14.21C2.49998 15.33 2.93998 16.38 3.53998 17.33C3.87998 17.87 4.63998 17.94 5.08998 17.49C5.40998 17.17 5.48998 16.66 5.23998 16.28C4.74998 15.52 4.38998 14.67 4.18998 13.75C4.09998 13.3 3.68998 13 3.22998 13ZM6.66998 20.45C7.61998 21.05 8.66998 21.49 9.78998 21.75C10.41 21.89 11 21.4 11 20.77C11 20.32 10.7 19.9 10.26 19.81C9.34998 19.61 8.48998 19.24 7.72998 18.76C7.33998 18.52 6.83998 18.59 6.51998 18.92C6.05998 19.36 6.12998 20.11 6.66998 20.45ZM22 12C22 16.73 18.7 20.71 14.27 21.74C13.65 21.89 13.05 21.4 13.05 20.76C13.05 20.3 13.36 19.9 13.8 19.79C17.35 18.97 20 15.79 20 12C20 8.21001 17.35 5.03001 13.8 4.21001C13.36 4.11001 13.05 3.70001 13.05 3.24001C13.05 2.60001 13.65 2.11001 14.27 2.26001C18.7 3.29001 22 7.27001 22 12Z" fill="#D84040"/>
</svg>
