<svg width="24" height="24" viewBox="0 0 24 24" fill="none" xmlns="http://www.w3.org/2000/svg">
<g clip-path="url(#clip0_10_4933)">
<path d="M3.01997 15.62C2.93997 18.04 3.33997 19.96 3.68997 20.31C4.03997 20.66 5.96997 21.07 8.37997 20.98L3.01997 15.62Z" fill="#D84040"/>
<path d="M13.08 3.27997C10.75 3.69997 8.29003 4.61997 6.46003 6.45997C4.63003 8.29997 3.70003 10.75 3.28003 13.08L10.91 20.71C13.25 20.3 15.7 19.37 17.53 17.53C19.36 15.69 20.29 13.24 20.71 10.91L13.08 3.27997ZM14.8 10.6L10.6 14.8C10.21 15.19 9.59003 15.19 9.20003 14.8C8.81003 14.41 8.81003 13.79 9.20003 13.4L13.4 9.19997C13.79 8.80997 14.41 8.80997 14.8 9.19997C15.19 9.58997 15.19 10.21 14.8 10.6Z" fill="#D84040"/>
<path d="M20.98 8.37998C21.06 5.95998 20.66 4.03998 20.31 3.68998C19.96 3.33998 18.03 2.92998 15.62 3.01998L20.98 8.37998Z" fill="#D84040"/>
</g>
<defs>
<clipPath id="clip0_10_4933">
<rect width="24" height="24" fill="white"/>
</clipPath>
</defs>
</svg>
