<svg width="24" height="24" viewBox="0 0 24 24" fill="none" xmlns="http://www.w3.org/2000/svg">
<g clip-path="url(#clip0_10_5013)">
<path d="M19.52 2.49002C17.18 0.150019 12.9 0.620018 9.97 3.55002C8.37 5.15002 7.45 7.42002 7.43 9.01002C7.41 10.59 7.69 12.9 6.08 14.51L2.54 18.04C2.15 18.43 2.15 19.06 2.54 19.46C2.93 19.85 3.56 19.85 3.96 19.46L7.49 15.92C9.1 14.31 11.41 14.59 12.99 14.57C14.57 14.55 16.85 13.63 18.45 12.03C21.38 9.11002 21.86 4.83002 19.52 2.49002ZM10.32 11.68C8.79 10.15 9.27 7.07002 11.38 4.96002C13.49 2.85002 16.56 2.37002 18.1 3.90002C19.63 5.43002 19.15 8.51002 17.04 10.62C14.93 12.73 11.86 13.21 10.32 11.68Z" fill="#D84040"/>
<path d="M18 17C18.53 17 19.04 17.21 19.41 17.59C20.19 18.37 20.19 19.64 19.41 20.42C19.04 20.79 18.53 21 18 21C17.47 21 16.96 20.79 16.59 20.41C15.81 19.63 15.81 18.36 16.59 17.58C16.96 17.21 17.47 17 18 17ZM18 15C16.98 15 15.95 15.39 15.17 16.17C13.61 17.73 13.61 20.26 15.17 21.83C15.95 22.61 16.98 23 18 23C19.02 23 20.05 22.61 20.83 21.83C22.39 20.27 22.39 17.74 20.83 16.17C20.05 15.39 19.02 15 18 15Z" fill="#D84040"/>
</g>
<defs>
<clipPath id="clip0_10_5013">
<rect width="24" height="24" fill="white"/>
</clipPath>
</defs>
</svg>
