<svg width="24" height="24" viewBox="0 0 24 24" fill="none" xmlns="http://www.w3.org/2000/svg">
<g clip-path="url(#clip0_10_4953)">
<path d="M14.27 6.00002C13.72 6.95002 14.05 8.18002 15 8.73002C15.95 9.28001 17.18 8.95002 17.73 8.00002C18.28 7.05002 17.95 5.82002 17 5.27002C16.05 4.72002 14.82 5.05002 14.27 6.00002Z" fill="#D84040"/>
<path d="M15.84 10.41C15.84 10.41 14.21 9.47002 13.24 8.91002C11.11 7.67002 10.23 5.08002 11.06 2.84002C11.23 2.38002 11.05 1.87002 10.63 1.63002C10.1 1.33002 9.40999 1.56002 9.19999 2.13002C8.24999 4.64002 8.84999 7.48002 10.66 9.40002L6.00999 17.45C5.72999 17.93 5.89999 18.54 6.37999 18.82C6.85999 19.1 7.46999 18.93 7.74999 18.45L8.74999 16.72L10.48 17.72L7.97999 22.05C7.69999 22.53 7.86999 23.14 8.34999 23.42C8.82999 23.7 9.43999 23.53 9.71999 23.05L15.51 13.03C16.49 14.37 16.77 16.15 16.17 17.75C16 18.2 16.19 18.71 16.6 18.95C17.13 19.26 17.82 19.03 18.04 18.45C19.01 15.83 18.45 12.61 15.84 10.41Z" fill="#D84040"/>
<path d="M12.75 3.80002C13.47 4.21002 14.38 3.97002 14.8 3.25002C15.21 2.53002 14.97 1.62002 14.25 1.20002C13.53 0.790021 12.62 1.03002 12.2 1.75002C11.79 2.47002 12.03 3.39002 12.75 3.80002Z" fill="#D84040"/>
</g>
<defs>
<clipPath id="clip0_10_4953">
<rect width="24" height="24" fill="white"/>
</clipPath>
</defs>
</svg>
