<svg width="24" height="24" viewBox="0 0 24 24" fill="none" xmlns="http://www.w3.org/2000/svg">
<g clip-path="url(#clip0_10_4916)">
<path d="M15.05 12.81L6.55997 4.32003C6.16997 3.93003 5.53997 3.93003 5.14997 4.32003L2.31997 7.15003C1.92997 7.54003 1.92997 8.17003 2.31997 8.56003L10.81 17.05C11.2 17.44 11.83 17.44 12.22 17.05L15.05 14.22C15.44 13.83 15.44 13.2 15.05 12.81Z" fill="#D84040"/>
<path d="M14.34 17.76L17.87 21.29C18.26 21.68 18.9 21.68 19.29 21.29C19.68 20.9 19.68 20.26 19.29 19.87L15.76 16.34L14.34 17.76Z" fill="#D84040"/>
<path d="M18.5 9C20.433 9 22 7.433 22 5.5C22 3.567 20.433 2 18.5 2C16.567 2 15 3.567 15 5.5C15 7.433 16.567 9 18.5 9Z" fill="#D84040"/>
</g>
<defs>
<clipPath id="clip0_10_4916">
<rect width="24" height="24" fill="white"/>
</clipPath>
</defs>
</svg>
