<svg width="24" height="24" viewBox="0 0 24 24" fill="none" xmlns="http://www.w3.org/2000/svg">
<g clip-path="url(#clip0_10_4032)">
<path d="M8.12001 19.3C8.51001 19.69 9.14001 19.69 9.53001 19.3L12 16.83L14.47 19.3C14.86 19.69 15.49 19.69 15.88 19.3C16.27 18.91 16.27 18.28 15.88 17.89L12.71 14.72C12.32 14.33 11.69 14.33 11.3 14.72L8.13001 17.89C7.73001 18.27 7.73001 18.91 8.12001 19.3ZM15.88 4.69997C15.49 4.30997 14.86 4.30997 14.47 4.69997L12 7.16997L9.53001 4.69997C9.14001 4.30997 8.51001 4.30997 8.12001 4.69997C7.73001 5.08997 7.73001 5.72997 8.12001 6.11997L11.29 9.28997C11.68 9.67997 12.31 9.67997 12.7 9.28997L15.87 6.11997C16.27 5.72997 16.27 5.08997 15.88 4.69997Z" fill="#D84040"/>
</g>
<defs>
<clipPath id="clip0_10_4032">
<rect width="24" height="24" fill="white"/>
</clipPath>
</defs>
</svg>
