<svg width="25" height="24" viewBox="0 0 25 24" fill="none" xmlns="http://www.w3.org/2000/svg">
<g clip-path="url(#clip0_10_1345)">
<path d="M6.095 5H3.095C2.545 5 2.095 5.45 2.095 6V18C2.095 18.55 2.545 19 3.095 19H6.095C6.645 19 7.095 18.55 7.095 18V6C7.095 5.45 6.645 5 6.095 5ZM20.095 5H17.095C16.545 5 16.095 5.45 16.095 6V18C16.095 18.55 16.545 19 17.095 19H20.095C20.645 19 21.095 18.55 21.095 18V6C21.095 5.45 20.645 5 20.095 5ZM13.095 5H10.095C9.545 5 9.095 5.45 9.095 6V18C9.095 18.55 9.545 19 10.095 19H13.095C13.645 19 14.095 18.55 14.095 18V6C14.095 5.45 13.645 5 13.095 5Z" fill="#D84040"/>
</g>
<defs>
<clipPath id="clip0_10_1345">
<rect width="24" height="24" fill="white" transform="translate(0.0950012)"/>
</clipPath>
</defs>
</svg>
