<svg width="25" height="24" viewBox="0 0 25 24" fill="none" xmlns="http://www.w3.org/2000/svg">
<g clip-path="url(#clip0_10_1342)">
<path d="M5.095 18H20.095C20.645 18 21.095 17.55 21.095 17V13C21.095 12.45 20.645 12 20.095 12H5.095C4.545 12 4.095 12.45 4.095 13V17C4.095 17.55 4.545 18 5.095 18ZM4.095 6V10C4.095 10.55 4.545 11 5.095 11H20.095C20.645 11 21.095 10.55 21.095 10V6C21.095 5.45 20.645 5 20.095 5H5.095C4.545 5 4.095 5.45 4.095 6Z" fill="#D84040"/>
</g>
<defs>
<clipPath id="clip0_10_1342">
<rect width="24" height="24" fill="white" transform="translate(0.0950012)"/>
</clipPath>
</defs>
</svg>
