<svg width="25" height="24" viewBox="0 0 25 24" fill="none" xmlns="http://www.w3.org/2000/svg">
<g clip-path="url(#clip0_10_1351)">
<path d="M12.095 6.50005C14.855 6.50005 17.095 8.74005 17.095 11.5001C17.095 12.0101 16.995 12.5001 16.855 12.9601L19.915 16.0201C21.305 14.7901 22.405 13.2501 23.095 11.4901C21.365 7.11005 17.095 4.00005 12.095 4.00005C10.825 4.00005 9.605 4.20005 8.455 4.57005L10.625 6.74005C11.095 6.60005 11.585 6.50005 12.095 6.50005ZM2.805 3.16005C2.415 3.55005 2.415 4.18005 2.805 4.57005L4.775 6.54005C3.155 7.83005 1.865 9.53005 1.095 11.5001C2.825 15.8901 7.095 19.0001 12.095 19.0001C13.615 19.0001 15.065 18.7001 16.405 18.1801L19.125 20.9001C19.515 21.2901 20.145 21.2901 20.535 20.9001C20.925 20.5101 20.925 19.8801 20.535 19.4901L4.225 3.16005C3.835 2.77005 3.195 2.77005 2.805 3.16005ZM12.095 16.5001C9.335 16.5001 7.095 14.2601 7.095 11.5001C7.095 10.7301 7.275 10.0001 7.585 9.36005L9.155 10.9301C9.125 11.1101 9.095 11.3001 9.095 11.5001C9.095 13.1601 10.435 14.5001 12.095 14.5001C12.295 14.5001 12.475 14.4701 12.665 14.4301L14.235 16.0001C13.585 16.3201 12.865 16.5001 12.095 16.5001ZM15.065 11.1701C14.915 9.77005 13.815 8.68005 12.425 8.53005L15.065 11.1701Z" fill="#D84040"/>
</g>
<defs>
<clipPath id="clip0_10_1351">
<rect width="24" height="24" fill="white" transform="translate(0.0950012)"/>
</clipPath>
</defs>
</svg>
