<svg width="25" height="24" viewBox="0 0 25 24" fill="none" xmlns="http://www.w3.org/2000/svg">
<g clip-path="url(#clip0_10_1348)">
<path d="M12.095 4C7.095 4 2.825 7.11 1.095 11.5C2.825 15.89 7.095 19 12.095 19C17.095 19 21.365 15.89 23.095 11.5C21.365 7.11 17.095 4 12.095 4ZM12.095 16.5C9.335 16.5 7.095 14.26 7.095 11.5C7.095 8.74 9.335 6.5 12.095 6.5C14.855 6.5 17.095 8.74 17.095 11.5C17.095 14.26 14.855 16.5 12.095 16.5ZM12.095 8.5C10.435 8.5 9.095 9.84 9.095 11.5C9.095 13.16 10.435 14.5 12.095 14.5C13.755 14.5 15.095 13.16 15.095 11.5C15.095 9.84 13.755 8.5 12.095 8.5Z" fill="#D84040"/>
</g>
<defs>
<clipPath id="clip0_10_1348">
<rect width="24" height="24" fill="white" transform="translate(0.0950012)"/>
</clipPath>
</defs>
</svg>
