<svg width="25" height="24" viewBox="0 0 25 24" fill="none" xmlns="http://www.w3.org/2000/svg">
<g clip-path="url(#clip0_10_1354)">
<path d="M15.815 6.41004C15.465 6.76004 15.375 7.29004 15.565 7.76004C15.865 8.51004 15.885 9.34004 15.615 10.1C15.455 10.56 15.555 11.08 15.905 11.42C16.505 12.02 17.565 11.89 17.925 11.11C18.565 9.72004 18.525 8.12004 17.805 6.70004C17.405 5.95004 16.395 5.82004 15.815 6.41004ZM19.275 2.89004C18.875 3.29004 18.815 3.91004 19.145 4.37004C21.075 7.05004 21.095 10.62 19.235 13.44C18.925 13.9 19.005 14.52 19.395 14.91C19.905 15.42 20.775 15.37 21.205 14.78C23.775 11.27 23.725 6.58004 21.035 3.01004C20.605 2.45004 19.775 2.39004 19.275 2.89004ZM9.525 5.04004L13.055 8.57004C12.855 6.71004 11.385 5.24004 9.525 5.04004ZM3.805 3.56004C3.415 3.95004 3.415 4.58004 3.805 4.97004L5.715 6.88004C5.155 7.77004 4.925 8.89004 5.245 10.08C5.605 11.41 6.685 12.48 8.015 12.85C9.205 13.18 10.325 12.94 11.215 12.38L15.615 16.78C13.835 15.6 10.875 15 9.095 15C6.425 15 1.095 16.34 1.095 19V20C1.095 20.55 1.545 21 2.095 21H16.095C16.645 21 17.095 20.55 17.095 20V19C17.095 18.63 16.985 18.3 16.805 17.98L19.115 20.29C19.505 20.68 20.135 20.68 20.525 20.29C20.915 19.9 20.915 19.27 20.525 18.88L5.215 3.56004C4.825 3.17004 4.195 3.17004 3.805 3.56004Z" fill="#D84040"/>
</g>
<defs>
<clipPath id="clip0_10_1354">
<rect width="24" height="24" fill="white" transform="translate(0.0950012)"/>
</clipPath>
</defs>
</svg>
