<svg width="25" height="24" viewBox="0 0 25 24" fill="none" xmlns="http://www.w3.org/2000/svg">
<g clip-path="url(#clip0_10_1357)">
<path d="M12.095 2C6.595 2 2.095 6.5 2.095 12C2.095 17.5 6.595 22 12.095 22C17.595 22 22.095 17.5 22.095 12C22.095 6.5 17.595 2 12.095 2ZM15.645 15.8L11.565 13.29C11.265 13.11 11.085 12.79 11.085 12.44V7.75C11.095 7.34 11.435 7 11.845 7C12.255 7 12.595 7.34 12.595 7.75V12.2L16.435 14.51C16.795 14.73 16.915 15.2 16.695 15.56C16.475 15.91 16.005 16.02 15.645 15.8Z" fill="#D84040"/>
</g>
<defs>
<clipPath id="clip0_10_1357">
<rect width="24" height="24" fill="white" transform="translate(0.0950012)"/>
</clipPath>
</defs>
</svg>
