<svg width="25" height="24" viewBox="0 0 25 24" fill="none" xmlns="http://www.w3.org/2000/svg">
<g clip-path="url(#clip0_10_1363)">
<path d="M16.795 5.30001L18.235 3.86001C18.555 3.54001 18.325 3.01001 17.885 3.01001H11.595C11.315 3.01001 11.095 3.23001 11.095 3.51001V9.80001C11.095 10.25 11.635 10.47 11.945 10.15L13.395 8.70001C15.365 10.16 16.645 12.48 16.645 15.12C16.645 15.78 16.565 16.43 16.405 17.04C16.285 17.54 16.885 17.9 17.245 17.53C18.725 16 19.645 13.92 19.645 11.62C19.645 9.11001 18.535 6.86001 16.795 5.30001Z" fill="#D84040"/>
<path d="M12.245 13.86L10.795 15.3C8.82501 13.84 7.54501 11.52 7.54501 8.88C7.54501 8.22 7.62501 7.57 7.78501 6.96C7.90501 6.46 7.30501 6.1 6.94501 6.47C5.46501 8 4.54501 10.08 4.54501 12.38C4.54501 14.9 5.64501 17.15 7.38501 18.71L5.94501 20.15C5.62501 20.47 5.85501 21 6.29501 21H12.585C12.865 21 13.085 20.78 13.085 20.5V14.21C13.095 13.77 12.555 13.54 12.245 13.86Z" fill="#D84040"/>
</g>
<defs>
<clipPath id="clip0_10_1363">
<rect width="24" height="24" fill="white" transform="translate(0.0950012)"/>
</clipPath>
</defs>
</svg>
