<svg width="25" height="24" viewBox="0 0 25 24" fill="none" xmlns="http://www.w3.org/2000/svg">
<path d="M12.905 12H12.915" stroke="#D84040" stroke-width="2" stroke-linecap="round" stroke-linejoin="round"/>
<path d="M16.905 6V4C16.905 3.46957 16.6943 2.96086 16.3192 2.58579C15.9441 2.21071 15.4354 2 14.905 2H10.905C10.3745 2 9.86583 2.21071 9.49076 2.58579C9.11568 2.96086 8.90497 3.46957 8.90497 4V6" stroke="#D84040" stroke-width="2" stroke-linecap="round" stroke-linejoin="round"/>
<path d="M22.905 13C19.9378 14.959 16.4605 16.0033 12.905 16.0033C9.34942 16.0033 5.87218 14.959 2.90497 13" stroke="#D84040" stroke-width="2" stroke-linecap="round" stroke-linejoin="round"/>
<path d="M20.905 6H4.90497C3.8004 6 2.90497 6.89543 2.90497 8V18C2.90497 19.1046 3.8004 20 4.90497 20H20.905C22.0095 20 22.905 19.1046 22.905 18V8C22.905 6.89543 22.0095 6 20.905 6Z" stroke="#D84040" stroke-width="2" stroke-linecap="round" stroke-linejoin="round"/>
</svg>
