<svg width="25" height="24" viewBox="0 0 25 24" fill="none" xmlns="http://www.w3.org/2000/svg">
<g clip-path="url(#clip0_10_1376)">
<path d="M4.20497 2.54C3.81497 2.15 3.18497 2.15 2.79497 2.54C2.40497 2.93 2.40497 3.56 2.79497 3.95L4.83497 6H4.09497C2.98497 6 2.10497 6.89 2.10497 8L2.09497 19C2.09497 20.11 2.98497 21 4.09497 21H19.835L21.125 22.29C21.515 22.68 22.145 22.68 22.535 22.29C22.925 21.9 22.925 21.27 22.535 20.88L4.20497 2.54ZM10.095 4H14.095V6H10.495L22.095 17.6V8C22.095 6.89 21.205 6 20.095 6H16.095V4C16.095 2.89 15.205 2 14.095 2H10.095C9.10497 2 8.29497 2.7 8.13497 3.64L10.095 5.6V4Z" fill="#D84040"/>
</g>
<defs>
<clipPath id="clip0_10_1376">
<rect width="24" height="24" fill="white" transform="translate(0.0949707)"/>
</clipPath>
</defs>
</svg>
