<svg width="25" height="24" viewBox="0 0 25 24" fill="none" xmlns="http://www.w3.org/2000/svg">
<g clip-path="url(#clip0_10_1379)">
<path d="M14.095 6V4H10.095V6H14.095ZM4.09497 9V18C4.09497 18.55 4.54497 19 5.09497 19H19.095C19.645 19 20.095 18.55 20.095 18V9C20.095 8.45 19.645 8 19.095 8H5.09497C4.54497 8 4.09497 8.45 4.09497 9ZM20.095 6C21.205 6 22.095 6.89 22.095 8V19C22.095 20.11 21.205 21 20.095 21H4.09497C2.98497 21 2.09497 20.11 2.09497 19L2.10497 8C2.10497 6.89 2.98497 6 4.09497 6H8.09497V4C8.09497 2.89 8.98497 2 10.095 2H14.095C15.205 2 16.095 2.89 16.095 4V6H20.095Z" fill="#D84040"/>
</g>
<defs>
<clipPath id="clip0_10_1379">
<rect width="24" height="24" fill="white" transform="translate(0.0949707)"/>
</clipPath>
</defs>
</svg>
