<svg width="25" height="24" viewBox="0 0 25 24" fill="none" xmlns="http://www.w3.org/2000/svg">
<g clip-path="url(#clip0_10_1382)">
<path d="M19.095 3H5.09497C3.98497 3 3.09497 3.9 3.09497 5V19C3.09497 20.1 3.98497 21 5.09497 21H19.095C20.195 21 21.095 20.1 21.095 19V5C21.095 3.9 20.205 3 19.095 3ZM19.095 19H5.09497V7H19.095V19ZM16.095 12H8.09497C7.54497 12 7.09497 11.55 7.09497 11C7.09497 10.45 7.54497 10 8.09497 10H16.095C16.645 10 17.095 10.45 17.095 11C17.095 11.55 16.645 12 16.095 12ZM12.095 16H8.09497C7.54497 16 7.09497 15.55 7.09497 15C7.09497 14.45 7.54497 14 8.09497 14H12.095C12.645 14 13.095 14.45 13.095 15C13.095 15.55 12.645 16 12.095 16Z" fill="#D84040"/>
</g>
<defs>
<clipPath id="clip0_10_1382">
<rect width="24" height="24" fill="white" transform="translate(0.0949707)"/>
</clipPath>
</defs>
</svg>
