<svg width="25" height="24" viewBox="0 0 25 24" fill="none" xmlns="http://www.w3.org/2000/svg">
<g clip-path="url(#clip0_10_1386)">
<path d="M17.1049 14H16.3049L16.0349 13.73C17.1849 12.39 17.7949 10.59 17.5449 8.64003C17.2049 6.00003 15.1949 3.78003 12.5949 3.18003C8.35495 2.20003 4.60495 5.53003 4.60495 9.50003H2.50495C2.03495 9.50003 1.82495 10.09 2.19495 10.39L5.59495 13.14C5.78495 13.34 6.10495 13.35 6.30495 13.15L9.20495 10.36C9.52495 10.05 9.30495 9.50003 8.85495 9.50003H6.60495C6.60495 7.01003 8.60495 5.02003 11.0649 5.00003C13.5049 4.98003 15.6049 7.05003 15.6049 9.49003C15.6049 11.97 13.5849 14 11.1049 14C10.6549 14 10.2149 13.93 9.80495 13.81C9.46495 13.71 9.09495 13.81 8.84495 14.07C8.31495 14.6 8.52495 15.52 9.23495 15.73C9.82495 15.9 10.4549 16 11.1049 16C12.7149 16 14.1849 15.41 15.3249 14.43L15.5949 14.7V15.49L19.8649 19.74C20.2749 20.15 20.9349 20.15 21.3449 19.74C21.7549 19.33 21.7549 18.66 21.3449 18.25L17.1049 14Z" fill="#D84040"/>
</g>
<defs>
<clipPath id="clip0_10_1386">
<rect width="24" height="24" fill="white" transform="translate(0.0949707)"/>
</clipPath>
</defs>
</svg>
