<svg width="25" height="24" viewBox="0 0 25 24" fill="none" xmlns="http://www.w3.org/2000/svg">
<g clip-path="url(#clip0_10_1392)">
<path d="M15.595 14H14.805L14.525 13.73C15.725 12.33 16.345 10.42 16.005 8.39002C15.535 5.61002 13.215 3.39002 10.415 3.05002C6.18499 2.53002 2.62499 6.09001 3.14499 10.32C3.48499 13.12 5.70499 15.44 8.48499 15.91C10.515 16.25 12.425 15.63 13.825 14.43L14.095 14.71V15.5L18.355 19.75C18.765 20.16 19.425 20.16 19.835 19.75L19.845 19.74C20.255 19.33 20.255 18.67 19.845 18.26L15.595 14ZM9.59499 14C7.10499 14 5.09499 11.99 5.09499 9.50002C5.09499 7.01002 7.10499 5.00002 9.59499 5.00002C12.085 5.00002 14.095 7.01002 14.095 9.50002C14.095 11.99 12.085 14 9.59499 14ZM7.59499 9.00002H11.595C11.875 9.00002 12.095 9.22002 12.095 9.50002C12.095 9.78002 11.875 10 11.595 10H7.59499C7.31499 10 7.09499 9.78002 7.09499 9.50002C7.09499 9.22002 7.31499 9.00002 7.59499 9.00002Z" fill="#D84040"/>
</g>
<defs>
<clipPath id="clip0_10_1392">
<rect width="24" height="24" fill="white" transform="translate(0.0949707)"/>
</clipPath>
</defs>
</svg>
