<svg width="304" height="498" viewBox="0 0 304 498" fill="none" xmlns="http://www.w3.org/2000/svg">
<g clip-path="url(#clip0_18_335)">
<path d="M92.3862 123.35C91.3695 123.35 90.3528 123.486 89.4716 123.825C87.4382 119.555 83.0324 116.572 77.9487 116.572C73.0685 116.572 68.7982 119.284 66.697 123.35C65.8159 122.537 64.5958 122.063 63.3079 122.063C60.4611 122.063 58.1565 124.367 58.1565 127.214C58.1565 127.35 58.1565 127.553 58.1565 127.688C57.8854 127.688 57.5465 127.688 57.2754 127.688C48.5994 127.688 41.4823 130.942 41.4823 134.873C41.4823 138.872 48.5316 142.058 57.2754 142.058C62.4268 142.058 89.8783 142.058 92.454 142.058C97.6054 142.058 101.808 137.856 101.808 132.704C101.808 127.553 97.6054 123.35 92.3862 123.35Z" fill="#181818" stroke="#767676" stroke-width="2" stroke-miterlimit="10" stroke-linecap="round" stroke-linejoin="round"/>
<path d="M67.3749 132.026C67.5782 128.908 68.8661 126.4 70.2217 126.468C71.5773 126.536 72.5263 129.179 72.3229 132.365" fill="#181818"/>
<path d="M67.3749 132.026C67.5782 128.908 68.8661 126.4 70.2217 126.468C71.5773 126.536 72.5263 129.179 72.3229 132.365" stroke="#767676" stroke-width="2" stroke-miterlimit="10" stroke-linecap="round" stroke-linejoin="round"/>
<path d="M85.1335 132.162C85.3369 129.044 86.6247 126.536 87.9804 126.604C89.336 126.672 90.2849 129.315 90.0816 132.501" fill="#181818"/>
<path d="M85.1335 132.162C85.3369 129.044 86.6247 126.536 87.9804 126.604C89.336 126.672 90.2849 129.315 90.0816 132.501" stroke="#767676" stroke-width="2" stroke-miterlimit="10" stroke-linecap="round" stroke-linejoin="round"/>
<path d="M66.4559 138.804C68.6269 138.774 70.3735 137.808 70.357 136.648C70.3406 135.487 68.5673 134.572 66.3963 134.602C64.2253 134.633 62.4787 135.599 62.4952 136.759C62.5116 137.92 64.2849 138.835 66.4559 138.804Z" fill="#181818" stroke="#767676" stroke-width="2" stroke-miterlimit="10" stroke-linecap="round" stroke-linejoin="round"/>
<path d="M75.3731 131.281L82.219 131.146C82.219 131.146 82.2868 134.535 78.6944 134.806C75.1019 135.077 75.3731 131.281 75.3731 131.281Z" fill="#181818" stroke="#767676" stroke-width="2" stroke-miterlimit="10" stroke-linecap="round" stroke-linejoin="round"/>
<path d="M94.4196 137.11C94.4196 138.262 92.7251 139.211 90.5561 139.279C88.3871 139.279 86.6248 138.398 86.6248 137.246C86.6248 136.093 88.3193 135.144 90.4883 135.077C92.6573 135.009 94.4196 135.958 94.4196 137.11Z" fill="#181818" stroke="#767676" stroke-width="2" stroke-miterlimit="10" stroke-linecap="round" stroke-linejoin="round"/>
<path d="M257.773 125.044C255.265 125.044 252.893 125.316 250.656 125.858C248.419 119.147 242.116 114.335 234.727 114.335C226.729 114.335 220.019 119.893 218.324 127.417C217.85 127.349 217.375 127.281 216.901 127.281C211.207 127.281 206.598 131.89 206.598 137.584C206.598 143.278 211.207 147.887 216.901 147.887C219.951 147.887 252.622 147.887 257.705 147.887C268.211 147.887 276.684 142.735 276.684 136.432C276.684 130.128 268.279 125.044 257.773 125.044Z" fill="#181818" stroke="#767676" stroke-width="2" stroke-miterlimit="10" stroke-linecap="round" stroke-linejoin="round"/>
<path d="M225.035 132.771C225.102 135.279 223.679 137.313 221.917 137.381C220.154 137.448 218.595 135.415 218.595 132.907C218.528 130.399 219.951 128.366 221.713 128.298C223.476 128.298 225.035 130.264 225.035 132.771Z" fill="#181818" stroke="#767676" stroke-width="2" stroke-miterlimit="10" stroke-linecap="round" stroke-linejoin="round"/>
<path d="M223.611 141.854C223.679 143.345 221.442 144.701 218.595 144.836C215.748 144.972 213.444 143.819 213.376 142.328C213.308 140.837 215.545 139.481 218.392 139.346C221.171 139.21 223.543 140.363 223.611 141.854Z" fill="#181818" stroke="#767676" stroke-width="2" stroke-miterlimit="10" stroke-linecap="round" stroke-linejoin="round"/>
<path d="M228.966 133.991L237.913 132.975C237.913 132.975 238.388 137.38 233.778 138.194C229.169 138.939 228.966 133.991 228.966 133.991Z" fill="#181818" stroke="#767676" stroke-width="2" stroke-miterlimit="10" stroke-linecap="round" stroke-linejoin="round"/>
<path d="M249.978 129.45L243.132 132.636L249.504 135.957" fill="#181818"/>
<path d="M249.978 129.45L243.132 132.636L249.504 135.957" stroke="#767676" stroke-width="2" stroke-miterlimit="10" stroke-linecap="round" stroke-linejoin="round"/>
<path d="M255.197 141.583C255.265 143.074 253.028 144.43 250.181 144.566C247.335 144.701 245.03 143.549 244.962 142.058C244.895 140.566 247.131 139.211 249.978 139.075C252.757 138.94 255.13 140.092 255.197 141.583Z" fill="#181818" stroke="#767676" stroke-width="2" stroke-miterlimit="10" stroke-linecap="round" stroke-linejoin="round"/>
<path d="M41.2111 144.295H4.948V248.95H41.2111V144.295Z" fill="#181818" stroke="#767676" stroke-width="2" stroke-miterlimit="10" stroke-linecap="round" stroke-linejoin="round"/>
<path d="M35.653 135.348H10.5739V144.295H35.653V135.348Z" fill="#181818" stroke="#767676" stroke-width="2" stroke-miterlimit="10" stroke-linecap="round" stroke-linejoin="round"/>
<path d="M16.1319 149.649H8.81152V156.97H16.1319V149.649Z" fill="#181818" stroke="#767676" stroke-width="2" stroke-miterlimit="10" stroke-linecap="round" stroke-linejoin="round"/>
<path d="M26.7736 149.649H19.4532V156.97H26.7736V149.649Z" fill="#181818" stroke="#767676" stroke-width="2" stroke-miterlimit="10" stroke-linecap="round" stroke-linejoin="round"/>
<path d="M37.3475 149.649H30.0271V156.97H37.3475V149.649Z" fill="#181818" stroke="#767676" stroke-width="2" stroke-miterlimit="10" stroke-linecap="round" stroke-linejoin="round"/>
<path d="M16.1319 161.308H8.81152V168.628H16.1319V161.308Z" fill="#181818" stroke="#767676" stroke-width="2" stroke-miterlimit="10" stroke-linecap="round" stroke-linejoin="round"/>
<path d="M26.7736 161.308H19.4532V168.628H26.7736V161.308Z" fill="#181818" stroke="#767676" stroke-width="2" stroke-miterlimit="10" stroke-linecap="round" stroke-linejoin="round"/>
<path d="M37.3475 161.308H30.0271V168.628H37.3475V161.308Z" fill="#181818" stroke="#767676" stroke-width="2" stroke-miterlimit="10" stroke-linecap="round" stroke-linejoin="round"/>
<path d="M16.1319 173.034H8.81152V180.355H16.1319V173.034Z" fill="#181818" stroke="#767676" stroke-width="2" stroke-miterlimit="10" stroke-linecap="round" stroke-linejoin="round"/>
<path d="M26.7736 173.034H19.4532V180.355H26.7736V173.034Z" fill="#181818" stroke="#767676" stroke-width="2" stroke-miterlimit="10" stroke-linecap="round" stroke-linejoin="round"/>
<path d="M37.3475 173.034H30.0271V180.355H37.3475V173.034Z" fill="#181818" stroke="#767676" stroke-width="2" stroke-miterlimit="10" stroke-linecap="round" stroke-linejoin="round"/>
<path d="M16.1319 184.761H8.81152V192.081H16.1319V184.761Z" fill="#181818" stroke="#767676" stroke-width="2" stroke-miterlimit="10" stroke-linecap="round" stroke-linejoin="round"/>
<path d="M26.7736 184.761H19.4532V192.081H26.7736V184.761Z" fill="#181818" stroke="#767676" stroke-width="2" stroke-miterlimit="10" stroke-linecap="round" stroke-linejoin="round"/>
<path d="M37.3475 184.761H30.0271V192.081H37.3475V184.761Z" fill="#181818" stroke="#767676" stroke-width="2" stroke-miterlimit="10" stroke-linecap="round" stroke-linejoin="round"/>
<path d="M16.1319 196.419H8.81152V203.739H16.1319V196.419Z" fill="#181818" stroke="#767676" stroke-width="2" stroke-miterlimit="10" stroke-linecap="round" stroke-linejoin="round"/>
<path d="M26.7736 196.419H19.4532V203.739H26.7736V196.419Z" fill="#181818" stroke="#767676" stroke-width="2" stroke-miterlimit="10" stroke-linecap="round" stroke-linejoin="round"/>
<path d="M37.3475 196.419H30.0271V203.739H37.3475V196.419Z" fill="#181818" stroke="#767676" stroke-width="2" stroke-miterlimit="10" stroke-linecap="round" stroke-linejoin="round"/>
<path d="M16.1319 208.145H8.81152V215.465H16.1319V208.145Z" fill="#181818" stroke="#767676" stroke-width="2" stroke-miterlimit="10" stroke-linecap="round" stroke-linejoin="round"/>
<path d="M26.7736 208.145H19.4532V215.465H26.7736V208.145Z" fill="#181818" stroke="#767676" stroke-width="2" stroke-miterlimit="10" stroke-linecap="round" stroke-linejoin="round"/>
<path d="M37.3475 208.145H30.0271V215.465H37.3475V208.145Z" fill="#181818" stroke="#767676" stroke-width="2" stroke-miterlimit="10" stroke-linecap="round" stroke-linejoin="round"/>
<path d="M16.1319 219.804H8.81152V227.124H16.1319V219.804Z" fill="#181818" stroke="#767676" stroke-width="2" stroke-miterlimit="10" stroke-linecap="round" stroke-linejoin="round"/>
<path d="M26.7736 219.804H19.4532V227.124H26.7736V219.804Z" fill="#181818" stroke="#767676" stroke-width="2" stroke-miterlimit="10" stroke-linecap="round" stroke-linejoin="round"/>
<path d="M37.3475 219.804H30.0271V227.124H37.3475V219.804Z" fill="#181818" stroke="#767676" stroke-width="2" stroke-miterlimit="10" stroke-linecap="round" stroke-linejoin="round"/>
<path d="M16.1319 231.529H8.81152V238.85H16.1319V231.529Z" fill="#181818" stroke="#767676" stroke-width="2" stroke-miterlimit="10" stroke-linecap="round" stroke-linejoin="round"/>
<path d="M26.7736 231.529H19.4532V238.85H26.7736V231.529Z" fill="#181818" stroke="#767676" stroke-width="2" stroke-miterlimit="10" stroke-linecap="round" stroke-linejoin="round"/>
<path d="M37.3475 231.529H30.0271V238.85H37.3475V231.529Z" fill="#181818" stroke="#767676" stroke-width="2" stroke-miterlimit="10" stroke-linecap="round" stroke-linejoin="round"/>
<path d="M291.935 143.55H265.365V211.874H291.935V143.55Z" fill="#181818" stroke="#767676" stroke-width="2" stroke-miterlimit="10" stroke-linecap="round" stroke-linejoin="round"/>
<path d="M287.868 136.975H269.499V143.482H287.868V136.975Z" fill="#181818" stroke="#767676" stroke-width="2" stroke-miterlimit="10" stroke-linecap="round" stroke-linejoin="round"/>
<path d="M273.566 147.48H268.211V152.835H273.566V147.48Z" fill="#181818" stroke="#767676" stroke-width="2" stroke-miterlimit="10" stroke-linecap="round" stroke-linejoin="round"/>
<path d="M281.361 147.48H276.006V152.835H281.361V147.48Z" fill="#181818" stroke="#767676" stroke-width="2" stroke-miterlimit="10" stroke-linecap="round" stroke-linejoin="round"/>
<path d="M289.088 147.48H283.733V152.835H289.088V147.48Z" fill="#181818" stroke="#767676" stroke-width="2" stroke-miterlimit="10" stroke-linecap="round" stroke-linejoin="round"/>
<path d="M273.566 156.021H268.211V161.376H273.566V156.021Z" fill="#181818" stroke="#767676" stroke-width="2" stroke-miterlimit="10" stroke-linecap="round" stroke-linejoin="round"/>
<path d="M281.361 156.021H276.006V161.376H281.361V156.021Z" fill="#181818" stroke="#767676" stroke-width="2" stroke-miterlimit="10" stroke-linecap="round" stroke-linejoin="round"/>
<path d="M289.088 156.021H283.733V161.376H289.088V156.021Z" fill="#181818" stroke="#767676" stroke-width="2" stroke-miterlimit="10" stroke-linecap="round" stroke-linejoin="round"/>
<path d="M273.566 164.562H268.211V169.916H273.566V164.562Z" fill="#181818" stroke="#767676" stroke-width="2" stroke-miterlimit="10" stroke-linecap="round" stroke-linejoin="round"/>
<path d="M281.361 164.562H276.006V169.916H281.361V164.562Z" fill="#181818" stroke="#767676" stroke-width="2" stroke-miterlimit="10" stroke-linecap="round" stroke-linejoin="round"/>
<path d="M289.088 164.562H283.733V169.916H289.088V164.562Z" fill="#181818" stroke="#767676" stroke-width="2" stroke-miterlimit="10" stroke-linecap="round" stroke-linejoin="round"/>
<path d="M273.566 173.17H268.211V178.525H273.566V173.17Z" fill="#181818" stroke="#767676" stroke-width="2" stroke-miterlimit="10" stroke-linecap="round" stroke-linejoin="round"/>
<path d="M281.361 173.17H276.006V178.525H281.361V173.17Z" fill="#181818" stroke="#767676" stroke-width="2" stroke-miterlimit="10" stroke-linecap="round" stroke-linejoin="round"/>
<path d="M289.088 173.17H283.733V178.525H289.088V173.17Z" fill="#181818" stroke="#767676" stroke-width="2" stroke-miterlimit="10" stroke-linecap="round" stroke-linejoin="round"/>
<path d="M273.566 181.71H268.211V187.065H273.566V181.71Z" fill="#181818" stroke="#767676" stroke-width="2" stroke-miterlimit="10" stroke-linecap="round" stroke-linejoin="round"/>
<path d="M281.361 181.71H276.006V187.065H281.361V181.71Z" fill="#181818" stroke="#767676" stroke-width="2" stroke-miterlimit="10" stroke-linecap="round" stroke-linejoin="round"/>
<path d="M289.088 181.71H283.733V187.065H289.088V181.71Z" fill="#181818" stroke="#767676" stroke-width="2" stroke-miterlimit="10" stroke-linecap="round" stroke-linejoin="round"/>
<path d="M273.566 190.251H268.211V195.606H273.566V190.251Z" fill="#181818" stroke="#767676" stroke-width="2" stroke-miterlimit="10" stroke-linecap="round" stroke-linejoin="round"/>
<path d="M281.361 190.251H276.006V195.606H281.361V190.251Z" fill="#181818" stroke="#767676" stroke-width="2" stroke-miterlimit="10" stroke-linecap="round" stroke-linejoin="round"/>
<path d="M289.088 190.251H283.733V195.606H289.088V190.251Z" fill="#181818" stroke="#767676" stroke-width="2" stroke-miterlimit="10" stroke-linecap="round" stroke-linejoin="round"/>
<path d="M189.585 133.788H153.322V238.443H189.585V133.788Z" fill="#181818" stroke="#767676" stroke-width="2" stroke-miterlimit="10" stroke-linecap="round" stroke-linejoin="round"/>
<path d="M183.959 124.909H158.88V133.856H183.959V124.909Z" fill="#181818" stroke="#767676" stroke-width="2" stroke-miterlimit="10" stroke-linecap="round" stroke-linejoin="round"/>
<path d="M164.506 145.04H157.185V152.36H164.506V145.04Z" fill="#181818" stroke="#767676" stroke-width="2" stroke-miterlimit="10" stroke-linecap="round" stroke-linejoin="round"/>
<path d="M175.08 145.04H167.759V152.36H175.08V145.04Z" fill="#181818" stroke="#767676" stroke-width="2" stroke-miterlimit="10" stroke-linecap="round" stroke-linejoin="round"/>
<path d="M185.653 145.04H178.333V152.36H185.653V145.04Z" fill="#181818" stroke="#767676" stroke-width="2" stroke-miterlimit="10" stroke-linecap="round" stroke-linejoin="round"/>
<path d="M164.506 156.698H157.185V164.019H164.506V156.698Z" fill="#181818" stroke="#767676" stroke-width="2" stroke-miterlimit="10" stroke-linecap="round" stroke-linejoin="round"/>
<path d="M175.08 156.698H167.759V164.019H175.08V156.698Z" fill="#181818" stroke="#767676" stroke-width="2" stroke-miterlimit="10" stroke-linecap="round" stroke-linejoin="round"/>
<path d="M185.653 156.698H178.333V164.019H185.653V156.698Z" fill="#181818" stroke="#767676" stroke-width="2" stroke-miterlimit="10" stroke-linecap="round" stroke-linejoin="round"/>
<path d="M164.506 168.425H157.185V175.745H164.506V168.425Z" fill="#181818" stroke="#767676" stroke-width="2" stroke-miterlimit="10" stroke-linecap="round" stroke-linejoin="round"/>
<path d="M175.08 168.425H167.759V175.745H175.08V168.425Z" fill="#181818" stroke="#767676" stroke-width="2" stroke-miterlimit="10" stroke-linecap="round" stroke-linejoin="round"/>
<path d="M185.653 168.425H178.333V175.745H185.653V168.425Z" fill="#181818" stroke="#767676" stroke-width="2" stroke-miterlimit="10" stroke-linecap="round" stroke-linejoin="round"/>
<path d="M164.506 180.083H157.185V187.403H164.506V180.083Z" fill="#181818" stroke="#767676" stroke-width="2" stroke-miterlimit="10" stroke-linecap="round" stroke-linejoin="round"/>
<path d="M175.08 180.083H167.759V187.403H175.08V180.083Z" fill="#181818" stroke="#767676" stroke-width="2" stroke-miterlimit="10" stroke-linecap="round" stroke-linejoin="round"/>
<path d="M185.653 180.083H178.333V187.403H185.653V180.083Z" fill="#181818" stroke="#767676" stroke-width="2" stroke-miterlimit="10" stroke-linecap="round" stroke-linejoin="round"/>
<path d="M164.506 191.81H157.185V199.13H164.506V191.81Z" fill="#181818" stroke="#767676" stroke-width="2" stroke-miterlimit="10" stroke-linecap="round" stroke-linejoin="round"/>
<path d="M175.08 191.81H167.759V199.13H175.08V191.81Z" fill="#181818" stroke="#767676" stroke-width="2" stroke-miterlimit="10" stroke-linecap="round" stroke-linejoin="round"/>
<path d="M185.653 191.81H178.333V199.13H185.653V191.81Z" fill="#181818" stroke="#767676" stroke-width="2" stroke-miterlimit="10" stroke-linecap="round" stroke-linejoin="round"/>
<path d="M164.506 203.536H157.185V210.857H164.506V203.536Z" fill="#181818" stroke="#767676" stroke-width="2" stroke-miterlimit="10" stroke-linecap="round" stroke-linejoin="round"/>
<path d="M175.08 203.536H167.759V210.857H175.08V203.536Z" fill="#181818" stroke="#767676" stroke-width="2" stroke-miterlimit="10" stroke-linecap="round" stroke-linejoin="round"/>
<path d="M185.653 203.536H178.333V210.857H185.653V203.536Z" fill="#181818" stroke="#767676" stroke-width="2" stroke-miterlimit="10" stroke-linecap="round" stroke-linejoin="round"/>
<path d="M164.506 215.194H157.185V222.515H164.506V215.194Z" fill="#181818" stroke="#767676" stroke-width="2" stroke-miterlimit="10" stroke-linecap="round" stroke-linejoin="round"/>
<path d="M175.08 215.194H167.759V222.515H175.08V215.194Z" fill="#181818" stroke="#767676" stroke-width="2" stroke-miterlimit="10" stroke-linecap="round" stroke-linejoin="round"/>
<path d="M185.653 215.194H178.333V222.515H185.653V215.194Z" fill="#181818" stroke="#767676" stroke-width="2" stroke-miterlimit="10" stroke-linecap="round" stroke-linejoin="round"/>
<path d="M164.506 226.92H157.185V234.24H164.506V226.92Z" fill="#181818" stroke="#767676" stroke-width="2" stroke-miterlimit="10" stroke-linecap="round" stroke-linejoin="round"/>
<path d="M175.08 226.92H167.759V234.24H175.08V226.92Z" fill="#181818" stroke="#767676" stroke-width="2" stroke-miterlimit="10" stroke-linecap="round" stroke-linejoin="round"/>
<path d="M185.653 226.92H178.333V234.24H185.653V226.92Z" fill="#181818" stroke="#767676" stroke-width="2" stroke-miterlimit="10" stroke-linecap="round" stroke-linejoin="round"/>
<path d="M96.0463 174.932H62.2234V244.475H96.0463V174.932Z" fill="#181818" stroke="#767676" stroke-width="2" stroke-miterlimit="10" stroke-linecap="round" stroke-linejoin="round"/>
<path d="M95.9786 174.932H84.5913V244.475H95.9786V174.932Z" fill="#181818" stroke="#767676" stroke-width="2" stroke-miterlimit="10" stroke-linecap="round" stroke-linejoin="round"/>
<path d="M82.1511 148.7H66.358V174.932H82.1511V148.7Z" fill="#181818" stroke="#767676" stroke-width="2" stroke-miterlimit="10" stroke-linecap="round" stroke-linejoin="round"/>
<path d="M71.645 187.064H44.4646V238.646H71.645V187.064Z" fill="#181818" stroke="#767676" stroke-width="2" stroke-miterlimit="10" stroke-linecap="round" stroke-linejoin="round"/>
<path d="M47.9893 196.825H67.5781" stroke="#767676" stroke-width="2" stroke-miterlimit="10" stroke-linecap="round" stroke-linejoin="round"/>
<path d="M47.9893 204.553H67.5781" stroke="#767676" stroke-width="2" stroke-miterlimit="10" stroke-linecap="round" stroke-linejoin="round"/>
<path d="M47.9893 212.212H67.5781" stroke="#767676" stroke-width="2" stroke-miterlimit="10" stroke-linecap="round" stroke-linejoin="round"/>
<path d="M47.9893 219.871H67.5781" stroke="#767676" stroke-width="2" stroke-miterlimit="10" stroke-linecap="round" stroke-linejoin="round"/>
<path d="M47.9893 227.53H67.5781" stroke="#767676" stroke-width="2" stroke-miterlimit="10" stroke-linecap="round" stroke-linejoin="round"/>
<path d="M263.06 171.407H238.726V221.498H263.06V171.407Z" fill="#181818" stroke="#767676" stroke-width="2" stroke-miterlimit="10" stroke-linecap="round" stroke-linejoin="round"/>
<path d="M263.06 171.407H254.858V221.498H263.06V171.407Z" fill="#181818" stroke="#767676" stroke-width="2" stroke-miterlimit="10" stroke-linecap="round" stroke-linejoin="round"/>
<path d="M253.096 171.407H241.709L241.777 159.003L253.164 168.492L253.096 171.407Z" fill="#181818" stroke="#767676" stroke-width="2" stroke-miterlimit="10" stroke-linecap="round" stroke-linejoin="round"/>
<path d="M244.285 184.082H217.104V226.174H244.285V184.082Z" fill="#181818" stroke="#767676" stroke-width="2" stroke-miterlimit="10" stroke-linecap="round" stroke-linejoin="round"/>
<path d="M220.629 192.013H240.218" stroke="#767676" stroke-width="2" stroke-miterlimit="10" stroke-linecap="round" stroke-linejoin="round"/>
<path d="M220.629 198.249H240.218" stroke="#767676" stroke-width="2" stroke-miterlimit="10" stroke-linecap="round" stroke-linejoin="round"/>
<path d="M220.629 204.484H240.218" stroke="#767676" stroke-width="2" stroke-miterlimit="10" stroke-linecap="round" stroke-linejoin="round"/>
<path d="M220.629 210.788H240.218" stroke="#767676" stroke-width="2" stroke-miterlimit="10" stroke-linecap="round" stroke-linejoin="round"/>
<path d="M220.629 217.024H240.218" stroke="#767676" stroke-width="2" stroke-miterlimit="10" stroke-linecap="round" stroke-linejoin="round"/>
<path d="M145.256 152.632H103.841V245.425H145.256V152.632Z" fill="#181818" stroke="#767676" stroke-width="2" stroke-miterlimit="10" stroke-linecap="round" stroke-linejoin="round"/>
<path d="M119.973 152.632H103.841V245.425H119.973V152.632Z" fill="#181818" stroke="#767676" stroke-width="2" stroke-miterlimit="10" stroke-linecap="round" stroke-linejoin="round"/>
<path d="M124.582 161.985H139.901" stroke="#767676" stroke-width="2" stroke-miterlimit="10" stroke-linecap="round" stroke-linejoin="round"/>
<path d="M124.582 169.78H139.901" stroke="#767676" stroke-width="2" stroke-miterlimit="10" stroke-linecap="round" stroke-linejoin="round"/>
<path d="M124.582 177.575H139.901" stroke="#767676" stroke-width="2" stroke-miterlimit="10" stroke-linecap="round" stroke-linejoin="round"/>
<path d="M124.582 185.37H139.901" stroke="#767676" stroke-width="2" stroke-miterlimit="10" stroke-linecap="round" stroke-linejoin="round"/>
<path d="M124.582 193.232H139.901" stroke="#767676" stroke-width="2" stroke-miterlimit="10" stroke-linecap="round" stroke-linejoin="round"/>
<path d="M124.582 201.027H139.901" stroke="#767676" stroke-width="2" stroke-miterlimit="10" stroke-linecap="round" stroke-linejoin="round"/>
<path d="M124.582 208.822H139.901" stroke="#767676" stroke-width="2" stroke-miterlimit="10" stroke-linecap="round" stroke-linejoin="round"/>
<path d="M124.582 216.617H139.901" stroke="#767676" stroke-width="2" stroke-miterlimit="10" stroke-linecap="round" stroke-linejoin="round"/>
<path d="M124.582 224.412H139.901" stroke="#767676" stroke-width="2" stroke-miterlimit="10" stroke-linecap="round" stroke-linejoin="round"/>
<path d="M124.582 232.207H139.901" stroke="#767676" stroke-width="2" stroke-miterlimit="10" stroke-linecap="round" stroke-linejoin="round"/>
<path d="M129.192 143.074H110.891V152.631H129.192V143.074Z" fill="#181818" stroke="#767676" stroke-width="2" stroke-miterlimit="10" stroke-linecap="round" stroke-linejoin="round"/>
<path d="M212.698 160.562H178.333V237.494H212.698V160.562Z" fill="#181818" stroke="#767676" stroke-width="2" stroke-miterlimit="10" stroke-linecap="round" stroke-linejoin="round"/>
<path d="M191.754 160.562H178.333V237.494H191.754V160.562Z" fill="#181818" stroke="#767676" stroke-width="2" stroke-miterlimit="10" stroke-linecap="round" stroke-linejoin="round"/>
<path d="M195.55 168.29H208.292" stroke="#767676" stroke-width="2" stroke-miterlimit="10" stroke-linecap="round" stroke-linejoin="round"/>
<path d="M195.55 174.797H208.292" stroke="#767676" stroke-width="2" stroke-miterlimit="10" stroke-linecap="round" stroke-linejoin="round"/>
<path d="M195.55 181.236H208.292" stroke="#767676" stroke-width="2" stroke-miterlimit="10" stroke-linecap="round" stroke-linejoin="round"/>
<path d="M195.55 187.676H208.292" stroke="#767676" stroke-width="2" stroke-miterlimit="10" stroke-linecap="round" stroke-linejoin="round"/>
<path d="M195.55 194.183H208.292" stroke="#767676" stroke-width="2" stroke-miterlimit="10" stroke-linecap="round" stroke-linejoin="round"/>
<path d="M195.55 200.622H208.292" stroke="#767676" stroke-width="2" stroke-miterlimit="10" stroke-linecap="round" stroke-linejoin="round"/>
<path d="M195.55 207.129H208.292" stroke="#767676" stroke-width="2" stroke-miterlimit="10" stroke-linecap="round" stroke-linejoin="round"/>
<path d="M195.55 213.568H208.292" stroke="#767676" stroke-width="2" stroke-miterlimit="10" stroke-linecap="round" stroke-linejoin="round"/>
<path d="M195.55 220.075H208.292" stroke="#767676" stroke-width="2" stroke-miterlimit="10" stroke-linecap="round" stroke-linejoin="round"/>
<path d="M195.55 226.515H208.292" stroke="#767676" stroke-width="2" stroke-miterlimit="10" stroke-linecap="round" stroke-linejoin="round"/>
<path d="M199.413 160.563H184.23V152.632L199.413 141.109V160.563Z" fill="#181818" stroke="#767676" stroke-width="2" stroke-miterlimit="10" stroke-linecap="round" stroke-linejoin="round"/>
<path d="M0.338867 240.748V307.106C0.338867 307.106 111.365 248.136 294.646 219.193V191.471C294.646 191.538 137.054 200.215 0.338867 240.748Z" fill="#181818" stroke="#767676" stroke-width="2" stroke-miterlimit="10" stroke-linecap="round" stroke-linejoin="round"/>
<path d="M10.4383 370.753C10.4383 370.753 -7.18488 383.021 14.6408 387.088C36.4664 391.155 154.135 401.322 154.135 401.322C154.135 401.322 167.759 403.966 176.977 394.951C176.977 394.951 191.279 395.764 200.972 389.664C213.308 381.937 285.699 339.166 285.699 339.166C285.699 339.166 315.862 323.034 297.967 317.747C281.225 312.799 235.744 304.733 235.744 304.733L10.4383 370.753Z" fill="#767676" stroke="#181818" stroke-width="1.5" stroke-miterlimit="10" stroke-linecap="round" stroke-linejoin="round"/>
<path d="M173.046 312.257L275.328 271.046L284.818 286.771L281.022 302.225L199.752 355.231L173.046 312.257Z" fill="#D84040" stroke="#181818" stroke-width="1.5" stroke-miterlimit="10" stroke-linecap="round" stroke-linejoin="round"/>
<path d="M288.749 239.866C288.681 238.782 287.732 237.901 286.648 237.901L259.806 237.02L258.654 253.626L282.445 254.372C288.953 251.999 289.088 243.73 288.749 239.866Z" fill="#D84040" stroke="#181818" stroke-width="1.5" stroke-miterlimit="10" stroke-linecap="round" stroke-linejoin="round"/>
<path d="M284.411 239.392L259.671 238.579L258.586 253.627L278.04 254.237C283.055 250.848 286.783 244.544 286.512 241.358C286.377 240.274 285.496 239.46 284.411 239.392Z" fill="#D84040" stroke="#181818" stroke-width="1.5" stroke-miterlimit="10" stroke-linecap="round" stroke-linejoin="round"/>
<path d="M18.2332 344.725L13.0818 359.908L7.99821 364.517C7.99821 364.517 3.9991 368.245 8.60824 372.786C13.2852 377.395 23.3168 378.276 23.3168 378.276C23.3168 378.276 105.536 389.935 145.527 389.596C145.527 389.596 156.101 390.409 162.743 385.597C169.318 380.852 176.977 376.717 176.977 376.717L171.148 365.872L173.046 356.79L18.2332 344.725Z" fill="#D84040" stroke="#181818" stroke-width="1.5" stroke-miterlimit="10" stroke-linecap="round" stroke-linejoin="round"/>
<path d="M13.0818 359.907C13.0818 359.907 11.3195 365.669 23.9268 368.787C36.5342 371.905 130.818 379.971 130.818 379.971C130.818 379.971 146.34 381.868 152.847 380.987C162.337 379.699 163.014 375.158 163.014 375.158L169.25 360.111" fill="#D84040"/>
<path d="M13.0818 359.907C13.0818 359.907 11.3195 365.669 23.9268 368.787C36.5342 371.905 130.818 379.971 130.818 379.971C130.818 379.971 146.34 381.868 152.847 380.987C162.337 379.699 163.014 375.158 163.014 375.158L169.25 360.111" stroke="#181818" stroke-width="1.5" stroke-miterlimit="10" stroke-linecap="round" stroke-linejoin="round"/>
<path d="M285.089 256.609C284.75 255.05 283.394 253.83 281.768 253.694C279.192 253.491 275.328 253.084 273.43 252.542C270.312 251.661 256.756 226.853 256.756 226.853C256.756 226.853 253.706 217.905 230.796 216.821C207.818 215.736 174.876 213.093 138.071 214.313C138.071 214.313 117.126 214.72 106.01 223.802C106.01 223.802 87.7092 247.255 76.7963 266.708C76.7963 266.708 31.7894 280.061 14.1662 298.972C14.1662 298.972 12.675 299.447 12.8106 305.208C12.9462 310.969 12.8106 329.609 12.8106 329.609C12.8106 329.609 9.76044 344.047 21.4189 349.198C21.4189 349.198 106.349 364.11 155.016 360.721L161.659 360.111C161.659 360.111 167.556 364.585 173.859 360.043C173.859 360.043 177.926 356.586 181.18 346.487C184.366 336.387 194.533 312.596 201.718 312.799C208.902 313.003 210.258 327.169 210.19 336.455C210.123 345.674 209.716 357.671 209.716 357.671L252.757 332.253C252.757 332.253 254.994 330.626 257.027 330.287C259.061 330.016 261.975 323.17 262.45 318.9C262.924 314.63 269.296 285.551 276.752 284.941C284.275 284.331 281.632 300.599 281.632 300.599C281.632 300.599 283.123 298.769 284.479 294.973C285.699 291.381 289.495 275.723 285.089 256.609Z" fill="#D84040" stroke="#181818" stroke-width="1.5" stroke-miterlimit="10" stroke-linecap="round" stroke-linejoin="round"/>
<path d="M161.659 360.111C161.659 360.111 167.488 348.859 171.284 334.693C175.08 320.527 182.264 304.123 193.787 303.107C205.31 302.09 209.445 314.494 210.597 320.323C211.749 326.085 211.478 346.894 211.478 346.894" fill="#D84040"/>
<path d="M161.659 360.111C161.659 360.111 167.488 348.859 171.284 334.693C175.08 320.527 182.264 304.123 193.787 303.107C205.31 302.09 209.445 314.494 210.597 320.323C211.749 326.085 211.478 346.894 211.478 346.894" stroke="#181818" stroke-width="1.5" stroke-miterlimit="10" stroke-linecap="round" stroke-linejoin="round"/>
<path d="M210.258 348.656L249.707 326.694L252.215 328.321C252.215 328.321 253.977 330.897 256.96 330.287" fill="#D84040"/>
<path d="M210.258 348.656L249.707 326.694L252.215 328.321C252.215 328.321 253.977 330.897 256.96 330.287" stroke="#181818" stroke-width="1.5" stroke-miterlimit="10" stroke-linecap="round" stroke-linejoin="round"/>
<path d="M210.258 351.841L252.215 328.321" stroke="#181818" stroke-width="1.5" stroke-miterlimit="10" stroke-linecap="round" stroke-linejoin="round"/>
<path d="M209.784 354.553L253.435 329.542" stroke="#181818" stroke-width="1.5" stroke-miterlimit="10" stroke-linecap="round" stroke-linejoin="round"/>
<path d="M252.215 328.321C252.486 328.253 255.197 319.577 257.57 303.378C259.942 287.178 265.636 276.807 272.414 277.078C279.192 277.35 281.7 283.518 282.31 287.381C283.53 294.973 281.564 300.599 281.564 300.599" fill="#D84040"/>
<path d="M252.215 328.321C252.486 328.253 255.197 319.577 257.57 303.378C259.942 287.178 265.636 276.807 272.414 277.078C279.192 277.35 281.7 283.518 282.31 287.381C283.53 294.973 281.564 300.599 281.564 300.599" stroke="#181818" stroke-width="1.5" stroke-miterlimit="10" stroke-linecap="round" stroke-linejoin="round"/>
<path d="M249.707 326.694C250.182 326.152 255.875 310.291 255.536 276.739C255.468 271.859 254.248 267.047 251.944 262.776" fill="#D84040"/>
<path d="M249.707 326.694C250.182 326.152 255.875 310.291 255.536 276.739C255.468 271.859 254.248 267.047 251.944 262.776" stroke="#181818" stroke-width="1.5" stroke-miterlimit="10" stroke-linecap="round" stroke-linejoin="round"/>
<path d="M214.19 346.487C214.19 346.487 219.138 330.422 217.443 286.907C217.307 283.518 215.749 280.264 213.105 278.095C213.037 278.095 213.037 278.027 212.969 278.027" fill="#D84040"/>
<path d="M214.19 346.487C214.19 346.487 219.138 330.422 217.443 286.907C217.307 283.518 215.749 280.264 213.105 278.095C213.037 278.095 213.037 278.027 212.969 278.027" stroke="#181818" stroke-width="1.5" stroke-miterlimit="10" stroke-linecap="round" stroke-linejoin="round"/>
<path d="M214.664 276.198L221.849 235.868C221.849 235.868 222.594 229.089 231.338 227.395C240.15 225.7 244.759 225.836 244.759 225.836C244.759 225.836 248.961 224.684 252.622 230.919C256.282 237.155 262.653 248.475 262.653 248.475C262.653 248.475 265.636 256.134 255.536 260.947C245.437 265.759 218.256 276.672 218.256 276.672C218.256 276.672 215.071 278.705 214.664 276.198Z" fill="#D84040" stroke="#181818" stroke-width="1.5" stroke-miterlimit="10" stroke-linecap="round" stroke-linejoin="round"/>
<path d="M223.611 236.207C223.679 235.868 224.424 230.581 231.677 229.225C239.336 227.734 243.81 227.666 244.623 227.666H244.895L245.233 227.599C245.233 227.599 245.369 227.599 245.572 227.599C246.453 227.599 248.758 228.005 251.063 231.869C254.452 237.63 260.281 248.001 260.959 249.289C261.298 250.238 262.585 255.592 254.723 259.388C244.827 264.133 217.85 274.978 217.579 275.046L217.443 275.113L217.307 275.181C217.104 275.317 216.901 275.385 216.63 275.52L223.611 236.207Z" fill="#595959" stroke="#181818" stroke-width="1.5" stroke-miterlimit="10" stroke-linecap="round" stroke-linejoin="round"/>
<path d="M257.909 243.798C256.485 247.526 255.13 251.254 253.977 255.049C253.367 256.879 252.825 258.709 252.351 260.54C250.656 261.285 248.758 262.166 246.657 263.047C248.419 256.54 250.385 250.101 252.554 243.798C253.232 241.832 253.909 239.934 254.655 238.036C255.74 240.002 256.96 242.035 257.909 243.798Z" fill="#595959" stroke="#181818" stroke-width="1.5" stroke-miterlimit="10" stroke-linecap="round" stroke-linejoin="round"/>
<path d="M251.808 233.021C248.08 243.256 245.098 253.829 242.929 264.607C237.71 266.844 232.016 269.216 227.339 271.114C227.746 269.013 228.085 266.844 228.559 264.742C231.203 252.338 234.931 240.138 239.608 228.411C239.675 228.276 239.743 228.14 239.743 228.005C242.454 227.666 244.081 227.666 244.556 227.666H244.827L245.166 227.598C245.166 227.598 245.301 227.53 245.505 227.53C246.386 227.53 248.69 227.937 250.995 231.801C251.266 232.207 251.537 232.614 251.808 233.021Z" fill="#595959" stroke="#181818" stroke-width="1.5" stroke-miterlimit="10" stroke-linecap="round" stroke-linejoin="round"/>
<path d="M251.063 231.801C248.826 227.937 246.454 227.53 245.572 227.53C245.369 227.53 245.233 227.53 245.233 227.53L244.895 227.598H244.623C243.81 227.598 239.404 227.666 231.677 229.157C225.509 230.309 224.018 234.241 223.679 235.664C223.679 235.664 225.645 232.953 231.203 231.665C236.761 230.377 244.081 229.428 244.081 229.428C244.081 229.428 246.725 228.547 248.69 232.546C250.724 236.545 258.925 250.508 258.925 250.508C258.925 250.508 260.891 255.05 256.824 258.168C262.45 254.507 261.298 250.102 261.027 249.22C260.281 247.933 254.452 237.63 251.063 231.801Z" fill="#D84040" stroke="#181818" stroke-width="1.5" stroke-miterlimit="10" stroke-linecap="round" stroke-linejoin="round"/>
<path d="M251.876 260.676C249.504 245.086 244.081 229.429 244.081 229.429L242.251 229.7C242.251 230.107 247.741 250.238 249.775 261.625L251.876 260.676Z" fill="#D84040" stroke="#181818" stroke-width="1.5" stroke-miterlimit="10" stroke-linecap="round" stroke-linejoin="round"/>
<path d="M80.1854 267.182C80.1854 267.182 95.4363 239.867 109.738 224.955C109.738 224.955 173.656 222.853 213.037 229.767C213.037 229.767 218.392 230.987 217.375 236.206C216.358 241.426 210.733 270.436 210.733 270.436C210.733 270.436 210.461 276.13 200.701 275.587C190.873 274.91 155.016 269.284 80.1854 267.182Z" fill="#D84040" stroke="#181818" stroke-width="1.5" stroke-miterlimit="10" stroke-linecap="round" stroke-linejoin="round"/>
<path d="M201.989 273.689C201.582 273.689 201.243 273.689 200.769 273.689C198.6 273.554 195.007 273.147 190.059 272.605C173.521 270.775 139.426 267.115 83.2356 265.42C87.3703 258.371 99.232 238.646 110.484 226.649C112.924 226.581 121.125 226.378 132.174 226.378C155.694 226.378 188.704 227.259 212.698 231.462C213.173 231.597 216.223 232.478 215.613 235.732C214.596 240.883 208.97 269.961 208.97 269.961V270.097V270.233C208.902 270.368 208.496 273.689 201.989 273.689Z" fill="#595959" stroke="#181818" stroke-width="1.5" stroke-miterlimit="10" stroke-linecap="round" stroke-linejoin="round"/>
<path d="M12.2685 325.339C12.2685 325.339 11.1162 330.219 16.742 331.575C22.3679 332.998 38.9066 334.015 38.9066 334.015C38.9066 334.015 45.278 334.489 48.0571 330.761C48.0571 330.761 95.9786 334.557 115.229 336.862C115.229 336.862 116.449 341.335 122.142 342.352C127.904 343.301 149.052 343.301 149.052 343.301C149.052 343.301 157.185 344.724 158.473 338.15C159.761 331.575 159.693 321.543 159.693 321.543C159.693 321.543 157.795 315.511 152.034 313.884L12.2685 325.339Z" fill="#D84040" stroke="#181818" stroke-width="1.5" stroke-miterlimit="10" stroke-linecap="round" stroke-linejoin="round"/>
<path d="M10.0316 308.326V321.475C10.0316 321.475 9.42159 326.491 19.9277 328.118C30.4339 329.745 41.0756 329.745 41.3467 329.745C41.6178 329.745 44.9391 329.609 47.447 327.711C47.447 327.711 91.4372 331.778 116.923 333.134C116.923 333.134 118.821 336.59 125.531 337.539C132.309 338.421 149.865 338.217 149.865 338.217C149.865 338.217 155.897 338.353 156.914 331.575C157.999 324.797 156.914 319.984 156.914 319.984C156.914 319.984 155.287 313.748 148.238 312.664C141.189 311.579 124.65 310.834 124.65 310.834C124.65 310.834 121.058 310.427 118.008 313.206C118.008 313.206 59.0376 309.885 48.5315 307.919C48.5315 307.919 47.3792 304.259 42.0245 303.92C36.6698 303.581 17.0809 302.835 17.0809 302.835C17.0809 302.835 11.0484 301.954 10.0316 308.326Z" fill="#D84040" stroke="#181818" stroke-width="1.5" stroke-miterlimit="10" stroke-linecap="round" stroke-linejoin="round"/>
<path d="M144.51 336.387C139.359 336.387 130.14 336.319 125.735 335.709C120.109 334.964 118.482 332.32 118.482 332.252L118.008 331.439L116.991 331.371C91.8439 330.016 48.0571 326.017 47.5826 325.949L46.9048 325.881L46.3625 326.288C44.6002 327.576 42.0923 327.914 41.3467 327.914C40.94 327.914 30.5017 327.914 20.2667 326.355C13.5563 325.339 11.8618 322.831 11.9295 321.679V308.529C12.404 305.953 13.8952 304.598 16.4709 304.598C16.742 304.598 16.9454 304.598 16.9454 304.598C17.2843 304.598 36.6698 305.411 42.0245 305.75C46.0236 306.021 46.9048 308.393 46.9048 308.529L47.2437 309.478L48.2604 309.681C58.6988 311.647 115.567 314.833 117.94 314.968L118.685 315.036L119.228 314.494C121.126 312.731 123.295 312.528 124.176 312.528C124.379 312.528 124.447 312.528 124.515 312.528C124.786 312.528 141.189 313.274 147.967 314.358C153.661 315.239 155.084 320.187 155.152 320.391C155.152 320.391 156.101 324.932 155.084 331.236C154.338 336.116 150.543 336.319 149.797 336.319C149.797 336.387 147.628 336.387 144.51 336.387Z" fill="#D84040" stroke="#181818" stroke-width="1.5" stroke-miterlimit="10" stroke-linecap="round" stroke-linejoin="round"/>
<path d="M29.6882 315.781C29.6882 321.001 26.028 325.271 21.5544 325.271C17.0809 325.271 13.4207 321.068 13.4207 315.781C13.4207 310.562 17.0809 306.292 21.5544 306.292C26.028 306.36 29.6882 310.562 29.6882 315.781Z" fill="#D84040" stroke="#181818" stroke-width="1.5" stroke-miterlimit="10" stroke-linecap="round" stroke-linejoin="round"/>
<path d="M39.1099 326.491C43.602 326.491 47.2436 322.242 47.2436 317.001C47.2436 311.76 43.602 307.512 39.1099 307.512C34.6177 307.512 30.9761 311.76 30.9761 317.001C30.9761 322.242 34.6177 326.491 39.1099 326.491Z" fill="#D84040" stroke="#181818" stroke-width="1.5" stroke-miterlimit="10" stroke-linecap="round" stroke-linejoin="round"/>
<path d="M126.412 333.811C131.129 333.811 134.953 329.502 134.953 324.187C134.953 318.871 131.129 314.562 126.412 314.562C121.696 314.562 117.872 318.871 117.872 324.187C117.872 329.502 121.696 333.811 126.412 333.811Z" fill="#D84040" stroke="#181818" stroke-width="1.5" stroke-miterlimit="10" stroke-linecap="round" stroke-linejoin="round"/>
<path d="M144.849 335.1C149.566 335.1 153.389 330.79 153.389 325.475C153.389 320.159 149.566 315.85 144.849 315.85C140.132 315.85 136.308 320.159 136.308 325.475C136.308 330.79 140.132 335.1 144.849 335.1Z" fill="#D84040" stroke="#181818" stroke-width="1.5" stroke-miterlimit="10" stroke-linecap="round" stroke-linejoin="round"/>
<path d="M48.8027 312.393C48.8027 312.393 88.3871 317.07 116.449 317.815L48.8027 312.393Z" fill="#D84040"/>
<path d="M48.8027 312.393C48.8027 312.393 88.3871 317.07 116.449 317.815" stroke="#181818" stroke-width="1.5" stroke-miterlimit="10" stroke-linecap="round" stroke-linejoin="round"/>
<path d="M48.6671 316.12C48.6671 316.12 88.2515 320.797 116.313 321.543L48.6671 316.12Z" fill="#D84040"/>
<path d="M48.6671 316.12C48.6671 316.12 88.2515 320.797 116.313 321.543" stroke="#181818" stroke-width="1.5" stroke-miterlimit="10" stroke-linecap="round" stroke-linejoin="round"/>
<path d="M48.5316 319.916C48.5316 319.916 88.116 324.593 116.178 325.339L48.5316 319.916Z" fill="#D84040"/>
<path d="M48.5316 319.916C48.5316 319.916 88.116 324.593 116.178 325.339" stroke="#181818" stroke-width="1.5" stroke-miterlimit="10" stroke-linecap="round" stroke-linejoin="round"/>
<path d="M48.396 323.645C48.396 323.645 87.9804 328.321 116.042 329.067L48.396 323.645Z" fill="#D84040"/>
<path d="M48.396 323.645C48.396 323.645 87.9804 328.321 116.042 329.067" stroke="#181818" stroke-width="1.5" stroke-miterlimit="10" stroke-linecap="round" stroke-linejoin="round"/>
<path d="M43.9224 333.473L117.872 340.522" stroke="#181818" stroke-width="1.5" stroke-miterlimit="10" stroke-linecap="round" stroke-linejoin="round"/>
<path d="M157.117 341.2L161.727 340.794C161.727 340.794 163.692 340.658 163.557 342.827C163.421 344.996 162.404 356.993 152.237 360.925" fill="#D84040"/>
<path d="M157.117 341.2L161.727 340.794C161.727 340.794 163.692 340.658 163.557 342.827C163.421 344.996 162.404 356.993 152.237 360.925" stroke="#181818" stroke-width="1.5" stroke-miterlimit="10" stroke-linecap="round" stroke-linejoin="round"/>
<path d="M111.636 347.097C83.8456 346.216 61.6133 343.03 51.8528 341.403C49.0059 340.929 46.3625 343.098 46.2947 346.012C46.2269 348.385 47.9214 350.486 50.2938 350.893C59.3087 352.384 82.2867 355.841 111.297 356.79C113.941 356.857 116.245 354.756 116.313 352.113V352.045C116.313 349.401 114.212 347.165 111.636 347.097Z" fill="#D84040" stroke="#181818" stroke-width="1.5" stroke-miterlimit="10" stroke-linecap="round" stroke-linejoin="round"/>
<path d="M37.0765 337.54L26.4348 336.591C25.0792 336.455 23.9269 337.54 23.9269 338.895V342.149C23.9269 343.301 24.808 344.25 25.8925 344.385L36.5342 345.741C37.8899 345.944 39.1099 344.86 39.1099 343.504V339.844C39.1777 338.692 38.2288 337.675 37.0765 337.54Z" fill="#D84040" stroke="#181818" stroke-width="1.5" stroke-miterlimit="10" stroke-linecap="round" stroke-linejoin="round"/>
<path d="M129.056 346.487L140.308 346.555C142.273 346.148 144.171 347.3 144.171 348.995V354.146C144.171 355.57 142.748 356.722 141.053 356.722L129.53 355.841C128.446 355.841 127.565 354.892 127.565 353.739V348.52C127.497 347.504 128.175 346.622 129.056 346.487Z" fill="#D84040" stroke="#181818" stroke-width="1.5" stroke-miterlimit="10" stroke-linecap="round" stroke-linejoin="round"/>
<path d="M149.187 312.799C149.187 310.698 150.136 308.732 151.763 307.445C159.829 301.141 185.721 282.569 215.071 277.011" fill="#D84040"/>
<path d="M149.187 312.799C149.187 310.698 150.136 308.732 151.763 307.445C159.829 301.141 185.721 282.569 215.071 277.011" stroke="#181818" stroke-width="1.5" stroke-miterlimit="10" stroke-linecap="round" stroke-linejoin="round"/>
<path d="M160.642 318.765C160.642 318.765 163.692 307.648 175.757 302.023C188.771 295.922 281.768 258.168 281.768 258.168" fill="#D84040"/>
<path d="M160.642 318.765C160.642 318.765 163.692 307.648 175.757 302.023C188.771 295.922 281.768 258.168 281.768 258.168" stroke="#181818" stroke-width="1.5" stroke-miterlimit="10" stroke-linecap="round" stroke-linejoin="round"/>
<path d="M172.504 319.375L165.048 322.832C164.641 323.035 164.438 323.374 164.438 323.78V325.475C164.438 326.288 165.251 326.763 165.929 326.424L173.385 322.967C173.792 322.764 173.995 322.425 173.995 322.018V320.324C173.995 319.578 173.182 319.036 172.504 319.375Z" fill="#D84040" stroke="#181818" stroke-width="1.5" stroke-miterlimit="10" stroke-linecap="round" stroke-linejoin="round"/>
<path d="M172.301 277.959C138.681 272.876 92.5895 271.588 92.5895 271.588L88.9293 274.57C88.9293 274.57 138.478 275.655 169.657 281.484L172.301 277.959Z" fill="#D84040" stroke="#181818" stroke-width="1.5" stroke-miterlimit="10" stroke-linecap="round" stroke-linejoin="round"/>
<path d="M43.3801 304.124C43.3801 304.124 42.9734 301.955 46.0236 299.108C59.1054 286.772 88.997 274.639 88.997 274.639" fill="#D84040"/>
<path d="M43.3801 304.124C43.3801 304.124 42.9734 301.955 46.0236 299.108C59.1054 286.772 88.997 274.639 88.997 274.639" stroke="#181818" stroke-width="1.5" stroke-miterlimit="10" stroke-linecap="round" stroke-linejoin="round"/>
<path d="M123.837 310.698C123.837 310.698 123.43 308.529 126.48 305.682C139.562 293.346 169.725 281.552 169.725 281.552" fill="#D84040"/>
<path d="M123.837 310.698C123.837 310.698 123.43 308.529 126.48 305.682C139.562 293.346 169.725 281.552 169.725 281.552" stroke="#181818" stroke-width="1.5" stroke-miterlimit="10" stroke-linecap="round" stroke-linejoin="round"/>
<path d="M149.052 301.005L142.273 300.395C141.799 300.327 141.392 300.734 141.392 301.208V303.649C141.392 304.055 141.731 304.462 142.138 304.462L148.916 305.072C149.39 305.14 149.797 304.733 149.797 304.259V301.819C149.797 301.412 149.458 301.073 149.052 301.005Z" fill="#D84040" stroke="#181818" stroke-width="1.5" stroke-miterlimit="10" stroke-linecap="round" stroke-linejoin="round"/>
<path d="M41.8212 292.94L35.043 292.33C34.5686 292.262 34.1619 292.669 34.1619 293.143V295.583C34.1619 295.99 34.5008 296.397 34.9075 296.397L41.6856 297.007C42.1601 297.074 42.5668 296.668 42.5668 296.193V293.753C42.5668 293.346 42.2279 293.007 41.8212 292.94Z" fill="#D84040" stroke="#181818" stroke-width="1.5" stroke-miterlimit="10" stroke-linecap="round" stroke-linejoin="round"/>
<path d="M22.639 303.039C22.639 303.039 22.5713 299.514 25.6892 296.396C29.0105 293.143 44.668 282.027 59.0377 276.333" fill="#D84040"/>
<path d="M22.639 303.039C22.639 303.039 22.5713 299.514 25.6892 296.396C29.0105 293.143 44.668 282.027 59.0377 276.333" stroke="#181818" stroke-width="1.5" stroke-miterlimit="10" stroke-linecap="round" stroke-linejoin="round"/>
<path d="M251.74 275.791L244.691 278.909C244.284 279.112 244.013 279.519 244.013 279.926V281.417C244.013 282.23 244.894 282.773 245.64 282.434L252.689 279.316C253.096 279.112 253.367 278.706 253.367 278.299V276.808C253.367 275.994 252.486 275.452 251.74 275.791Z" fill="#D84040" stroke="#181818" stroke-width="1.5" stroke-miterlimit="10" stroke-linecap="round" stroke-linejoin="round"/>
<path d="M212.766 302.293L211.071 302.767C210.665 302.903 210.394 303.242 210.394 303.649V307.376C210.394 307.987 211.004 308.461 211.614 308.258L213.308 307.783C213.715 307.648 213.986 307.309 213.986 306.902V303.174C213.986 302.564 213.376 302.09 212.766 302.293Z" fill="#D84040" stroke="#181818" stroke-width="1.5" stroke-miterlimit="10" stroke-linecap="round" stroke-linejoin="round"/>
<path d="M176.977 376.718L175.283 373.6C171.216 376.243 165.048 380.31 164.37 380.378C163.421 380.513 159.286 385.461 142.816 385.326C126.345 385.19 57.682 378.954 28.9427 374.752C14.7763 372.718 8.87934 369.601 6.50699 366.957C6.1003 368.448 6.30365 370.482 8.60822 372.718C13.2851 377.26 23.3168 378.209 23.3168 378.209C23.3168 378.209 105.536 389.867 145.527 389.528C145.527 389.528 156.101 390.342 162.743 385.529C169.386 380.784 176.977 376.718 176.977 376.718Z" fill="#D84040" stroke="#181818" stroke-width="1.5" stroke-miterlimit="10" stroke-linecap="round" stroke-linejoin="round"/>
<path d="M92.8606 343.03L60.5966 340.386C59.0376 340.251 55.9875 342.352 55.9197 343.911L57.1397 355.637C57.072 356.925 58.0887 358.009 59.4443 358.213L90.3527 363.5C92.115 363.703 94.6907 360.788 94.7585 359.162L95.5041 345.673C95.5041 344.317 94.4196 343.165 92.8606 343.03Z" fill="#D84040" stroke="#181818" stroke-width="1.5" stroke-miterlimit="10" stroke-linecap="round" stroke-linejoin="round"/>
<path d="M90.7593 344.859L58.6987 342.148C57.1397 342.012 55.7163 343.232 55.7163 344.724L55.2418 357.263C55.1741 358.551 56.1908 359.636 57.4786 359.839L89.1326 363.567C90.8949 363.77 92.4539 362.55 92.5217 360.991L93.2673 347.571C93.4028 346.147 92.2505 344.995 90.7593 344.859Z" fill="#D84040" stroke="#181818" stroke-width="1.5" stroke-miterlimit="10" stroke-linecap="round" stroke-linejoin="round"/>
<path d="M36.6019 278.909C41.6931 278.909 45.8202 275.024 45.8202 270.233C45.8202 265.441 41.6931 261.557 36.6019 261.557C31.5108 261.557 27.3837 265.441 27.3837 270.233C27.3837 275.024 31.5108 278.909 36.6019 278.909Z" fill="#D84040" stroke="#181818" stroke-width="1.5" stroke-miterlimit="10" stroke-linecap="round" stroke-linejoin="round"/>
<path d="M35.3141 279.587C39.694 279.587 43.2445 276.279 43.2445 272.199C43.2445 268.118 39.694 264.811 35.3141 264.811C30.9342 264.811 27.3837 268.118 27.3837 272.199C27.3837 276.279 30.9342 279.587 35.3141 279.587Z" fill="#D84040" stroke="#181818" stroke-width="1.5" stroke-miterlimit="10" stroke-linecap="round" stroke-linejoin="round"/>
<path d="M40.4656 275.249C37.3476 272.741 34.9075 276.876 34.9075 276.876L39.1099 282.637C39.5844 284.399 41.6178 285.281 43.1768 284.332L46.0236 282.637C46.0236 282.637 43.5835 277.757 40.4656 275.249Z" fill="#D84040" stroke="#181818" stroke-width="1.5" stroke-miterlimit="10" stroke-linecap="round" stroke-linejoin="round"/>
<path d="M39.0421 273.351C39.0421 275.791 36.9409 277.757 34.3652 277.757C31.7895 277.757 29.6882 275.791 29.6882 273.351C29.6882 270.911 31.7895 268.945 34.3652 268.945C36.9409 268.945 39.0421 270.911 39.0421 273.351Z" fill="#D84040" stroke="#181818" stroke-width="1.5" stroke-miterlimit="10" stroke-linecap="round" stroke-linejoin="round"/>
<path d="M37.7542 274.368C37.7542 276.469 35.9241 278.096 33.7551 278.096C31.5183 278.096 29.756 276.401 29.756 274.368C29.756 272.266 31.5861 270.64 33.7551 270.64C35.9241 270.572 37.7542 272.266 37.7542 274.368Z" fill="#D84040" stroke="#181818" stroke-width="1.5" stroke-miterlimit="10" stroke-linecap="round" stroke-linejoin="round"/>
<path d="M191.008 283.314C191.008 288.601 186.399 292.939 180.705 292.939C175.012 292.939 170.403 288.669 170.403 283.314C170.403 278.027 175.012 273.689 180.705 273.689C186.399 273.757 191.008 278.027 191.008 283.314Z" fill="#D84040" stroke="#181818" stroke-width="1.5" stroke-miterlimit="10" stroke-linecap="round" stroke-linejoin="round"/>
<path d="M179.282 293.685C184.148 293.685 188.094 290.013 188.094 285.484C188.094 280.954 184.148 277.282 179.282 277.282C174.415 277.282 170.47 280.954 170.47 285.484C170.47 290.013 174.415 293.685 179.282 293.685Z" fill="#D84040" stroke="#181818" stroke-width="1.5" stroke-miterlimit="10" stroke-linecap="round" stroke-linejoin="round"/>
<path d="M174.537 287.721C171.08 290.5 168.369 295.922 168.369 295.922L169.928 296.736C172.639 298.159 175.893 296.668 176.638 293.753L180.773 289.483C180.705 289.483 177.994 284.942 174.537 287.721Z" fill="#D84040" stroke="#181818" stroke-width="1.5" stroke-miterlimit="10" stroke-linecap="round" stroke-linejoin="round"/>
<path d="M183.484 286.771C183.484 289.482 181.18 291.651 178.265 291.651C175.351 291.651 173.046 289.482 173.046 286.771C173.046 284.06 175.351 281.891 178.265 281.891C181.112 281.891 183.484 284.127 183.484 286.771Z" fill="#D84040" stroke="#181818" stroke-width="1.5" stroke-miterlimit="10" stroke-linecap="round" stroke-linejoin="round"/>
<path d="M181.993 287.923C181.993 290.228 179.96 292.126 177.52 292.126C175.012 292.126 173.046 290.228 173.046 287.923C173.046 285.619 175.079 283.721 177.52 283.721C179.96 283.721 181.993 285.619 181.993 287.923Z" fill="#D84040" stroke="#181818" stroke-width="1.5" stroke-miterlimit="10" stroke-linecap="round" stroke-linejoin="round"/>
<path d="M286.648 265.963L283.937 267.522C279.802 269.894 282.31 276.401 286.987 275.181C287.055 275.181 287.122 275.113 287.19 275.113C287.19 272.267 286.987 269.216 286.648 265.963Z" fill="#D84040" stroke="#181818" stroke-width="1.5" stroke-miterlimit="10" stroke-linecap="round" stroke-linejoin="round"/>
<path d="M211.546 340.048L255.265 316.527" stroke="#181818" stroke-width="1.5" stroke-miterlimit="10" stroke-linecap="round" stroke-linejoin="round"/>
<path d="M211.953 356.315C211.953 358.959 211.817 361.467 211.343 363.5C211.139 364.517 210.936 365.466 210.665 366.415C208.089 375.836 201.04 383.631 191.686 386.546C190.263 386.952 188.975 387.224 187.89 387.224C182.942 387.291 167.963 384.173 165.455 383.631C171.284 379.7 176.977 376.65 176.977 376.65L171.148 365.805L172.165 360.992C172.707 360.721 173.249 360.382 173.859 359.975C173.859 359.975 177.926 356.519 181.112 346.419C183.281 339.573 188.636 326.491 194.058 318.832C195.482 318.832 196.702 318.968 197.719 319.171C200.904 319.849 203.548 320.662 206.801 328.389C207.954 331.236 209.174 335.371 210.123 339.98C210.123 339.98 210.123 339.98 210.123 340.048C211.139 345.335 211.885 351.164 211.953 356.315Z" fill="#767676" stroke="#181818" stroke-width="1.5" stroke-miterlimit="10" stroke-linecap="round" stroke-linejoin="round"/>
<path d="M196.498 377.124C203.761 377.124 209.648 365.957 209.648 352.181C209.648 338.405 203.761 327.237 196.498 327.237C189.236 327.237 183.349 338.405 183.349 352.181C183.349 365.957 189.236 377.124 196.498 377.124Z" fill="#767676" stroke="#181818" stroke-width="1.5" stroke-miterlimit="10" stroke-linecap="round" stroke-linejoin="round"/>
<path d="M207.886 352.113C207.886 339.709 201.989 329.678 194.736 329.678C192.499 329.678 190.33 330.627 188.5 332.389C185.382 336.93 183.349 344.115 183.349 352.181C183.349 359.908 185.179 366.822 188.094 371.431C190.059 373.397 192.296 374.549 194.736 374.549C201.989 374.549 207.886 364.517 207.886 352.113Z" fill="#767676" stroke="#181818" stroke-width="1.5" stroke-miterlimit="10" stroke-linecap="round" stroke-linejoin="round"/>
<path d="M191.212 331.169C190.534 331.169 189.856 331.305 189.178 331.44C185.653 335.914 183.349 343.505 183.349 352.181C183.349 360.247 185.382 367.432 188.5 371.973C189.381 372.245 190.263 372.448 191.212 372.448C198.464 372.448 204.361 363.23 204.361 351.842C204.361 340.455 198.464 331.169 191.212 331.169Z" fill="#767676" stroke="#181818" stroke-width="1.5" stroke-miterlimit="10" stroke-linecap="round" stroke-linejoin="round"/>
<path d="M192.025 358.553C193.784 358.553 195.211 356.064 195.211 352.995C195.211 349.925 193.784 347.437 192.025 347.437C190.266 347.437 188.839 349.925 188.839 352.995C188.839 356.064 190.266 358.553 192.025 358.553Z" fill="#767676" stroke="#181818" stroke-width="1.5" stroke-miterlimit="10" stroke-linecap="round" stroke-linejoin="round"/>
<path d="M285.767 325.678C281.768 339.167 269.906 341.336 269.092 341.336C265.161 341.403 252.554 338.692 252.554 338.692C252.554 338.692 250.859 337.404 249.097 334.422L252.689 332.321C252.689 332.321 254.926 330.626 256.96 330.355C258.993 330.084 261.908 323.238 262.45 318.968C262.789 315.985 265.975 300.802 270.448 291.787C272.82 291.652 274.922 291.652 276.277 291.923C278.107 292.33 280.141 292.736 282.107 295.651C282.513 296.261 282.92 297.006 283.327 297.82C283.462 298.091 283.53 298.362 283.665 298.633C285.902 304.259 288.681 315.782 285.767 325.678Z" fill="#767676" stroke="#181818" stroke-width="1.5" stroke-miterlimit="10" stroke-linecap="round" stroke-linejoin="round"/>
<path d="M284.818 315.85C284.818 325.881 280.548 333.947 275.261 333.947C269.974 333.947 265.703 325.813 265.703 315.85C265.703 305.818 269.974 297.752 275.261 297.752C280.548 297.752 284.818 305.886 284.818 315.85Z" fill="#767676" stroke="#181818" stroke-width="1.5" stroke-miterlimit="10" stroke-linecap="round" stroke-linejoin="round"/>
<path d="M283.598 315.782C283.598 306.767 279.327 299.515 274.04 299.515C272.414 299.515 270.855 300.192 269.499 301.48C267.195 304.802 265.771 310.021 265.771 315.85C265.771 321.476 267.127 326.492 269.228 329.813C270.651 331.236 272.278 332.05 274.04 332.05C279.327 332.05 283.598 324.797 283.598 315.782Z" fill="#767676" stroke="#181818" stroke-width="1.5" stroke-miterlimit="10" stroke-linecap="round" stroke-linejoin="round"/>
<path d="M271.465 300.599C270.923 300.599 270.448 300.666 269.974 300.802C267.398 304.056 265.771 309.614 265.771 315.849C265.771 321.746 267.262 326.898 269.499 330.219C270.109 330.422 270.787 330.558 271.465 330.558C276.752 330.558 281.022 323.848 281.022 315.578C281.022 307.309 276.752 300.599 271.465 300.599Z" fill="#767676" stroke="#181818" stroke-width="1.5" stroke-miterlimit="10" stroke-linecap="round" stroke-linejoin="round"/>
<path d="M274.379 316.459C274.379 318.696 273.363 320.526 272.075 320.526C270.787 320.526 269.77 318.696 269.77 316.459C269.77 314.223 270.787 312.393 272.075 312.393C273.363 312.393 274.379 314.223 274.379 316.459Z" fill="#767676" stroke="#181818" stroke-width="1.5" stroke-miterlimit="10" stroke-linecap="round" stroke-linejoin="round"/>
<path d="M44.1935 301.209L125.464 306.699" stroke="#181818" stroke-width="1.5" stroke-miterlimit="10" stroke-linecap="round" stroke-linejoin="round"/>
<path d="M120.38 266.98C137.935 252.542 156.507 239.393 175.961 227.599C162.676 226.785 149.255 226.514 137.596 226.446C121.125 238.511 105.468 251.661 90.6238 265.692C101.401 266.031 111.297 266.505 120.38 266.98Z" fill="#595959" stroke="#181818" stroke-width="1.5" stroke-miterlimit="10" stroke-linecap="round" stroke-linejoin="round"/>
<path d="M203.683 230.106C198.871 229.496 193.855 228.954 188.704 228.479C181.858 232.207 175.08 236.139 168.437 240.341C155.355 248.611 142.748 257.693 130.818 267.522C137.8 267.928 144.239 268.403 150.136 268.809C166.539 254.033 184.501 241.019 203.683 230.106Z" fill="#595959" stroke="#181818" stroke-width="1.5" stroke-miterlimit="10" stroke-linecap="round" stroke-linejoin="round"/>
<path d="M60.5967 240.002C62.4945 236.138 66.3581 239.595 66.3581 239.595C65.2736 236.003 65.9514 232.004 70.0861 233.292C74.2207 234.58 73.1362 246.916 73.1362 246.916C67.4426 246.509 58.6988 243.866 60.5967 240.002Z" fill="#181818" stroke="#767676" stroke-miterlimit="10" stroke-linecap="round" stroke-linejoin="round"/>
<path d="M76.1186 235.258C78.491 235.122 77.9487 237.901 77.9487 237.901C79.3721 236.342 81.4733 235.597 82.0156 237.901C82.5578 240.206 76.3897 243.12 76.3897 243.12C74.9663 240.274 73.7463 235.393 76.1186 235.258Z" fill="#181818" stroke="#767676" stroke-miterlimit="10" stroke-linecap="round" stroke-linejoin="round"/>
<path d="M28.3327 118.402L25.2148 118.266L23.0457 115.962C22.5713 115.419 21.6901 115.623 21.419 116.301L20.3345 119.215L17.5554 120.571C16.8776 120.91 16.8099 121.791 17.3521 122.198L19.7922 124.163L20.1989 127.281C20.2667 128.027 21.0801 128.366 21.6901 127.959L24.2658 126.264L27.316 126.807C28.0616 126.942 28.6038 126.264 28.4683 125.587L27.6549 122.604L29.1461 119.893C29.485 119.215 29.0783 118.402 28.3327 118.402Z" fill="#181818" stroke="#767676" stroke-miterlimit="10" stroke-linecap="round" stroke-linejoin="round"/>
<path d="M59.1733 157.444L56.0554 157.512L53.7508 155.343C53.2086 154.868 52.3274 155.071 52.1241 155.749L51.2429 158.732L48.5316 160.223C47.9216 160.562 47.8538 161.443 48.4639 161.917L50.9718 163.747L51.5818 166.798C51.7174 167.543 52.5308 167.814 53.1408 167.408L55.5809 165.51L58.6989 165.916C59.4445 165.984 59.9867 165.306 59.7834 164.629L58.7666 161.714L60.1223 158.867C60.3256 158.189 59.8512 157.444 59.1733 157.444Z" fill="#181818" stroke="#767676" stroke-miterlimit="10" stroke-linecap="round" stroke-linejoin="round"/>
<path d="M234.456 163.612L231.406 162.867L229.779 160.223C229.373 159.613 228.492 159.613 228.085 160.223L226.458 162.867L223.408 163.612C222.73 163.816 222.459 164.629 222.866 165.171L224.831 167.544L224.628 170.662C224.56 171.407 225.306 171.882 225.984 171.61L228.898 170.458L231.813 171.61C232.491 171.882 233.236 171.339 233.168 170.662L232.965 167.544L234.931 165.171C235.405 164.629 235.134 163.816 234.456 163.612Z" fill="#181818" stroke="#767676" stroke-miterlimit="10" stroke-linecap="round" stroke-linejoin="round"/>
<path d="M133.665 130.806L131.225 128.84L130.818 125.79C130.751 125.045 129.937 124.706 129.327 125.112L126.751 126.807L123.701 126.265C122.956 126.129 122.413 126.807 122.549 127.485L123.362 130.467L121.871 133.178C121.532 133.788 121.939 134.602 122.685 134.602L125.803 134.737L127.972 136.974C128.446 137.516 129.327 137.313 129.598 136.635L130.683 133.721L133.462 132.365C134.14 132.162 134.207 131.213 133.665 130.806Z" fill="#181818" stroke="#767676" stroke-miterlimit="10" stroke-linecap="round" stroke-linejoin="round"/>
<path d="M201.311 122.13L198.464 120.91L197.244 118.063C196.973 117.385 196.092 117.249 195.617 117.792L193.584 120.164L190.466 120.435C189.72 120.503 189.314 121.316 189.72 121.926L191.347 124.57L190.669 127.62C190.534 128.298 191.144 128.976 191.822 128.772L194.804 128.094L197.448 129.653C198.058 129.992 198.871 129.586 198.939 128.908L199.21 125.79L201.514 123.756C202.124 123.282 201.989 122.401 201.311 122.13Z" fill="#181818" stroke="#767676" stroke-miterlimit="10" stroke-linecap="round" stroke-linejoin="round"/>
</g>
<defs>
<clipPath id="clip0_18_335">
<rect width="304" height="288.004" fill="white" transform="translate(0 113.996)"/>
</clipPath>
</defs>
</svg>
