<svg width="253" height="349" viewBox="0 0 253 349" fill="none" xmlns="http://www.w3.org/2000/svg">
<path d="M162.772 93.1553V194.371H8.58862V93.1553H162.772Z" fill="#595959" stroke="#181818" stroke-width="2"/>
<path d="M163.772 92.1553H7.58862V195.372H163.772V92.1553Z" stroke="#595959" stroke-width="2" stroke-miterlimit="10" stroke-linecap="round" stroke-linejoin="round"/>
<path d="M104.391 112.04C100.852 111.082 97.7415 111.588 95.9377 112.04C96.4956 108.109 94.6612 104.415 91.5504 102.914C88.8676 101.619 86.1924 102.416 85.1988 102.783C87.1478 101.956 88.5236 100.209 88.7835 98.1857C89.0969 95.726 87.6141 93.9559 87.3313 93.6341C88.2179 92.477 88.2943 91.0901 87.7211 90.3391C87.1784 89.6265 85.9708 89.4043 84.7784 89.7108C85.367 87.3814 84.3275 84.9906 82.3631 83.9255C80.1236 82.7071 77.1275 83.481 75.6447 85.8182C75.6676 84.1477 74.6587 82.6382 73.1224 82.0328C71.5402 81.4045 69.7134 81.8719 68.6052 83.1899C66.1211 79.3126 61.6115 77.213 57.0561 77.826C52.4701 78.439 48.6485 81.6956 47.2956 86.14C43.2905 85.2128 39.4612 86.799 37.9555 89.7185C37.0306 91.5039 37.2064 93.3582 37.4434 94.4463C37.4281 94.4463 37.4051 94.4463 37.3899 94.4463C34.5542 93.0058 31.3975 93.6264 29.9147 95.5881C28.6383 97.2662 29.0128 99.3658 29.1045 99.8255C24.809 100.944 21.7058 103.726 21.6294 106.507C21.5147 110.722 28.3708 113.22 30.0829 113.841C34.1567 115.327 37.8332 114.998 39.8357 114.653C40.2638 115.542 42.5491 120.086 47.9682 121.986C53.9911 124.101 59.0892 121.273 59.8383 120.844C61.0077 121.817 64.8599 124.783 70.5695 124.921C75.102 125.028 78.4421 123.304 79.8332 122.476C80.3911 122.974 83.7313 125.863 88.6154 125.411C92.7504 125.028 95.288 122.499 95.93 121.825C97.2829 122.155 99.3007 122.545 101.785 122.637C102.549 122.668 112.959 123.013 113.815 119.863C114.48 117.45 109.375 113.396 104.391 112.04Z" fill="#D84040" stroke="#181818" stroke-width="2" stroke-miterlimit="10" stroke-linecap="round" stroke-linejoin="round"/>
<path d="M75.0485 101.404C74.0549 101.411 71.3415 101.557 68.8269 103.48C64.8982 106.499 64.8065 111.296 64.8065 111.917C61.1224 108.76 60.0829 104.124 61.6345 101.526C63.5377 98.3539 70.0039 97.0895 75.0485 101.404Z" fill="#D84040" stroke="#181818" stroke-width="2" stroke-miterlimit="10" stroke-linecap="round" stroke-linejoin="round"/>
<path d="M28.7453 99.9253C27.9351 100.163 27.1479 100.454 26.3912 100.83C23.953 102.025 22.2256 103.795 21.767 105.642C23.1504 106.592 24.7631 107.542 26.6358 108.385C32.6663 111.09 38.1772 111.235 41.2651 111.075C42.167 111.802 43.5963 112.776 45.53 113.396C46.1644 113.603 52.6612 115.611 55.2829 112.415C57.2855 109.979 56.6816 104.937 52.8447 101.167C56.2765 101.366 60.3198 98.9292 59.3415 94.3162C67.9785 93.6879 67.8027 86.7378 65.1504 84.6689C65.6167 84.6153 66.2434 84.6 66.9313 84.7762C68.9339 85.2819 69.9657 86.9294 70.2179 87.3738C70.0039 86.5769 69.66 84.9294 68.6052 83.1977C66.1211 79.3204 61.6116 77.2208 57.0562 77.8338C52.4702 78.4468 48.6485 81.7035 47.2956 86.1478C43.2905 85.2206 39.4612 86.8068 37.9555 89.7263C37.0307 91.5117 37.2065 93.3661 37.4434 94.4542C37.4281 94.4542 37.4052 94.4542 37.3899 94.4542C32.781 92.1554 28.0803 95.1055 29.0969 99.8334C28.9975 99.8487 28.8676 99.887 28.7453 99.9253Z" fill="#D84040" stroke="#181818" stroke-width="2" stroke-miterlimit="10" stroke-linecap="round" stroke-linejoin="round"/>
<path d="M41.6472 96.2006C42.0064 95.4267 42.8472 93.8865 44.5899 92.7601C47.7695 90.6911 51.2701 91.7486 51.7975 91.9172C51.8052 91.58 51.9275 87.1893 55.2982 85.2506C56.4752 84.5687 57.6523 84.4231 58.4472 84.4077C58.1644 84.3005 55.0153 83.1741 52.2867 85.1127C50.437 86.423 49.902 88.3464 49.7644 88.8981C49.4892 88.8521 45.8587 88.3387 43.3975 91.0743C41.5173 93.1662 41.6166 95.7025 41.6472 96.2006Z" fill="#D84040" stroke="#181818" stroke-width="2" stroke-miterlimit="10" stroke-linecap="round" stroke-linejoin="round"/>
<path d="M81.6982 169.556C82.2714 166.805 89.0434 165.954 92.2536 165.862C95.3415 165.77 97.8638 166.299 99.4995 166.751C98.4141 164.674 98.5593 162.199 99.8816 160.376C101.548 158.077 104.261 157.962 104.582 157.954C104.154 156.636 104.697 155.196 105.851 154.514C106.929 153.878 108.327 154.031 109.283 154.897C109.199 152.851 110.422 151.035 112.21 150.437C114.427 149.694 116.307 151.249 116.406 151.326C116.643 150.759 117.431 149.081 119.334 148.016C121.856 146.598 124.371 147.364 124.799 147.502C125.319 146.039 126.496 143.403 129.125 141.388C133.635 137.909 141.064 137.296 145.528 141.388C148.226 143.855 148.891 147.181 149.089 148.782C150.32 148.23 152.468 147.464 155.189 147.51C161.609 147.61 165.568 152.108 165.996 152.606C170.192 157.541 169.428 163.349 169.298 164.207C170.911 163.272 173.502 162.085 176.796 161.916C183.232 161.579 190.271 165.203 190.149 168.161C190.042 170.728 184.539 172.644 181.122 173.134C176.705 173.762 173.135 172.391 171.461 171.602C170.116 173.218 167.349 176.061 162.947 177.594C153.95 180.72 145.978 175.632 144.893 174.919C143.663 175.916 138.083 180.222 130.019 179.632C122.903 179.111 118.34 175.111 117.049 173.893C114.74 175.211 111.813 176.552 108.274 177.463C106.119 178.015 94.5848 180.981 85.8944 174.912C84.6638 174.046 81.2549 171.671 81.6982 169.556Z" fill="#D84040" stroke="#181818" stroke-width="2" stroke-miterlimit="10" stroke-linecap="round" stroke-linejoin="round"/>
<path d="M149.846 150.943C148.707 151.61 146.345 152.989 146.162 155.15C145.902 158.185 150.121 160.729 152.903 161.648C155.854 162.621 161.54 163.204 163.329 159.993C165.003 156.974 162.465 152.016 158.75 150.177C154.86 148.261 150.878 150.346 149.846 150.943Z" fill="#D84040" stroke="#181818" stroke-width="2" stroke-miterlimit="10" stroke-linecap="round" stroke-linejoin="round"/>
<path d="M140.903 142.491C140.108 140.59 138.534 139.372 136.891 138.575C134.063 138.736 131.265 139.732 129.125 141.38C126.503 143.403 125.319 146.039 124.799 147.495C124.371 147.357 121.856 146.583 119.334 148.008C117.438 149.073 116.644 150.759 116.407 151.318C116.307 151.234 114.427 149.686 112.21 150.429C110.43 151.027 109.207 152.843 109.283 154.889C108.328 154.023 106.929 153.87 105.851 154.506C104.689 155.188 104.147 156.628 104.582 157.946C104.254 157.954 101.54 158.069 99.8817 160.368C98.5594 162.192 98.4142 164.667 99.4996 166.743C97.8639 166.291 95.3416 165.762 92.2537 165.854C91.4588 165.877 90.4346 165.946 89.3492 166.084C89.2499 166.843 89.2881 167.678 89.6244 168.49C90.9314 171.609 95.7543 172.107 98.6053 172.398C102.106 172.758 108.939 172.812 117.675 168.49C118.195 168.866 119.533 169.732 121.153 169.509C123.5 169.195 125.54 166.743 125.731 163.479C127.94 165.057 130.921 165.011 133.023 163.395C134.98 161.885 135.828 159.287 135.14 156.851C135.331 156.851 138.916 156.812 140.819 153.709C142.646 150.728 141.263 147.648 141.156 147.418C141.438 146.284 141.706 144.391 140.903 142.491Z" fill="#D84040" stroke="#181818" stroke-width="2" stroke-miterlimit="10" stroke-linecap="round" stroke-linejoin="round"/>
<path d="M169.78 114.706C168.778 114.89 167.915 115.143 167.204 115.388C168.106 115.036 168.97 114.653 169.78 114.239V100.155C169.413 100.278 169.046 100.423 168.687 100.599C170.246 96.5842 168.908 92.5153 166.172 91.0288C163.91 89.8027 161.38 90.7069 160.822 90.9215C160.592 90.6533 159.217 89.1054 156.939 89.0288C154.203 88.9292 152.575 91.0441 152.429 91.2357C149.563 90.5384 146.682 91.6341 145.291 93.8639C143.846 96.1857 144.641 98.7298 144.763 99.1206C144.075 98.929 142.776 98.6838 141.301 99.1206C138.014 100.086 136.898 103.511 136.791 103.856C135.507 103.373 132.847 102.584 129.652 103.228C128.628 103.435 122.33 104.707 121.359 109.542C120.687 112.898 122.911 116.346 125.77 117.955C129.637 120.132 133.627 118.369 134.063 118.162C134.116 119.35 134.452 123.258 137.418 125.84C141.278 129.197 148.111 129.028 153.469 124.683C153.897 124.959 158.055 127.495 162.702 125.633C166.226 124.216 167.716 121.204 168.052 120.476C168.259 120.691 168.855 121.258 169.78 121.725V114.706Z" fill="#D84040" stroke="#181818" stroke-width="2" stroke-miterlimit="10" stroke-linecap="round" stroke-linejoin="round"/>
<path d="M159.454 94.6995C161.364 93.849 163.115 94.1401 163.757 94.2781C163.764 93.5348 163.696 92.5923 163.443 91.5425C163.344 91.1364 163.229 90.7609 163.107 90.4084C162.006 90.485 161.128 90.7992 160.822 90.9142C160.592 90.646 159.217 89.0981 156.939 89.0215C154.203 88.9295 152.575 91.0368 152.429 91.2283C149.563 90.531 146.682 91.6268 145.291 93.8566C143.846 96.1784 144.641 98.7224 144.763 99.1132C144.075 98.9217 142.776 98.6764 141.301 99.1132C138.014 100.079 136.898 103.504 136.791 103.849C135.507 103.366 132.847 102.577 129.652 103.22C128.75 103.404 123.706 104.423 121.887 108.017C122.322 108.684 122.865 109.351 123.561 109.956C126.771 112.745 131.777 113.128 136.47 111.113C136.822 110.638 138.664 108.262 142.034 107.749C145.077 107.289 147.347 108.646 147.912 109.013C148.348 108.278 150.198 105.389 153.996 104.171C158.085 102.868 161.479 104.454 162.182 104.799C161.823 103.971 161.166 102.73 159.981 101.535C158.376 99.9101 156.626 99.2052 155.678 98.9063C155.823 98.4619 156.74 95.9102 159.454 94.6995Z" fill="#D84040" stroke="#181818" stroke-width="2" stroke-miterlimit="10" stroke-linecap="round" stroke-linejoin="round"/>
<path d="M64.3172 158.123C65.5172 154.774 64.8217 151.073 62.4981 148.56C59.6242 145.449 55.6268 145.641 55.0841 145.679C55.0306 145.319 54.3351 141.28 50.544 139.457C47.3643 137.932 44.3682 139.104 43.8866 139.304C43.3593 134.484 40.0268 130.583 35.7159 129.595C30.8013 128.461 26.9338 131.641 26.4828 132.024C26.1236 131.426 24.4038 128.752 20.8803 127.779C17.5783 126.867 14.8879 128.062 14.2229 128.384C13.749 128.078 13.2599 127.802 12.7631 127.557V186.82C14.4446 187.609 16.3096 187.946 18.1516 187.716C22.3172 187.203 24.679 184.069 25.1147 183.471C25.5427 183.992 27.5682 186.36 30.7172 186.506C34.279 186.674 37.8408 183.923 39.0408 179.678C42.9465 182.123 47.8535 182.245 51.7516 179.985C57.1631 176.851 57.7593 170.82 57.8051 170.276C59.2956 170.345 64.944 170.437 68.3988 166.483C69.186 165.587 71.0357 163.464 70.3631 161.326C69.7745 159.395 67.3363 158.039 64.3172 158.123Z" fill="#D84040" stroke="#181818" stroke-width="2" stroke-miterlimit="10" stroke-linecap="round" stroke-linejoin="round"/>
<path d="M47.0662 171.633C44.7044 171.472 42.8777 170.529 41.7694 169.809C41.3872 168.882 40.172 166.307 37.535 165.257C35.0127 164.254 31.8331 164.897 29.1732 166.966C29.8153 165.487 29.9605 163.87 29.5172 162.376C28.6153 159.342 25.6879 158.139 25.2828 157.978C27.056 155.488 27.1707 152.216 25.5885 149.786C23.5554 146.66 19.8102 146.599 19.535 146.599C20.1847 144.645 19.5044 142.492 17.8688 141.289C16.3783 140.193 14.3758 140.101 12.7783 140.99V186.82C14.4598 187.609 16.3248 187.947 18.1669 187.717C22.3325 187.203 24.6942 184.069 25.1299 183.472C25.5579 183.993 27.5834 186.36 30.7325 186.506C34.2943 186.675 37.856 183.924 39.056 179.679C42.9618 182.123 47.8688 182.246 51.7669 179.985C56.3376 177.341 57.4764 172.621 57.7439 170.897C57.8204 169.273 57.8968 167.648 57.9732 166.031C57.5758 166.537 53.3949 172.07 47.0662 171.633Z" fill="#D84040" stroke="#181818" stroke-width="2" stroke-miterlimit="10" stroke-linecap="round" stroke-linejoin="round"/>
<path d="M56.2994 20.4092L99.9428 69.1055" stroke="#595959" stroke-width="2"/>
<path d="M56.2994 20.4092L99.9428 69.1055" stroke="#595959" stroke-width="2" stroke-miterlimit="10" stroke-linecap="round" stroke-linejoin="round"/>
<path d="M172.226 9.4209L139.206 67.6036" stroke="#595959" stroke-width="2"/>
<path d="M172.226 9.4209L139.206 67.6036" stroke="#595959" stroke-width="2" stroke-miterlimit="10" stroke-linecap="round" stroke-linejoin="round"/>
<path d="M53.2955 21.567C55.7777 21.567 57.7898 19.5497 57.7898 17.0613C57.7898 14.5729 55.7777 12.5557 53.2955 12.5557C50.8134 12.5557 48.8013 14.5729 48.8013 17.0613C48.8013 19.5497 50.8134 21.567 53.2955 21.567Z" stroke="#595959" stroke-width="2" stroke-miterlimit="10" stroke-linecap="round" stroke-linejoin="round"/>
<path d="M174.45 10.0113C176.932 10.0113 178.944 7.99406 178.944 5.50566C178.944 3.01725 176.932 1 174.45 1C171.968 1 169.956 3.01725 169.956 5.50566C169.956 7.99406 171.968 10.0113 174.45 10.0113Z" stroke="#595959" stroke-width="2" stroke-miterlimit="10" stroke-linecap="round" stroke-linejoin="round"/>
<path d="M99.8584 65.0254H138.243C140.799 65.0254 142.877 67.104 142.877 69.6729V74.7031H95.2256V69.6729C95.2256 67.1041 97.3024 65.0256 99.8584 65.0254Z" fill="#212121" stroke="#595959" stroke-width="2"/>
<path d="M143.877 75.7033H94.2256V69.6728C94.2256 66.5541 96.7479 64.0254 99.8587 64.0254H138.243C141.354 64.0254 143.877 66.5541 143.877 69.6728V75.7033Z" stroke="#595959" stroke-width="2" stroke-miterlimit="10" stroke-linecap="round" stroke-linejoin="round"/>
<path d="M107.876 67.6152H128.376C128.517 67.6154 128.637 67.7326 128.637 67.8799C128.637 68.0271 128.517 68.1434 128.376 68.1436H107.876C107.735 68.1433 107.616 68.027 107.615 67.8799C107.615 67.7326 107.735 67.6155 107.876 67.6152Z" fill="#D84040" stroke="#595959" stroke-width="2"/>
<path d="M99.8583 67.6152H103.061C103.202 67.6153 103.322 67.7325 103.322 67.8799C103.322 68.0271 103.202 68.1435 103.061 68.1436H99.8583C99.7177 68.1433 99.5977 68.027 99.5975 67.8799C99.5975 67.7326 99.7176 67.6155 99.8583 67.6152Z" fill="#D84040" stroke="#595959" stroke-width="2"/>
<path d="M51.5924 212.019V217.524C51.5923 218.928 50.4555 220.064 49.0612 220.064H25.153C23.7587 220.064 22.6218 218.928 22.6217 217.524V212.019H51.5924Z" fill="#212121" stroke="#181818" stroke-width="2"/>
<path d="M49.0612 221.064H25.1529C23.2039 221.064 21.6217 219.478 21.6217 217.524V211.019H52.5924V217.524C52.5924 219.478 51.0102 221.064 49.0612 221.064Z" stroke="#181818" stroke-width="2" stroke-miterlimit="10" stroke-linecap="round" stroke-linejoin="round"/>
<path d="M174.451 212.019V217.524C174.443 218.93 173.304 220.064 171.912 220.064H148.011C146.617 220.064 145.48 218.928 145.48 217.524V212.019H174.451Z" fill="#212121" stroke="#181818" stroke-width="2"/>
<path d="M171.912 221.064H148.011C146.062 221.064 144.48 219.478 144.48 217.524V211.019H175.451V217.524C175.443 219.478 173.861 221.064 171.912 221.064Z" stroke="#181818" stroke-width="2" stroke-miterlimit="10" stroke-linecap="round" stroke-linejoin="round"/>
<path d="M13.0762 75.332H183.988C189.916 75.332 194.76 79.9947 195.051 85.8662L195.065 86.4375V201.096C195.065 207.228 190.106 212.203 183.988 212.203H13.0762C6.95835 212.203 2 207.235 2 201.096V86.4395C2 80.4915 6.65367 75.6436 12.5068 75.3467L13.0762 75.332ZM36.9775 97.8906C28.3748 97.8906 21.4092 104.877 21.4092 113.488V174.039C21.4093 182.658 28.3825 189.644 36.9775 189.644H134.384C142.987 189.643 149.951 182.65 149.951 174.039V113.488C149.951 104.877 142.978 97.8908 134.384 97.8906H36.9775Z" fill="#D84040" stroke="#181818" stroke-width="2"/>
<path d="M183.989 74.332H13.0764C6.40382 74.332 1 79.7495 1 86.4391V201.096C1 207.785 6.40382 213.203 13.0764 213.203H183.989C190.661 213.203 196.065 207.778 196.065 201.096V86.4391C196.073 79.7495 190.661 74.332 183.989 74.332ZM148.952 174.039C148.952 182.1 142.432 188.644 134.383 188.644H36.9771C28.9363 188.644 22.4089 182.108 22.4089 174.039V113.488C22.4089 105.427 28.9287 98.8909 36.9771 98.8909H134.383C142.424 98.8909 148.952 105.427 148.952 113.488V174.039Z" stroke="#181818" stroke-width="2" stroke-miterlimit="10" stroke-linecap="round" stroke-linejoin="round"/>
<path d="M55.9477 94.4694L41.0204 74.3242H22.0038L36.9312 94.4694H55.9477Z" fill="#D84040" stroke="#181818" stroke-width="2" stroke-miterlimit="10" stroke-linecap="round" stroke-linejoin="round"/>
<path d="M18.7249 91.8223H152.636C154.499 91.8225 156.008 93.3283 156.008 95.1973V192.345C156.008 194.215 154.49 195.728 152.636 195.729H18.7249C16.8654 195.729 15.3528 194.21 15.3528 192.345V95.2051C15.3529 93.3348 16.8708 91.8223 18.7249 91.8223ZM36.9768 97.8906C28.3742 97.8907 21.4086 104.877 21.4084 113.488V174.039C21.4085 182.658 28.3818 189.643 36.9768 189.644H134.383C142.986 189.644 149.951 182.65 149.951 174.039V113.488C149.951 104.877 142.978 97.8906 134.383 97.8906H36.9768Z" fill="#767676" stroke="#767676" stroke-width="2"/>
<path d="M152.636 90.8223H18.7248C16.3171 90.8223 14.3528 92.7839 14.3528 95.2053V192.345C14.3528 194.759 16.3095 196.728 18.7248 196.728H152.636C155.043 196.728 157.008 194.767 157.008 192.345V95.1977C157.008 92.7762 155.051 90.8223 152.636 90.8223ZM148.952 174.039C148.952 182.1 142.432 188.644 134.383 188.644H36.977C28.9362 188.644 22.4088 182.108 22.4088 174.039V113.488C22.4088 105.427 28.9286 98.8911 36.977 98.8911H134.383C142.424 98.8911 148.952 105.427 148.952 113.488V174.039Z" stroke="#181818" stroke-width="2" stroke-miterlimit="10" stroke-linecap="round" stroke-linejoin="round"/>
<path d="M176.467 93.1396C182.402 93.1396 187.238 97.9775 187.238 103.94C187.238 109.896 182.402 114.74 176.467 114.74C170.533 114.74 165.697 109.896 165.697 103.94C165.697 97.9848 170.533 93.1398 176.467 93.1396Z" fill="#D84040" stroke="#181818" stroke-width="2"/>
<path d="M176.468 92.1396C169.978 92.1396 164.697 97.4346 164.697 103.94C164.697 110.446 169.978 115.741 176.468 115.741C182.957 115.741 188.238 110.446 188.238 103.94C188.238 97.4269 182.957 92.1396 176.468 92.1396Z" stroke="#181818" stroke-width="2" stroke-miterlimit="10" stroke-linecap="round" stroke-linejoin="round"/>
<path d="M176.467 95.1318C181.312 95.1318 185.244 99.0698 185.244 103.933C185.243 108.795 181.311 112.733 176.467 112.733C171.623 112.733 167.692 108.795 167.692 103.933C167.692 99.0699 171.623 95.1321 176.467 95.1318Z" fill="#212121" stroke="#181818" stroke-width="2"/>
<path d="M176.468 113.733C181.867 113.733 186.243 109.345 186.243 103.932C186.243 98.5197 181.867 94.1318 176.468 94.1318C171.069 94.1318 166.692 98.5197 166.692 103.932C166.692 109.345 171.069 113.733 176.468 113.733Z" stroke="#181818" stroke-width="2" stroke-miterlimit="10" stroke-linecap="round" stroke-linejoin="round"/>
<path d="M176.468 99.0781C179.138 99.0783 181.307 101.249 181.307 103.933C181.307 106.616 179.138 108.787 176.468 108.787C173.798 108.787 171.628 106.616 171.628 103.933C171.628 101.249 173.798 99.0781 176.468 99.0781Z" fill="#D84040" stroke="#181818" stroke-width="2"/>
<path d="M176.468 109.787C179.693 109.787 182.307 107.166 182.307 103.932C182.307 100.699 179.693 98.0781 176.468 98.0781C173.242 98.0781 170.628 100.699 170.628 103.932C170.628 107.166 173.242 109.787 176.468 109.787Z" stroke="#181818" stroke-width="2" stroke-miterlimit="10" stroke-linecap="round" stroke-linejoin="round"/>
<path d="M168.847 125.694C173.053 121.477 179.874 121.477 184.08 125.694C188.287 129.911 188.287 136.749 184.08 140.967C179.874 145.184 173.053 145.183 168.847 140.966C164.64 136.749 164.64 129.912 168.847 125.694Z" fill="#D84040" stroke="#181818" stroke-width="2"/>
<path d="M184.787 141.674C189.384 137.066 189.384 129.594 184.787 124.986C180.19 120.378 172.738 120.378 168.141 124.986C163.544 129.594 163.544 137.066 168.141 141.674C172.738 146.283 180.19 146.283 184.787 141.674Z" stroke="#181818" stroke-width="2" stroke-miterlimit="10" stroke-linecap="round" stroke-linejoin="round"/>
<path d="M170.258 127.108C173.685 123.672 179.242 123.672 182.67 127.108C186.098 130.544 186.098 136.116 182.67 139.552C179.242 142.988 173.685 142.988 170.258 139.552C166.83 136.116 166.83 130.544 170.258 127.108Z" fill="#212121" stroke="#181818" stroke-width="2"/>
<path d="M183.376 140.26C187.194 136.433 187.194 130.227 183.376 126.4C179.559 122.573 173.369 122.573 169.551 126.4C165.734 130.227 165.734 136.433 169.551 140.26C173.369 144.087 179.559 144.087 183.376 140.26Z" stroke="#181818" stroke-width="2" stroke-miterlimit="10" stroke-linecap="round" stroke-linejoin="round"/>
<path d="M173.041 129.899C174.931 128.004 177.996 128.004 179.886 129.899C181.777 131.794 181.777 134.866 179.886 136.761C177.996 138.657 174.931 138.657 173.041 136.761C171.151 134.866 171.151 131.794 173.041 129.899Z" fill="#D84040" stroke="#181818" stroke-width="2"/>
<path d="M180.593 137.47C182.873 135.183 182.873 131.477 180.593 129.191C178.312 126.904 174.615 126.904 172.335 129.191C170.054 131.477 170.054 135.183 172.335 137.47C174.615 139.756 178.312 139.756 180.593 137.47Z" stroke="#181818" stroke-width="2" stroke-miterlimit="10" stroke-linecap="round" stroke-linejoin="round"/>
<mask id="path-45-inside-1_876_12183" fill="white">
<path d="M186.068 151.434H166.875C164.299 151.434 162.205 153.533 162.205 156.115V190.214C162.205 192.797 164.299 194.896 166.875 194.896H186.068C188.643 194.896 190.738 192.797 190.738 190.214V156.115C190.738 153.533 188.643 151.434 186.068 151.434ZM189.576 190.214C189.576 192.161 188.001 193.739 186.06 193.739H166.868C164.926 193.739 163.352 192.161 163.352 190.214V156.115C163.352 154.169 164.926 152.591 166.868 152.591H186.06C188.001 152.591 189.576 154.169 189.576 156.115V190.214Z"/>
</mask>
<path d="M186.068 151.434H166.875C164.299 151.434 162.205 153.533 162.205 156.115V190.214C162.205 192.797 164.299 194.896 166.875 194.896H186.068C188.643 194.896 190.738 192.797 190.738 190.214V156.115C190.738 153.533 188.643 151.434 186.068 151.434ZM189.576 190.214C189.576 192.161 188.001 193.739 186.06 193.739H166.868C164.926 193.739 163.352 192.161 163.352 190.214V156.115C163.352 154.169 164.926 152.591 166.868 152.591H186.06C188.001 152.591 189.576 154.169 189.576 156.115V190.214Z" fill="#212121"/>
<path d="M186.068 149.434H166.875V153.434H186.068V149.434ZM166.875 149.434C163.19 149.434 160.205 152.433 160.205 156.115H164.205C164.205 154.633 165.409 153.434 166.875 153.434V149.434ZM160.205 156.115V190.214H164.205V156.115H160.205ZM160.205 190.214C160.205 193.897 163.19 196.896 166.875 196.896V192.896C165.409 192.896 164.205 191.697 164.205 190.214H160.205ZM166.875 196.896H186.068V192.896H166.875V196.896ZM186.068 196.896C189.753 196.896 192.738 193.897 192.738 190.214H188.738C188.738 191.697 187.534 192.896 186.068 192.896V196.896ZM192.738 190.214V156.115H188.738V190.214H192.738ZM192.738 156.115C192.738 152.433 189.753 149.434 186.068 149.434V153.434C187.534 153.434 188.738 154.633 188.738 156.115H192.738ZM187.576 190.214C187.576 191.061 186.892 191.739 186.06 191.739V195.739C189.111 195.739 191.576 193.261 191.576 190.214H187.576ZM186.06 191.739H166.868V195.739H186.06V191.739ZM166.868 191.739C166.036 191.739 165.352 191.061 165.352 190.214H161.352C161.352 193.261 163.817 195.739 166.868 195.739V191.739ZM165.352 190.214V156.115H161.352V190.214H165.352ZM165.352 156.115C165.352 155.269 166.036 154.591 166.868 154.591V150.591C163.817 150.591 161.352 153.069 161.352 156.115H165.352ZM166.868 154.591H186.06V150.591H166.868V154.591ZM186.06 154.591C186.892 154.591 187.576 155.269 187.576 156.115H191.576C191.576 153.069 189.111 150.591 186.06 150.591V154.591ZM187.576 156.115V190.214H191.576V156.115H187.576Z" fill="#181818" mask="url(#path-45-inside-1_876_12183)"/>
<path d="M166.875 153.583H186.067C187.454 153.583 188.584 154.711 188.584 156.107V190.207C188.576 191.608 187.449 192.731 186.067 192.731H166.875C165.488 192.731 164.36 191.603 164.359 190.207V156.107C164.36 154.711 165.489 153.583 166.875 153.583Z" fill="#D84040" stroke="#181818" stroke-width="2"/>
<path d="M167.479 152.591V193.732" stroke="#181818" stroke-width="2" stroke-miterlimit="10" stroke-linecap="round" stroke-linejoin="round"/>
<path d="M172.111 152.591V193.732" stroke="#181818" stroke-width="2" stroke-miterlimit="10" stroke-linecap="round" stroke-linejoin="round"/>
<path d="M176.743 152.591V193.732" stroke="#181818" stroke-width="2" stroke-miterlimit="10" stroke-linecap="round" stroke-linejoin="round"/>
<path d="M181.375 152.591V193.732" stroke="#181818" stroke-width="2" stroke-miterlimit="10" stroke-linecap="round" stroke-linejoin="round"/>
<path d="M186.006 152.591V193.732" stroke="#181818" stroke-width="2" stroke-miterlimit="10" stroke-linecap="round" stroke-linejoin="round"/>
<path d="M189.576 189.426H163.359" stroke="#181818" stroke-width="2" stroke-miterlimit="10" stroke-linecap="round" stroke-linejoin="round"/>
<path d="M189.576 184.782H163.359" stroke="#181818" stroke-width="2" stroke-miterlimit="10" stroke-linecap="round" stroke-linejoin="round"/>
<path d="M189.576 180.131H163.359" stroke="#181818" stroke-width="2" stroke-miterlimit="10" stroke-linecap="round" stroke-linejoin="round"/>
<path d="M189.576 175.487H163.359" stroke="#181818" stroke-width="2" stroke-miterlimit="10" stroke-linecap="round" stroke-linejoin="round"/>
<path d="M189.576 170.836H163.359" stroke="#181818" stroke-width="2" stroke-miterlimit="10" stroke-linecap="round" stroke-linejoin="round"/>
<path d="M189.576 166.192H163.359" stroke="#181818" stroke-width="2" stroke-miterlimit="10" stroke-linecap="round" stroke-linejoin="round"/>
<path d="M189.576 161.541H163.359" stroke="#181818" stroke-width="2" stroke-miterlimit="10" stroke-linecap="round" stroke-linejoin="round"/>
<path d="M189.576 156.897H163.359" stroke="#181818" stroke-width="2" stroke-miterlimit="10" stroke-linecap="round" stroke-linejoin="round"/>
<path d="M38.651 112.14C40.6012 112.14 42.1822 110.555 42.1822 108.6C42.1822 106.645 40.6012 105.06 38.651 105.06C36.7007 105.06 35.1198 106.645 35.1198 108.6C35.1198 110.555 36.7007 112.14 38.651 112.14Z" fill="#D84040" stroke="#181818" stroke-width="2" stroke-miterlimit="10" stroke-linecap="round" stroke-linejoin="round"/>
<path d="M122.567 105.052H50.3453C48.3963 105.052 46.8141 106.638 46.8141 108.592C46.8141 110.546 48.3963 112.132 50.3453 112.132H122.567C124.516 112.132 126.098 110.546 126.098 108.592C126.098 106.638 124.516 105.052 122.567 105.052Z" fill="#D84040" stroke="#181818" stroke-width="2" stroke-miterlimit="10" stroke-linecap="round" stroke-linejoin="round"/>
<path d="M249.178 293.101C248.506 292.427 200.139 257.623 200.139 257.623L175.115 312.45C175.115 312.45 194.835 341.713 197.877 344.61C204.687 351.43 221.701 345.43 235.864 331.208C250.035 316.978 255.996 299.921 249.178 293.101Z" fill="#595959"/>
<path d="M249.178 293.101C248.506 292.427 200.139 257.623 200.139 257.623L175.115 312.45C175.115 312.45 194.835 341.713 197.877 344.61C204.687 351.43 221.701 345.43 235.864 331.208C250.035 316.978 255.996 299.921 249.178 293.101Z" stroke="#212121" stroke-width="2" stroke-miterlimit="10" stroke-linecap="round" stroke-linejoin="round"/>
<path d="M147.24 228.49C147.24 228.49 162.435 227.05 172.218 232.651C182.001 238.26 200.972 250.413 204.771 261.953C208.065 271.968 205.038 294.397 191.777 307.615C189.759 309.623 173.716 325.04 159.186 320.542C150.824 317.738 137.357 309.071 137.357 309.071L147.24 228.49Z" fill="#595959"/>
<path d="M187.879 311.117C181.833 316.09 170.085 323.921 159.186 320.542C150.824 317.738 137.357 309.071 137.357 309.071L147.232 228.49C147.232 228.49 162.427 227.05 172.21 232.651C181.994 238.26 200.964 250.413 204.763 261.953C205.68 264.735 206.108 268.474 205.963 272.704" fill="#595959"/>
<path d="M187.879 311.117C181.833 316.09 170.085 323.921 159.186 320.542C150.824 317.738 137.357 309.071 137.357 309.071L147.232 228.49C147.232 228.49 162.427 227.05 172.21 232.651C181.994 238.26 200.964 250.413 204.763 261.953C205.68 264.735 206.108 268.474 205.963 272.704" stroke="#212121" stroke-width="2" stroke-miterlimit="10" stroke-linecap="round" stroke-linejoin="round"/>
<path d="M163.099 298.519L128.712 316.68C124.264 319.032 118.753 317.316 116.406 312.856L110.75 302.09C108.404 297.631 110.116 292.106 114.564 289.753L148.952 271.593L163.099 298.519Z" fill="#595959"/>
<path d="M163.099 298.519L128.712 316.68C124.264 319.032 118.753 317.316 116.406 312.856L110.75 302.09C108.404 297.631 110.116 292.106 114.564 289.753L148.952 271.593L163.099 298.519Z" stroke="#212121" stroke-width="2" stroke-miterlimit="10" stroke-linecap="round" stroke-linejoin="round"/>
<path d="M150.19 288.068L111.92 294.864C106.967 295.746 102.243 292.435 101.364 287.47L99.2472 275.485C98.3682 270.52 101.67 265.784 106.623 264.903L144.893 258.106L150.19 288.068Z" fill="#595959"/>
<path d="M150.19 288.068L111.92 294.864C106.967 295.746 102.243 292.435 101.364 287.47L99.2472 275.485C98.3682 270.52 101.67 265.784 106.623 264.903L144.893 258.106L150.19 288.068Z" stroke="#212121" stroke-width="2" stroke-miterlimit="10" stroke-linecap="round" stroke-linejoin="round"/>
<path d="M140.727 264.206L101.869 265.202C96.8395 265.332 92.6586 261.348 92.5286 256.306L92.2153 244.137C92.0853 239.095 96.0598 234.904 101.089 234.773L139.948 233.777L140.727 264.206Z" fill="#595959"/>
<path d="M140.727 264.206L101.869 265.202C96.8395 265.332 92.6586 261.348 92.5286 256.306L92.2153 244.137C92.0853 239.095 96.0598 234.904 101.089 234.773L139.948 233.777L140.727 264.206Z" stroke="#212121" stroke-width="2" stroke-miterlimit="10" stroke-linecap="round" stroke-linejoin="round"/>
<path d="M169.199 301.868L134.452 314.442C132.167 315.27 129.652 314.082 128.827 311.791L95.2726 218.574C94.4471 216.283 95.6318 213.762 97.9172 212.935L132.664 200.36C134.949 199.532 137.464 200.72 138.289 203.011L171.843 296.228C172.661 298.519 171.476 301.048 169.199 301.868Z" fill="#212121"/>
<path d="M169.199 301.868L134.452 314.442C132.167 315.27 129.652 314.082 128.827 311.791L95.2726 218.574C94.4471 216.283 95.6318 213.762 97.9172 212.935L132.664 200.36C134.949 199.532 137.464 200.72 138.289 203.011L171.843 296.228C172.661 298.519 171.476 301.048 169.199 301.868Z" stroke="#212121" stroke-width="2" stroke-miterlimit="10" stroke-linecap="round" stroke-linejoin="round"/>
<path d="M173.724 300.236L138.977 312.81C136.692 313.638 134.177 312.45 133.352 310.159L99.7975 216.942C98.972 214.651 100.157 212.13 102.442 211.303L137.189 198.728C139.474 197.901 141.989 199.088 142.814 201.38L176.368 294.596C177.186 296.887 176.001 299.408 173.724 300.236Z" fill="#2F2F2F"/>
<path d="M173.724 300.236L138.977 312.81C136.692 313.638 134.177 312.45 133.352 310.159L99.7975 216.942C98.972 214.651 100.157 212.13 102.442 211.303L137.189 198.728C139.474 197.901 141.989 199.088 142.814 201.38L176.368 294.596C177.186 296.887 176.001 299.408 173.724 300.236Z" stroke="#212121" stroke-width="2" stroke-miterlimit="10" stroke-linecap="round" stroke-linejoin="round"/>
<path d="M115.268 218.75C116.032 220.865 116.085 222.804 114.037 223.662C113.976 223.685 112.814 224.107 112.745 224.13C110.567 224.919 108.167 223.785 107.38 221.601C106.592 219.417 107.724 217.011 109.902 216.222C110.001 216.183 111.018 215.808 111.125 215.777C113.219 215.202 114.519 216.666 115.268 218.75Z" fill="#212121"/>
<path d="M115.268 218.75C116.032 220.865 116.085 222.804 114.037 223.662C113.976 223.685 112.814 224.107 112.745 224.13C110.567 224.919 108.167 223.785 107.38 221.601C106.592 219.417 107.724 217.011 109.902 216.222C110.001 216.183 111.018 215.808 111.125 215.777C113.219 215.202 114.519 216.666 115.268 218.75Z" stroke="#595959" stroke-width="2" stroke-miterlimit="10" stroke-linecap="round" stroke-linejoin="round"/>
<path d="M126.901 217.256L121.268 219.295C120.564 219.547 119.792 219.187 119.54 218.482L118.73 216.222C118.478 215.517 118.837 214.743 119.54 214.49L125.173 212.452C125.876 212.199 126.648 212.559 126.901 213.264L127.711 215.525C127.971 216.23 127.604 217.003 126.901 217.256Z" fill="#212121"/>
<path d="M126.901 217.256L121.268 219.295C120.564 219.547 119.792 219.187 119.54 218.482L118.73 216.222C118.478 215.517 118.837 214.743 119.54 214.49L125.173 212.452C125.876 212.199 126.648 212.559 126.901 213.264L127.711 215.525C127.971 216.23 127.604 217.003 126.901 217.256Z" stroke="#595959" stroke-width="2" stroke-miterlimit="10" stroke-linecap="round" stroke-linejoin="round"/>
<path d="M138.939 212.896L133.306 214.934C132.603 215.187 131.831 214.827 131.578 214.122L130.768 211.862C130.516 211.157 130.875 210.383 131.578 210.13L137.211 208.092C137.915 207.839 138.687 208.199 138.939 208.904L139.749 211.164C140.001 211.869 139.642 212.643 138.939 212.896Z" fill="#212121"/>
<path d="M138.939 212.896L133.306 214.934C132.603 215.187 131.831 214.827 131.578 214.122L130.768 211.862C130.516 211.157 130.875 210.383 131.578 210.13L137.211 208.092C137.915 207.839 138.687 208.199 138.939 208.904L139.749 211.164C140.001 211.869 139.642 212.643 138.939 212.896Z" stroke="#595959" stroke-width="2" stroke-miterlimit="10" stroke-linecap="round" stroke-linejoin="round"/>
<path d="M116.332 221.522C117.317 219.419 116.415 216.914 114.317 215.926C112.22 214.938 109.721 215.842 108.736 217.945C107.751 220.048 108.652 222.554 110.75 223.541C112.847 224.529 115.346 223.625 116.332 221.522Z" fill="#767676"/>
<path d="M116.332 221.522C117.317 219.419 116.415 216.914 114.317 215.926C112.22 214.938 109.721 215.842 108.736 217.945C107.751 220.048 108.652 222.554 110.75 223.541C112.847 224.529 115.346 223.625 116.332 221.522Z" fill="#181818" stroke="#767676" stroke-width="2" stroke-miterlimit="10" stroke-linecap="round" stroke-linejoin="round"/>
<path d="M128.124 216.812L122.49 218.85C121.787 219.103 121.015 218.743 120.763 218.038L119.953 215.778C119.701 215.073 120.06 214.299 120.763 214.046L126.396 212.008C127.099 211.755 127.871 212.115 128.124 212.82L128.934 215.08C129.186 215.785 128.827 216.559 128.124 216.812Z" fill="#181818"/>
<path d="M128.124 216.812L122.49 218.85C121.787 219.103 121.015 218.743 120.763 218.038L119.953 215.778C119.701 215.073 120.06 214.299 120.763 214.046L126.396 212.008C127.099 211.755 127.871 212.115 128.124 212.82L128.934 215.08C129.186 215.785 128.827 216.559 128.124 216.812Z" stroke="#767676" stroke-width="2" stroke-miterlimit="10" stroke-linecap="round" stroke-linejoin="round"/>
<path d="M140.162 212.459L134.529 214.498C133.825 214.751 133.053 214.39 132.801 213.686L131.991 211.425C131.739 210.72 132.098 209.946 132.801 209.693L138.434 207.655C139.138 207.402 139.91 207.762 140.162 208.467L140.972 210.728C141.224 211.433 140.865 212.207 140.162 212.459Z" fill="#181818"/>
<path d="M140.162 212.459L134.529 214.498C133.825 214.751 133.053 214.39 132.801 213.686L131.991 211.425C131.739 210.72 132.098 209.946 132.801 209.693L138.434 207.655C139.138 207.402 139.91 207.762 140.162 208.467L140.972 210.728C141.224 211.433 140.865 212.207 140.162 212.459Z" stroke="#767676" stroke-width="2" stroke-miterlimit="10" stroke-linecap="round" stroke-linejoin="round"/>
<path d="M143.059 222.758L112.623 233.769C112.203 233.922 111.736 233.7 111.584 233.279L110.827 231.171C110.674 230.75 110.896 230.282 111.316 230.129L141.752 219.118C142.172 218.965 142.638 219.187 142.791 219.608L143.548 221.716C143.701 222.145 143.487 222.604 143.059 222.758Z" fill="#212121"/>
<path d="M143.059 222.758L112.623 233.769C112.203 233.922 111.736 233.7 111.584 233.279L110.827 231.171C110.674 230.75 110.896 230.282 111.316 230.129L141.752 219.118C142.172 218.965 142.638 219.187 142.791 219.608L143.548 221.716C143.701 222.145 143.487 222.604 143.059 222.758Z" stroke="#212121" stroke-width="2" stroke-miterlimit="10" stroke-linecap="round" stroke-linejoin="round"/>
<path d="M145.925 230.72L115.489 241.731C115.069 241.884 114.603 241.662 114.45 241.24L113.693 239.133C113.54 238.712 113.762 238.244 114.182 238.091L144.618 227.08C145.038 226.927 145.505 227.149 145.657 227.57L146.414 229.677C146.567 230.099 146.345 230.566 145.925 230.72Z" fill="#212121"/>
<path d="M145.925 230.72L115.489 241.731C115.069 241.884 114.603 241.662 114.45 241.24L113.693 239.133C113.54 238.712 113.762 238.244 114.182 238.091L144.618 227.08C145.038 226.927 145.505 227.149 145.657 227.57L146.414 229.677C146.567 230.099 146.345 230.566 145.925 230.72Z" stroke="#212121" stroke-width="2" stroke-miterlimit="10" stroke-linecap="round" stroke-linejoin="round"/>
<path d="M148.791 238.674L118.355 249.685C117.935 249.838 117.469 249.616 117.316 249.195L116.559 247.087C116.406 246.666 116.628 246.198 117.048 246.045L147.484 235.034C147.905 234.881 148.371 235.103 148.524 235.524L149.28 237.632C149.426 238.053 149.212 238.52 148.791 238.674Z" fill="#212121"/>
<path d="M148.791 238.674L118.355 249.685C117.935 249.838 117.469 249.616 117.316 249.195L116.559 247.087C116.406 246.666 116.628 246.198 117.048 246.045L147.484 235.034C147.905 234.881 148.371 235.103 148.524 235.524L149.28 237.632C149.426 238.053 149.212 238.52 148.791 238.674Z" stroke="#212121" stroke-width="2" stroke-miterlimit="10" stroke-linecap="round" stroke-linejoin="round"/>
<path d="M144.282 222.321L113.846 233.332C113.426 233.486 112.959 233.263 112.806 232.842L112.05 230.735C111.897 230.313 112.119 229.846 112.539 229.693L142.975 218.681C143.395 218.528 143.861 218.75 144.014 219.172L144.771 221.279C144.924 221.7 144.702 222.168 144.282 222.321Z" fill="#767676"/>
<path d="M144.282 222.321L113.846 233.332C113.426 233.486 112.959 233.263 112.806 232.842L112.05 230.735C111.897 230.313 112.119 229.846 112.539 229.693L142.975 218.681C143.395 218.528 143.861 218.75 144.014 219.172L144.771 221.279C144.924 221.7 144.702 222.168 144.282 222.321Z" fill="#181818" stroke="#767676" stroke-width="2" stroke-miterlimit="10" stroke-linecap="round" stroke-linejoin="round"/>
<path d="M147.148 230.275L116.712 241.287C116.292 241.44 115.826 241.218 115.673 240.796L114.916 238.689C114.763 238.267 114.985 237.8 115.405 237.647L145.841 226.635C146.261 226.482 146.728 226.704 146.88 227.126L147.637 229.233C147.782 229.655 147.568 230.122 147.148 230.275Z" fill="#767676"/>
<path d="M147.148 230.275L116.712 241.287C116.292 241.44 115.826 241.218 115.673 240.796L114.916 238.689C114.763 238.267 114.985 237.8 115.405 237.647L145.841 226.635C146.261 226.482 146.728 226.704 146.88 227.126L147.637 229.233C147.782 229.655 147.568 230.122 147.148 230.275Z" fill="#181818" stroke="#767676" stroke-width="2" stroke-miterlimit="10" stroke-linecap="round" stroke-linejoin="round"/>
<path d="M150.006 238.228L119.571 249.24C119.15 249.393 118.684 249.171 118.531 248.749L117.774 246.642C117.622 246.221 117.843 245.753 118.264 245.6L148.699 234.589C149.12 234.435 149.586 234.658 149.739 235.079L150.496 237.186C150.648 237.608 150.434 238.075 150.006 238.228Z" fill="#767676"/>
<path d="M150.006 238.228L119.571 249.24C119.15 249.393 118.684 249.171 118.531 248.749L117.774 246.642C117.622 246.221 117.843 245.753 118.264 245.6L148.699 234.589C149.12 234.435 149.586 234.658 149.739 235.079L150.496 237.186C150.648 237.608 150.434 238.075 150.006 238.228Z" fill="#181818" stroke="#767676" stroke-width="2" stroke-miterlimit="10" stroke-linecap="round" stroke-linejoin="round"/>
<path d="M163.115 278.473L132.679 289.485C132.259 289.638 131.792 289.416 131.64 288.994L130.883 286.887C130.73 286.466 130.952 285.998 131.372 285.845L161.808 274.834C162.228 274.68 162.694 274.903 162.847 275.324L163.604 277.431C163.757 277.853 163.535 278.32 163.115 278.473Z" fill="#212121"/>
<path d="M163.115 278.473L132.679 289.485C132.259 289.638 131.792 289.416 131.64 288.994L130.883 286.887C130.73 286.466 130.952 285.998 131.372 285.845L161.808 274.834C162.228 274.68 162.694 274.903 162.847 275.324L163.604 277.431C163.757 277.853 163.535 278.32 163.115 278.473Z" stroke="#212121" stroke-width="2" stroke-miterlimit="10" stroke-linecap="round" stroke-linejoin="round"/>
<path d="M165.981 286.428L135.545 297.439C135.125 297.592 134.659 297.37 134.506 296.948L133.749 294.841C133.596 294.42 133.818 293.952 134.238 293.799L164.674 282.788C165.094 282.635 165.561 282.857 165.713 283.278L166.47 285.385C166.615 285.815 166.401 286.274 165.981 286.428Z" fill="#212121"/>
<path d="M165.981 286.428L135.545 297.439C135.125 297.592 134.659 297.37 134.506 296.948L133.749 294.841C133.596 294.42 133.818 293.952 134.238 293.799L164.674 282.788C165.094 282.635 165.561 282.857 165.713 283.278L166.47 285.385C166.615 285.815 166.401 286.274 165.981 286.428Z" stroke="#212121" stroke-width="2" stroke-miterlimit="10" stroke-linecap="round" stroke-linejoin="round"/>
<path d="M168.84 294.389L138.404 305.401C137.984 305.554 137.517 305.332 137.364 304.91L136.608 302.803C136.455 302.382 136.677 301.914 137.097 301.761L167.533 290.75C167.953 290.596 168.419 290.819 168.572 291.24L169.329 293.347C169.482 293.769 169.26 294.236 168.84 294.389Z" fill="#212121"/>
<path d="M168.84 294.389L138.404 305.401C137.984 305.554 137.517 305.332 137.364 304.91L136.608 302.803C136.455 302.382 136.677 301.914 137.097 301.761L167.533 290.75C167.953 290.596 168.419 290.819 168.572 291.24L169.329 293.347C169.482 293.769 169.26 294.236 168.84 294.389Z" stroke="#212121" stroke-width="2" stroke-miterlimit="10" stroke-linecap="round" stroke-linejoin="round"/>
<path d="M164.338 278.029L133.894 289.04C133.474 289.194 133.008 288.971 132.855 288.55L132.098 286.443C131.945 286.021 132.167 285.554 132.587 285.401L163.023 274.389C163.443 274.236 163.91 274.458 164.063 274.88L164.819 276.987C164.972 277.416 164.758 277.884 164.338 278.029Z" fill="#767676"/>
<path d="M164.338 278.029L133.894 289.04C133.474 289.194 133.008 288.971 132.855 288.55L132.098 286.443C131.945 286.021 132.167 285.554 132.587 285.401L163.023 274.389C163.443 274.236 163.91 274.458 164.063 274.88L164.819 276.987C164.972 277.416 164.758 277.884 164.338 278.029Z" fill="#181818" stroke="#767676" stroke-width="2" stroke-miterlimit="10" stroke-linecap="round" stroke-linejoin="round"/>
<path d="M167.196 285.991L136.761 297.002C136.34 297.156 135.874 296.933 135.721 296.512L134.964 294.405C134.812 293.983 135.033 293.516 135.454 293.363L165.889 282.351C166.31 282.198 166.776 282.42 166.929 282.842L167.685 284.949C167.838 285.37 167.617 285.838 167.196 285.991Z" fill="#767676"/>
<path d="M167.196 285.991L136.761 297.002C136.34 297.156 135.874 296.933 135.721 296.512L134.964 294.405C134.812 293.983 135.033 293.516 135.454 293.363L165.889 282.351C166.31 282.198 166.776 282.42 166.929 282.842L167.685 284.949C167.838 285.37 167.617 285.838 167.196 285.991Z" fill="#181818" stroke="#767676" stroke-width="2" stroke-miterlimit="10" stroke-linecap="round" stroke-linejoin="round"/>
<path d="M170.062 293.944L139.627 304.955C139.206 305.109 138.74 304.886 138.587 304.465L137.831 302.358C137.678 301.936 137.899 301.469 138.32 301.316L168.755 290.304C169.176 290.151 169.642 290.373 169.795 290.795L170.552 292.902C170.705 293.323 170.483 293.791 170.062 293.944Z" fill="#767676"/>
<path d="M170.062 293.944L139.627 304.955C139.206 305.109 138.74 304.886 138.587 304.465L137.831 302.358C137.678 301.936 137.899 301.469 138.32 301.316L168.755 290.304C169.176 290.151 169.642 290.373 169.795 290.795L170.552 292.902C170.705 293.323 170.483 293.791 170.062 293.944Z" fill="#181818" stroke="#767676" stroke-width="2" stroke-miterlimit="10" stroke-linecap="round" stroke-linejoin="round"/>
<path d="M144.557 275.592C137.28 278.228 129.224 274.427 126.595 267.132C123.966 259.837 127.757 251.753 135.033 249.125C142.31 246.489 150.366 250.29 152.995 257.585C155.624 264.879 151.833 272.956 144.557 275.592ZM137.555 256.136C134.131 257.378 132.35 261.178 133.589 264.611C134.827 268.044 138.618 269.829 142.042 268.588C145.466 267.347 147.247 263.546 146.009 260.113C144.771 256.68 140.98 254.895 137.555 256.136Z" fill="#212121"/>
<path d="M144.557 275.592C137.28 278.228 129.224 274.427 126.595 267.132C123.966 259.837 127.757 251.753 135.033 249.125C142.31 246.489 150.366 250.29 152.995 257.585C155.624 264.879 151.833 272.956 144.557 275.592ZM137.555 256.136C134.131 257.378 132.35 261.178 133.589 264.611C134.827 268.044 138.618 269.829 142.042 268.588C145.466 267.347 147.247 263.546 146.009 260.113C144.771 256.68 140.98 254.895 137.555 256.136Z" stroke="#212121" stroke-width="2" stroke-miterlimit="10" stroke-linecap="round" stroke-linejoin="round"/>
<path d="M139.336 255.485L136.814 248.481C129.538 251.117 125.754 259.194 128.376 266.489L135.362 263.96C134.131 260.527 135.912 256.726 139.336 255.485Z" fill="#181818"/>
<path d="M139.336 255.485L136.814 248.481C129.538 251.117 125.754 259.194 128.376 266.489L135.362 263.96C134.131 260.527 135.912 256.726 139.336 255.485Z" stroke="#212121" stroke-width="2" stroke-miterlimit="10" stroke-linecap="round" stroke-linejoin="round"/>
<path d="M147.79 259.47L154.776 256.941C152.146 249.646 144.09 245.853 136.814 248.481L139.336 255.485C142.76 254.251 146.552 256.037 147.79 259.47Z" fill="#767676"/>
<path d="M147.79 259.47L154.776 256.941C152.146 249.646 144.09 245.853 136.814 248.481L139.336 255.485C142.76 254.251 146.552 256.037 147.79 259.47Z" stroke="#212121" stroke-width="2" stroke-miterlimit="10" stroke-linecap="round" stroke-linejoin="round"/>
<path d="M147.79 259.469C149.028 262.902 147.247 266.703 143.823 267.944L146.345 274.948C153.622 272.312 157.405 264.235 154.784 256.94C154.776 256.94 147.79 259.469 147.79 259.469Z" fill="#767676"/>
<path d="M147.79 259.469C149.028 262.902 147.247 266.703 143.823 267.944L146.345 274.948C153.622 272.312 157.405 264.235 154.784 256.94C154.776 256.94 147.79 259.469 147.79 259.469Z" stroke="#212121" stroke-width="2" stroke-miterlimit="10" stroke-linecap="round" stroke-linejoin="round"/>
<path d="M135.369 263.96L128.383 266.489C131.013 273.784 139.069 277.577 146.345 274.948L143.823 267.945C140.399 269.178 136.608 267.393 135.369 263.96Z" fill="#181818"/>
<path d="M135.369 263.96L128.383 266.489C131.013 273.784 139.069 277.577 146.345 274.948L143.823 267.945C140.399 269.178 136.608 267.393 135.369 263.96Z" stroke="#212121" stroke-width="2" stroke-miterlimit="10" stroke-linecap="round" stroke-linejoin="round"/>
<path d="M201.507 266.221L171.759 241.287C169.459 239.364 166.287 238.873 163.52 240.023L135.958 251.471C132.832 252.804 131.38 256.428 132.71 259.562L135.622 266.413C138.992 274.344 148.141 278.03 156.052 274.65L162.48 271.899L178.119 289.025L201.507 266.221Z" fill="#595959"/>
<path d="M195.37 261.08L171.767 241.295C169.466 239.371 166.294 238.881 163.528 240.03L135.966 251.479C132.84 252.812 131.387 256.436 132.717 259.57L135.629 266.421C139 274.352 148.149 278.037 156.06 274.658L162.488 271.907L178.126 289.033" fill="#595959"/>
<path d="M195.37 261.08L171.767 241.295C169.466 239.371 166.294 238.881 163.528 240.03L135.966 251.479C132.84 252.812 131.387 256.436 132.717 259.57L135.629 266.421C139 274.352 148.149 278.037 156.06 274.658L162.488 271.907L178.126 289.033" stroke="#212121" stroke-width="2" stroke-miterlimit="10" stroke-linecap="round" stroke-linejoin="round"/>
<path d="M138.656 257.532L144.58 254.988C146.269 254.26 147.056 252.299 146.338 250.598L145.741 249.195" stroke="#212121" stroke-width="2" stroke-miterlimit="10" stroke-linecap="round" stroke-linejoin="round"/>
</svg>
